<?xml version="1.0" encoding="utf-8"?>
<!-- Generator: Adobe Illustrator 17.1.0, SVG Export Plug-In . SVG Version: 6.00 Build 0)  -->
<!DOCTYPE svg PUBLIC "-//W3C//DTD SVG 1.1//EN" "http://www.w3.org/Graphics/SVG/1.1/DTD/svg11.dtd">
<svg version="1.1" id="Layer_1" xmlns="http://www.w3.org/2000/svg" xmlns:xlink="http://www.w3.org/1999/xlink" x="0px" y="0px"
	 viewBox="0 0 225 60" enable-background="new 0 0 225 60" xml:space="preserve">
<g>
	<g>
		<g>
			<path fill="#FFFFFF" d="M73.9,16.5l19.2,0c0.8,0,1.9-0.1,2.7-0.8c0.8-0.7,0.8-2.1,0.8-2.3c0,0,0-7.4,0-7.4c0-2.8-2.3-5.2-5.1-5.2
				h0c0,0-19.2,0-19.2,0c-2.8,0-5,2.4-5.1,5.2l0,0l0,15.6l0,0c0,2.8,2.3,5.2,5.1,5.2h0c0,0,23.8,0,23.8,0l0-4.6c0,0,0,0,0,0
				c0-0.1,0-0.8-0.5-1.1c-0.4-0.2-0.9-0.2-1-0.2l-20.9,0L73.9,16.5z M73.9,6.6h15.2c1.2,0,1.7,0.9,1.7,2.2c0,1.3-0.5,2.2-1.7,2.2
				H73.9V6.6z"/>
		</g>
		<g>
			<path fill="#FFFFFF" d="M123.6,11.1l-19.2,0c-0.8,0-1.9,0.1-2.7,0.8c-0.8,0.7-0.8,2.1-0.8,2.3c0,0,0,7.4,0,7.4
				c0,2.8,2.3,5.2,5.1,5.2h0c0,0,19.2,0,19.2,0c2.8,0,5-2.4,5.1-5.2l0,0l0-15.6l0,0c0-2.8-2.3-5.2-5.1-5.2h0c0,0-23.8,0-23.8,0
				l0,4.6c0,0,0,0,0,0c0,0.1,0,0.8,0.5,1.1c0.4,0.2,0.9,0.2,1,0.2l20.9,0L123.6,11.1z M123.6,21h-15.2c-1.2,0-1.7-0.9-1.7-2.2
				c0-1.3,0.5-2.2,1.7-2.2h15.2V21z"/>
		</g>
		<g>
			<path fill="#FFFFFF" d="M63,26.8l0-10.7c0-1.4-0.3-2.2-0.9-2.7c-0.4-0.3-0.9-0.4-1.4-0.5c0.8-0.2,1.4-0.5,1.7-0.9
				c0.5-0.6,0.6-1.4,0.6-2.5c0-0.4,0-3.5,0-3.6c0-1.4-0.6-2.7-1.5-3.7c-1-0.9-2.3-1.5-4-1.5l-23.6,0v26.1c0,0,5.6,0,5.6,0
				c0,0,0.8,0,0.8-0.8l0-8.8c0-0.7,0.7-0.8,0.8-0.8c0,0,14.7,0,14.7,0c0,0,0.8,0,0.8,0.8l0,8.8c0,0.7,0.7,0.8,0.8,0.8
				C57.2,26.8,63,26.8,63,26.8z M40.2,6.6h15c0.6,0,0.9,0.2,1.1,0.6c0.2,0.4,0.3,1,0.3,1.6c0,0.6-0.1,1.2-0.3,1.6
				c-0.2,0.4-0.5,0.6-1.1,0.6h-15V6.6z"/>
		</g>
		<g>
			<path fill="#FFFFFF" d="M145.6,17.3c0,3.6,0,7.7,0,8c0,0.3,0,1.6,1.3,1.6l0.2,0h0.3h4.7c0-0.1,0-4.9,0-9.6V7.4c0,0,0-0.1,0-0.1
				c0,0,0-0.8,0.8-0.8l0.1,0h4.1l0,19.5c0,0.7,0.7,0.8,0.8,0.8c0,0,0.1,0,0.1,0h5.7V6l0,0c0-2.8-2.3-5.2-5.1-5.2c0,0-19.1,0-19.1,0
				h0c-2.8,0-5,2.4-5.1,5.2l0,0v20.8h5.7c0,0,0.1,0,0.1,0c0,0,0.8,0,0.8-0.8l0-19.5h4.1l0.1,0c0.7,0,0.8,0.7,0.8,0.8
				c0,0,0,0.1,0,0.1s0,2.2,0,3.5L145.6,17.3z"/>
		</g>
		<g>
			<path fill="#FFFFFF" d="M28.1,25.5 M24.2,26.8 M22.7,17l0,1.4v0.8v0.3l0,0.2c0,1.2-1.3,1.3-1.6,1.3c-0.1,0-2.8,0-2.8,0H6.4V6.6
				c0,0,14.5,0,14.7,0c0.3,0,1.6,0,1.6,1.3l0,0.2l0,1.5V17 M24.1,26.8c2.8,0,5.2-2.3,5.2-5.1l0-15.8l0,0c0-2.8-2.3-5.2-5.1-5.2
				l-0.3,0l-22,0l-2,0l0,16.5c0,3.6,0,7.7,0,8c0,0.3,0,1.6,1.3,1.6l0.2,0h0.3L24.1,26.8z"/>
		</g>
	</g>
	<g>
		<g>
			<path fill="#FFFFFF" d="M104.8,46.3c-0.3,0.2-0.7,0.5-1.2,0.8c-0.5,0.3-1,0.7-1.7,1.1c-0.6,0.3-1.1,0.6-1.5,0.9
				c-0.4,0.2-0.8,0.4-1.1,0.5c-0.4,0.2-0.9,0.3-1.4,0.4c-0.5,0.1-1,0.1-1.5,0.1c-0.2,0-0.3,0-0.5-0.1c-0.2,0-0.4-0.1-0.6-0.2
				c-0.3-0.1-0.5-0.1-0.7-0.2c-0.2-0.1-0.4-0.1-0.5-0.1l-0.2-0.2l-0.5-0.1c-0.2,0-0.4-0.1-0.7-0.3c-0.3-0.2-0.6-0.5-0.9-0.8
				c-0.3-0.3-0.6-0.6-0.8-0.9c-0.2-0.3-0.3-0.5-0.4-0.8l-0.4-1.4c-0.1-0.5-0.3-0.8-0.3-1.1c-0.1-0.3-0.1-0.5-0.1-0.6l0.2-0.7
				c-0.1-0.2-0.2-0.4-0.2-0.6c0-0.2-0.1-0.3-0.1-0.4c0-0.1,0-0.3,0.1-0.8c0.1-0.4,0.1-1,0.2-1.8c0.1-0.1,0.2-0.3,0.2-0.5
				c0.1-0.2,0.2-0.5,0.2-0.7l0-0.4c0-0.1,0-0.2,0.1-0.3c0-0.1,0.1-0.2,0.2-0.4c0.2-0.5,0.5-1.1,0.7-1.6c0.2-0.5,0.5-1.1,0.7-1.6
				c0.2-0.4,0.5-0.8,0.8-1.2c0.3-0.4,0.7-0.8,1.2-1.3c0.1-0.1,0.2-0.2,0.4-0.4c0.1-0.2,0.3-0.4,0.5-0.6c0.2-0.1,0.4-0.3,0.7-0.5
				c0.3-0.2,0.6-0.5,0.9-0.8c0.1,0,0.2-0.1,0.4-0.2c0.1-0.1,0.3-0.2,0.5-0.3c0.1,0,0.1-0.1,0.2-0.2c0.1-0.1,0.2-0.2,0.3-0.2
				c0.1-0.1,0.5-0.3,1.3-0.5c0.7-0.2,1.2-0.3,1.4-0.3c0.5,0,0.9,0,1.2,0.1c0.3,0.1,0.6,0.2,0.8,0.3l0.5,0.1c0.4,0.1,0.7,0.4,0.9,1
				c0.2,0.6,0.3,1.4,0.3,2.4c0,0.5,0,0.9,0,1.2c0,0.3,0,0.5,0,0.6c-0.1,0.3-0.1,0.7-0.2,1.2c-0.1,0.5-0.2,1-0.3,1.7
				c0,0.2-0.1,0.5-0.2,0.8c-0.1,0.4-0.3,0.9-0.5,1.4c-0.2,0.6-0.4,1.1-0.6,1.4c-0.2,0.3-0.3,0.5-0.4,0.5c-0.4,0.1-0.9,0.2-1.4,0.4
				c-0.2,0-0.4,0-0.5-0.1c-0.1,0-0.1-0.1-0.1-0.2c0-0.1,0-0.2,0.1-0.4c0-0.2,0.1-0.3,0.1-0.3c0-0.4-0.1-0.8-0.1-1.2
				c0-0.1,0-0.4,0.1-0.9c0.1-0.4,0.2-1,0.4-1.7c0.2-0.7,0.3-1.3,0.5-1.8s0.2-0.7,0.3-0.8c0.3-0.3,0.5-0.6,0.7-0.8
				c0.1-0.3,0.2-0.5,0.2-0.7c0-0.3-0.1-0.6-0.2-0.8c-0.1-0.2-0.4-0.4-0.6-0.5c-0.3-0.1-0.6-0.1-0.8-0.2c-0.3-0.1-0.6-0.1-0.8-0.2
				c-0.2,0.1-0.4,0.1-0.6,0.2c-0.2,0-0.3,0.1-0.5,0.1c-0.7,0.1-1.4,0.4-2.1,1c-0.7,0.5-1.3,1.3-1.9,2.3c-0.5,0.8-0.9,1.7-1.2,2.5
				c-0.3,0.8-0.5,1.7-0.6,2.5c0,0.3-0.1,0.6-0.2,1c-0.1,0.4-0.2,0.8-0.3,1.3c0.1,0.3,0.2,0.6,0.3,0.9l-0.2,1.5c0,0.1,0,0.2,0.1,0.3
				c0.1,0.2,0.2,0.4,0.4,0.7c0.1,0.2,0.2,0.4,0.3,0.6c0.1,0.2,0.2,0.5,0.2,0.8c0,0.1,0.1,0.2,0.1,0.2c0.1,0.1,0.1,0.2,0.2,0.2
				c0.2,0.1,0.3,0.3,0.5,0.4c0.5,0.5,0.9,0.9,1.5,1.1c0.5,0.3,1.1,0.4,1.7,0.4c0.1,0,0.3,0,0.6-0.1c0.3-0.1,0.8-0.1,1.4-0.3
				c0.1-0.1,0.2-0.1,0.4-0.2c0.2-0.1,0.4-0.2,0.6-0.2c0.2-0.2,0.4-0.4,0.6-0.5c0.2-0.1,0.4-0.1,0.6-0.1c0.1-0.1,0.1-0.2,0.2-0.3
				c0.1-0.1,0.2-0.2,0.3-0.4c0.3-0.1,0.6-0.3,0.9-0.5c0.3-0.2,0.5-0.5,0.8-0.7C104.6,45.8,104.8,46.3,104.8,46.3z"/>
			<path fill="#FFFFFF" d="M96.4,50.3c-0.2,0-0.3,0-0.6-0.1c-0.2,0-0.4-0.1-0.6-0.2c-0.3-0.1-0.5-0.1-0.7-0.2
				c-0.2-0.1-0.3-0.1-0.5-0.1l0,0l-0.2-0.2l-0.4-0.1c-0.2,0-0.5-0.1-0.8-0.3c-0.3-0.2-0.6-0.5-0.9-0.8c-0.3-0.3-0.6-0.6-0.8-0.9
				c-0.2-0.3-0.3-0.6-0.4-0.8L90,45.2c-0.1-0.5-0.3-0.9-0.3-1.1c-0.1-0.3-0.1-0.5-0.1-0.6l0.2-0.7c-0.1-0.2-0.1-0.4-0.2-0.6
				c-0.1-0.2-0.1-0.3-0.1-0.4c0-0.1,0-0.4,0.1-0.8c0.1-0.4,0.1-1,0.2-1.8l0,0c0.1-0.1,0.2-0.3,0.2-0.5c0.1-0.2,0.2-0.4,0.2-0.7
				l0-0.3c0-0.1,0-0.2,0.1-0.3c0-0.1,0.1-0.2,0.2-0.4c0.2-0.5,0.5-1.1,0.7-1.6c0.2-0.5,0.5-1.1,0.7-1.6c0.2-0.4,0.5-0.8,0.8-1.2
				c0.3-0.4,0.7-0.8,1.2-1.3c0.1-0.1,0.2-0.2,0.3-0.4c0.1-0.2,0.3-0.4,0.5-0.6l0,0c0.2-0.1,0.4-0.3,0.7-0.5c0.3-0.2,0.6-0.5,0.9-0.8
				l0,0c0.1,0,0.2-0.1,0.4-0.2l0.5-0.3c0,0,0.1-0.1,0.2-0.2c0.1-0.1,0.2-0.2,0.3-0.2c0.1-0.1,0.5-0.3,1.3-0.5
				c0.7-0.2,1.2-0.3,1.5-0.3c0.5,0,0.9,0,1.3,0.1c0.3,0.1,0.6,0.2,0.8,0.3l0.5,0.1c0.4,0.1,0.8,0.4,1,1c0.2,0.6,0.3,1.4,0.3,2.4
				c0,0.5,0,0.9,0,1.2c0,0.3,0,0.5,0,0.6c-0.1,0.3-0.1,0.7-0.2,1.2c-0.1,0.5-0.2,1.1-0.3,1.7c0,0.2-0.1,0.5-0.2,0.8
				c-0.1,0.4-0.3,0.9-0.5,1.5c-0.2,0.6-0.4,1.1-0.6,1.4c-0.2,0.3-0.3,0.5-0.4,0.6c-0.4,0.1-0.9,0.2-1.4,0.4l0,0
				c-0.2,0-0.4,0-0.5-0.1c-0.2-0.1-0.2-0.2-0.2-0.2c0-0.1,0-0.2,0.1-0.4c0-0.2,0.1-0.3,0.1-0.3c0-0.4-0.1-0.8-0.1-1.2
				c0-0.2,0-0.5,0.1-0.9c0.1-0.4,0.2-1,0.4-1.7c0.2-0.7,0.3-1.3,0.5-1.8c0.1-0.4,0.3-0.7,0.3-0.8c0.3-0.3,0.5-0.6,0.7-0.8
				c0.1-0.3,0.2-0.5,0.2-0.7c0-0.3-0.1-0.5-0.2-0.8c-0.1-0.2-0.3-0.4-0.6-0.5c-0.3-0.1-0.5-0.1-0.8-0.2c-0.3-0.1-0.6-0.1-0.8-0.2
				c-0.2,0.1-0.4,0.1-0.6,0.2c-0.2,0-0.3,0.1-0.5,0.1c-0.7,0.1-1.4,0.4-2,1c-0.6,0.5-1.3,1.3-1.9,2.2c-0.5,0.8-0.9,1.7-1.2,2.5
				c-0.3,0.8-0.5,1.7-0.6,2.5c0,0.3-0.1,0.6-0.2,1c-0.1,0.4-0.2,0.8-0.3,1.3c0.1,0.3,0.2,0.6,0.3,0.9l0,0l0,0l-0.2,1.5
				c0,0,0,0.1,0.1,0.3c0.1,0.2,0.2,0.4,0.4,0.7c0.1,0.2,0.2,0.4,0.3,0.7c0.1,0.2,0.2,0.5,0.2,0.8c0,0.1,0.1,0.1,0.1,0.2
				c0.1,0.1,0.1,0.1,0.2,0.2c0.2,0.1,0.3,0.3,0.5,0.4c0.5,0.5,0.9,0.9,1.5,1.1c0.5,0.2,1.1,0.4,1.6,0.4c0,0,0.1,0,0.6-0.1
				c0.3-0.1,0.8-0.1,1.4-0.3c0.1-0.1,0.3-0.1,0.4-0.2c0.2-0.1,0.4-0.2,0.6-0.2c0.2-0.2,0.4-0.4,0.6-0.5c0.2-0.1,0.4-0.1,0.6-0.1
				c0.1-0.1,0.1-0.2,0.2-0.2c0.1-0.1,0.2-0.2,0.3-0.4l0,0c0.3-0.1,0.6-0.3,0.9-0.5c0.3-0.2,0.5-0.4,0.8-0.7l0.1-0.1l0,0.1
				c0.6,1.4,0.6,1.5,0.6,1.5v0l0,0c-0.3,0.2-0.7,0.5-1.2,0.9c-0.5,0.3-1,0.7-1.7,1.1c-0.6,0.3-1.1,0.6-1.5,0.9
				c-0.4,0.2-0.8,0.4-1.1,0.5c-0.4,0.2-0.9,0.4-1.4,0.4C97.4,50.2,96.9,50.3,96.4,50.3z M94,49.6c0.1,0,0.3,0,0.5,0.1
				c0.2,0.1,0.4,0.1,0.7,0.2c0.2,0.1,0.4,0.1,0.6,0.2c0.2,0,0.4,0.1,0.5,0.1c0.5,0,1,0,1.5-0.1c0.5-0.1,0.9-0.2,1.4-0.4
				c0.3-0.1,0.7-0.3,1.1-0.5c0.4-0.2,1-0.5,1.5-0.9c0.6-0.4,1.2-0.7,1.7-1.1c0.5-0.3,0.9-0.6,1.2-0.8c0-0.1-0.2-0.4-0.6-1.3
				c-0.2,0.2-0.5,0.5-0.7,0.7c-0.3,0.2-0.6,0.4-0.9,0.5c-0.1,0.1-0.2,0.2-0.3,0.3c-0.1,0.1-0.1,0.2-0.2,0.3l0,0h0
				c-0.2,0-0.4,0-0.6,0.1c-0.2,0.1-0.4,0.2-0.6,0.4l0,0c-0.2,0.1-0.5,0.2-0.6,0.2c-0.2,0.1-0.3,0.1-0.4,0.2l0,0
				c-0.6,0.1-1.1,0.2-1.4,0.3c-0.5,0.1-0.6,0.1-0.6,0.1c-0.6,0-1.2-0.1-1.7-0.4c-0.5-0.3-1-0.6-1.5-1.1c-0.1-0.1-0.3-0.2-0.5-0.4
				c-0.1-0.1-0.1-0.1-0.2-0.2c-0.1-0.1-0.1-0.2-0.1-0.3c-0.1-0.3-0.1-0.6-0.2-0.8c-0.1-0.2-0.2-0.5-0.3-0.6
				c-0.2-0.3-0.4-0.6-0.4-0.7c-0.1-0.2-0.2-0.3-0.2-0.4l0.2-1.5c-0.1-0.3-0.2-0.6-0.3-0.9l0,0l0,0c0.1-0.5,0.2-1,0.3-1.3
				c0.1-0.4,0.1-0.7,0.2-1c0.1-0.8,0.3-1.7,0.6-2.5c0.3-0.8,0.7-1.7,1.2-2.5c0.6-1,1.2-1.7,1.9-2.3c0.7-0.5,1.4-0.9,2.1-1
				c0.1,0,0.3-0.1,0.5-0.1c0.2,0,0.4-0.1,0.6-0.2l0,0l0,0c0.3,0.1,0.6,0.2,0.8,0.2c0.3,0.1,0.6,0.1,0.8,0.2c0.3,0.1,0.5,0.3,0.7,0.5
				c0.2,0.2,0.2,0.5,0.2,0.8c0,0.2-0.1,0.5-0.2,0.7c-0.1,0.3-0.4,0.5-0.7,0.8c0,0.1-0.2,0.3-0.3,0.8c-0.1,0.4-0.3,1-0.5,1.8
				c-0.2,0.7-0.3,1.2-0.4,1.7c-0.1,0.4-0.1,0.7-0.1,0.9c0,0.4,0.1,0.8,0.1,1.2c0,0.1,0,0.2-0.1,0.4c0,0.2-0.1,0.3-0.1,0.3
				c0,0,0,0.1,0.1,0.1c0.1,0,0.2,0.1,0.5,0.1c0.5-0.1,0.9-0.2,1.4-0.4c0,0,0.2-0.1,0.4-0.5c0.2-0.3,0.4-0.8,0.6-1.4
				c0.2-0.6,0.4-1.1,0.5-1.4c0.1-0.4,0.2-0.7,0.2-0.8c0.1-0.6,0.2-1.2,0.3-1.7c0.1-0.5,0.2-0.9,0.2-1.2c0-0.1,0-0.3,0-0.6
				c0-0.3,0-0.7,0-1.2c0-1-0.1-1.8-0.3-2.4c-0.2-0.5-0.5-0.8-0.9-0.9l-0.5-0.1c-0.2-0.1-0.5-0.3-0.8-0.3c-0.3-0.1-0.8-0.1-1.2-0.1
				c-0.2,0-0.7,0.1-1.4,0.3c-0.9,0.3-1.2,0.4-1.3,0.5c-0.1,0.1-0.2,0.2-0.3,0.2c-0.1,0.1-0.2,0.1-0.2,0.2l-0.5,0.3
				c-0.1,0.1-0.3,0.1-0.4,0.2c-0.4,0.3-0.7,0.6-0.9,0.8c-0.3,0.2-0.5,0.4-0.7,0.5c-0.2,0.2-0.4,0.4-0.5,0.6
				c-0.1,0.2-0.3,0.3-0.4,0.4c-0.4,0.4-0.8,0.9-1.2,1.3c-0.3,0.4-0.6,0.8-0.8,1.2c-0.2,0.5-0.5,1-0.7,1.5c-0.2,0.5-0.5,1.1-0.7,1.6
				c-0.1,0.1-0.1,0.3-0.1,0.4c0,0.1-0.1,0.2-0.1,0.3l0,0.4l0,0c-0.1,0.3-0.2,0.5-0.2,0.7c-0.1,0.2-0.2,0.4-0.2,0.5
				c-0.1,0.8-0.2,1.4-0.2,1.8c-0.1,0.5-0.1,0.7-0.1,0.8c0,0.1,0,0.2,0.1,0.4c0,0.2,0.1,0.4,0.2,0.6l0,0l-0.2,0.7c0,0,0,0.2,0.1,0.5
				c0.1,0.3,0.2,0.7,0.3,1.1l0.4,1.4c0.1,0.2,0.2,0.5,0.4,0.8c0.2,0.3,0.5,0.6,0.8,0.9c0.3,0.3,0.6,0.6,0.9,0.8
				c0.3,0.2,0.5,0.3,0.7,0.3l0.5,0.1L94,49.6z"/>
		</g>
		<g>
			<path fill="#FFFFFF" d="M104.1,44.8c0.1-0.1,0.2-0.2,0.2-0.3c0.1-0.1,0.2-0.3,0.3-0.4l1.2-0.8c0.1-0.2,0.4-0.4,0.7-0.7
				c0.3-0.3,0.7-0.6,1.2-1c0.1-0.1,0.1-0.3,0.3-0.4c0.1-0.2,0.3-0.3,0.4-0.5c0.1-0.1,0.3-0.3,0.4-0.4c0.1-0.1,0.3-0.2,0.4-0.4
				c0.2-0.2,0.3-0.3,0.5-0.5c0.1-0.2,0.3-0.3,0.4-0.5c0.2-0.1,0.3-0.3,0.5-0.4c0.2-0.1,0.4-0.1,0.6-0.1c0.2,0,0.4,0,0.5,0.1
				c0.1,0.1,0.2,0.1,0.2,0.2c-0.1,0.2-0.2,0.5-0.3,0.7l0.1,0.1c0.5-0.2,0.8-0.3,1.1-0.4c0.3-0.1,0.4-0.1,0.5-0.1
				c0.8,0,1.4,0.2,1.8,0.7c0.4,0.5,0.6,1.2,0.6,2.2c0,0.2,0,0.4-0.1,0.6c0,0.2-0.1,0.5-0.2,0.8c-0.1,0.3-0.2,0.6-0.3,0.8
				c-0.1,0.2-0.2,0.4-0.3,0.5c0,0.1,0.1,0.2,0.1,0.3c0.1,0.1,0.1,0.1,0.2,0.1c0.1,0,0.2,0,0.3-0.1c0.1-0.1,0.2-0.1,0.3-0.2
				c0.1,0.2,0.2,0.5,0.3,0.7c0.1,0.3,0.2,0.5,0.3,0.7c-0.2,0.2-0.4,0.3-0.6,0.5c-0.2,0.2-0.4,0.3-0.6,0.5c-0.2,0.2-0.5,0.3-0.7,0.4
				c-0.2,0.1-0.4,0.1-0.6,0.1c-0.2,0-0.4-0.1-0.6-0.2c-0.2-0.1-0.3-0.3-0.4-0.5c-0.3,0.4-0.6,0.7-1,1c-0.4,0.3-0.8,0.5-1.3,0.7
				c-0.3,0.1-0.5,0.2-0.7,0.3c-0.2,0.1-0.4,0.1-0.6,0.1c-0.1,0-0.2,0-0.3,0.1c-0.2,0-0.3,0.1-0.4,0.1c-0.6,0-1.2-0.3-1.6-0.8
				c-0.5-0.5-0.7-1.1-0.7-1.7c0-0.3,0.1-0.6,0.2-1c0.1-0.4,0.2-0.7,0.2-0.7c0-0.1,0-0.1-0.1-0.2s-0.1-0.1-0.2-0.1
				c-0.1,0-0.2,0.1-0.4,0.2c-0.2,0.2-0.5,0.4-0.9,0.7c0,0-0.1,0.1-0.1,0.2c0,0.1-0.1,0.2-0.2,0.3c-0.1-0.2-0.2-0.5-0.3-0.7
				C104.4,45.3,104.2,45.1,104.1,44.8z M111.8,41.9c-0.1,0-0.1,0.1-0.2,0.2c-0.1,0.1-0.2,0.2-0.3,0.4c-0.1,0.2-0.3,0.5-0.5,0.8
				c-0.1,0.1-0.2,0.2-0.4,0.3c-0.1,0.1-0.3,0.1-0.5,0.2c-0.1,0-0.2,0.1-0.3,0.3c-0.1,0.2-0.2,0.5-0.4,0.9c-0.1,0.3-0.2,0.6-0.3,0.8
				c-0.1,0.2-0.1,0.4-0.1,0.6c0,0.3,0.1,0.5,0.2,0.7c0.1,0.1,0.4,0.2,0.7,0.2c0.5,0,0.9-0.1,1.4-0.4c0.4-0.3,0.8-0.7,1.2-1.2
				c0.2-0.2,0.3-0.4,0.5-0.6c0.1-0.1,0.2-0.2,0.2-0.3c0.1-0.1,0.1-0.3,0.2-0.5l0.3-0.9c-0.1-0.3-0.2-0.6-0.3-0.8
				c-0.1-0.2-0.2-0.3-0.3-0.3c-0.1,0-0.2-0.1-0.4-0.1C112.4,42,112.2,42,111.8,41.9z"/>
			<path fill="#FFFFFF" d="M108.6,49.5c-0.6,0-1.2-0.3-1.7-0.8c-0.5-0.5-0.8-1.1-0.8-1.8c0-0.3,0.1-0.6,0.2-1
				c0.1-0.5,0.2-0.7,0.2-0.7c0-0.1,0-0.1-0.1-0.1c0,0-0.1-0.1-0.2-0.1c0,0-0.1,0-0.3,0.2c-0.2,0.2-0.5,0.4-0.9,0.7
				c0,0-0.1,0.1-0.1,0.2c0,0.1-0.1,0.2-0.2,0.3l-0.1,0.1l0-0.1c-0.1-0.2-0.2-0.5-0.3-0.7c-0.1-0.2-0.2-0.5-0.3-0.7l0,0l0,0
				c0.1-0.1,0.1-0.2,0.2-0.3c0.1-0.1,0.2-0.3,0.3-0.4l0,0l1.2-0.8c0.2-0.2,0.4-0.4,0.7-0.7c0.3-0.3,0.7-0.6,1.1-1
				c0.1-0.1,0.1-0.3,0.3-0.4c0.1-0.2,0.3-0.3,0.4-0.5c0.2-0.1,0.3-0.3,0.4-0.4c0.1-0.1,0.3-0.2,0.4-0.4c0.2-0.2,0.3-0.3,0.5-0.5
				c0.1-0.2,0.3-0.3,0.4-0.5c0.2-0.2,0.4-0.3,0.5-0.4c0.2-0.1,0.4-0.1,0.6-0.1c0.2,0,0.4,0,0.6,0.1c0.1,0.1,0.2,0.2,0.2,0.3l0,0l0,0
				c-0.1,0.2-0.2,0.5-0.3,0.7l0,0.1c0.4-0.2,0.8-0.3,1.1-0.4c0.4-0.1,0.5-0.1,0.5-0.1c0.8,0,1.4,0.2,1.8,0.7
				c0.4,0.5,0.6,1.2,0.6,2.2c0,0.2,0,0.4-0.1,0.7c0,0.2-0.1,0.5-0.2,0.8c-0.1,0.3-0.2,0.6-0.3,0.8c-0.1,0.2-0.2,0.4-0.3,0.5
				c0,0.1,0.1,0.2,0.1,0.2c0.1,0.1,0.2,0.1,0.4,0c0.1-0.1,0.2-0.1,0.3-0.2l0.1-0.1l0,0.1c0.1,0.2,0.2,0.5,0.3,0.7
				c0.1,0.2,0.2,0.5,0.3,0.7l0,0l0,0c-0.2,0.2-0.4,0.3-0.6,0.5c-0.2,0.2-0.4,0.3-0.6,0.5c-0.2,0.2-0.5,0.4-0.7,0.4
				c-0.2,0.1-0.5,0.1-0.7,0.1c-0.3,0-0.5-0.1-0.6-0.2c-0.1-0.1-0.3-0.3-0.4-0.4c-0.3,0.3-0.6,0.6-0.9,0.9c-0.4,0.3-0.8,0.5-1.3,0.7
				c-0.3,0.1-0.5,0.2-0.7,0.3c-0.2,0.1-0.4,0.1-0.6,0.1c0,0-0.1,0-0.3,0.1C108.9,49.4,108.7,49.5,108.6,49.5z M106.3,44.8
				c0.1,0,0.2,0,0.2,0.1c0.1,0.1,0.1,0.1,0.1,0.2c0,0.1,0,0.2-0.2,0.8c-0.1,0.4-0.2,0.8-0.2,1c0,0.6,0.2,1.2,0.7,1.7
				c0.5,0.5,1,0.7,1.6,0.7c0.1,0,0.2,0,0.4-0.1c0.2,0,0.3-0.1,0.3-0.1c0.2,0,0.4,0,0.6-0.1c0.2-0.1,0.5-0.2,0.7-0.3
				c0.5-0.2,0.9-0.4,1.2-0.7c0.4-0.3,0.7-0.6,1-1l0.1-0.1l0,0.1c0.1,0.2,0.2,0.4,0.4,0.5c0.1,0.1,0.3,0.2,0.6,0.2
				c0.2,0,0.4,0,0.6-0.1c0.2-0.1,0.4-0.2,0.7-0.4c0.2-0.1,0.4-0.3,0.6-0.5c0.2-0.2,0.3-0.3,0.5-0.5c-0.1-0.2-0.2-0.5-0.3-0.7
				c-0.1-0.2-0.2-0.4-0.3-0.7c-0.1,0.1-0.2,0.1-0.3,0.2c-0.2,0.1-0.4,0.1-0.5,0c-0.1-0.1-0.1-0.2-0.2-0.3l0,0l0,0
				c0.1-0.1,0.2-0.2,0.3-0.4c0.1-0.2,0.2-0.5,0.3-0.8c0.1-0.3,0.2-0.5,0.2-0.8c0-0.2,0.1-0.5,0.1-0.6c0-0.9-0.2-1.7-0.6-2.1
				c-0.4-0.5-0.9-0.7-1.7-0.7c0,0-0.2,0-0.5,0.1c-0.3,0.1-0.6,0.2-1.1,0.4l0,0l-0.1-0.2l0,0c0.1-0.2,0.2-0.5,0.3-0.7
				c0-0.1-0.1-0.1-0.2-0.2c-0.1-0.1-0.3-0.1-0.5-0.1c-0.2,0-0.4,0-0.6,0.1c-0.2,0.1-0.3,0.2-0.5,0.3c-0.1,0.1-0.3,0.3-0.4,0.5
				c-0.1,0.2-0.3,0.3-0.5,0.5c-0.1,0.1-0.3,0.2-0.4,0.4c-0.1,0.1-0.3,0.3-0.4,0.4c-0.2,0.1-0.3,0.3-0.4,0.4
				c-0.1,0.2-0.2,0.3-0.3,0.4l0,0c-0.5,0.4-0.8,0.8-1.2,1c-0.3,0.3-0.5,0.5-0.7,0.7l0,0l-1.2,0.8c-0.1,0.1-0.2,0.3-0.3,0.4
				c-0.1,0.1-0.1,0.2-0.2,0.3c0.1,0.2,0.2,0.5,0.3,0.7c0.1,0.2,0.2,0.4,0.3,0.6c0.1-0.1,0.1-0.1,0.1-0.2c0-0.1,0.1-0.2,0.1-0.2l0,0
				c0.4-0.3,0.7-0.5,0.9-0.7C106.2,44.9,106.3,44.8,106.3,44.8z M109.8,47.3c-0.3,0-0.6-0.1-0.7-0.2c-0.2-0.2-0.2-0.4-0.2-0.7
				c0-0.2,0-0.4,0.1-0.6c0.1-0.2,0.1-0.5,0.3-0.9c0.1-0.4,0.2-0.7,0.4-0.9c0.1-0.2,0.3-0.3,0.4-0.3c0.2,0,0.3-0.1,0.4-0.1
				c0.1-0.1,0.2-0.2,0.4-0.3c0.2-0.3,0.4-0.5,0.5-0.8c0.1-0.2,0.2-0.3,0.3-0.4c0.1-0.1,0.2-0.2,0.3-0.2l0,0l0,0
				c0.3,0,0.6,0.1,0.8,0.1c0.2,0,0.3,0.1,0.4,0.1c0.1,0,0.2,0.2,0.3,0.4c0.1,0.2,0.2,0.4,0.3,0.8l0,0l0,0l-0.3,0.9
				c-0.1,0.2-0.1,0.4-0.2,0.5c-0.1,0.2-0.1,0.3-0.2,0.3c-0.1,0.2-0.3,0.4-0.5,0.6c-0.4,0.5-0.8,1-1.2,1.2
				C110.8,47.1,110.3,47.3,109.8,47.3z M111.8,42c0,0-0.1,0-0.2,0.1c-0.1,0.1-0.2,0.2-0.3,0.4c-0.1,0.2-0.3,0.5-0.5,0.8
				c-0.1,0.1-0.3,0.2-0.4,0.3c-0.1,0.1-0.3,0.1-0.5,0.2c-0.1,0-0.2,0.1-0.3,0.3c-0.1,0.2-0.2,0.5-0.3,0.8c-0.1,0.3-0.2,0.6-0.3,0.8
				c-0.1,0.2-0.1,0.4-0.1,0.6c0,0.3,0.1,0.5,0.2,0.6c0.1,0.1,0.4,0.2,0.6,0.2c0.5,0,0.9-0.1,1.3-0.4c0.4-0.3,0.8-0.7,1.1-1.2
				c0.2-0.2,0.3-0.4,0.5-0.6c0.1-0.1,0.1-0.2,0.2-0.3c0.1-0.1,0.1-0.3,0.2-0.5l0.3-0.9c-0.1-0.3-0.2-0.6-0.3-0.7
				c-0.1-0.2-0.2-0.3-0.2-0.3c0,0-0.1-0.1-0.3-0.1C112.4,42.1,112.2,42,111.8,42z"/>
		</g>
		<g>
			<path fill="#FFFFFF" d="M115.7,44.8c0-0.1,0.1-0.2,0.2-0.2c0.1-0.1,0.2-0.2,0.2-0.3c0.1-0.1,0.2-0.2,0.4-0.4
				c0.2-0.2,0.4-0.3,0.6-0.6c0.2-0.2,0.4-0.5,0.7-0.8c0.3-0.3,0.6-0.7,1-1.1c0.2-0.2,0.4-0.4,0.6-0.7c0.3-0.3,0.6-0.6,0.9-1
				c0.3-0.4,0.6-0.6,1-0.8c0.3-0.2,0.7-0.3,1.1-0.3c0.4,0,0.7,0.1,0.8,0.4c0.2,0.2,0.3,0.6,0.3,1c0,0.2-0.1,0.7-0.3,1.4
				c-0.2,0.7-0.5,1.6-0.8,2.8c-0.1,0.2-0.2,0.4-0.3,0.6c-0.1,0.1-0.1,0.3-0.1,0.4c0,0.1,0,0.2,0,0.2c0,0.1,0,0.1,0.1,0.2
				c0.1,0,0.1-0.1,0.2-0.1c0-0.1,0.1-0.1,0.2-0.2c0.1-0.2,0.2-0.3,0.4-0.5c0.2-0.2,0.4-0.4,0.6-0.6c0.1-0.2,0.2-0.4,0.4-0.5
				c0.2-0.2,0.3-0.3,0.5-0.5c0,0,0.1-0.1,0.2-0.2c0.1-0.1,0.2-0.2,0.2-0.3c0.1-0.1,0.3-0.3,0.5-0.4c0.2-0.1,0.4-0.3,0.7-0.5
				c0.3-0.1,0.5-0.3,0.8-0.4c0.2-0.1,0.4-0.1,0.6-0.1c0.3,0,0.6,0.1,0.9,0.2c0.3,0.2,0.5,0.4,0.7,0.8c0.2,0.7,0.4,1.3,0.6,1.8
				c0.1,0.3,0.2,0.6,0.4,0.7c0.1,0.2,0.3,0.2,0.5,0.2c0.1,0,0.3,0,0.4-0.1c0.1-0.1,0.2-0.1,0.3-0.2l0.6,1.5
				c-0.2,0.1-0.4,0.3-0.6,0.5c-0.2,0.2-0.4,0.3-0.6,0.5c-0.2,0.2-0.5,0.4-0.7,0.5c-0.2,0.1-0.4,0.1-0.6,0.1c-0.2,0-0.5-0.1-0.7-0.2
				c-0.2-0.1-0.4-0.3-0.6-0.5c-0.1-0.1-0.2-0.2-0.3-0.5c-0.1-0.2-0.3-0.5-0.4-0.9c-0.1-0.1-0.3-0.3-0.5-0.6
				c-0.2-0.2-0.4-0.5-0.6-0.8l-0.1,0c-0.2,0.1-0.4,0.2-0.6,0.3c-0.2,0.1-0.4,0.3-0.6,0.5c-0.5,0.4-0.8,0.7-1,0.8
				c-0.2,0.1-0.4,0.2-0.4,0.4c-0.1,0.3-0.4,0.6-0.8,1c-0.4,0.4-0.8,0.9-1.4,1.4c-0.1,0.1-0.3,0.3-0.4,0.4c-0.1,0.1-0.3,0.3-0.4,0.4
				c-0.1,0.1-0.3,0.2-0.5,0.2s-0.4,0.1-0.6,0.1c-0.4,0-0.7-0.1-0.7-0.4c0-0.3-0.1-0.6-0.1-0.9c0.2-0.4,0.3-1,0.5-1.7
				c0.2-0.7,0.4-1.5,0.7-2.4c0-0.1,0-0.1,0.1-0.2c0-0.1,0.1-0.2,0.1-0.4c0.1-0.1,0.1-0.3,0.1-0.4c0-0.1,0-0.2,0-0.3
				c0-0.1,0-0.1-0.1-0.2c-0.1,0-0.1-0.1-0.3-0.1c-0.1,0-0.2,0.1-0.4,0.2c-0.2,0.1-0.4,0.3-0.6,0.6c-0.3,0.3-0.5,0.6-0.7,0.8
				c-0.2,0.2-0.3,0.3-0.4,0.3c-0.1,0.1-0.2,0.2-0.4,0.3c-0.1,0.1-0.3,0.3-0.5,0.5c0,0-0.1,0.1-0.1,0.2c0,0.1-0.1,0.2-0.2,0.3
				c0-0.2-0.1-0.4-0.2-0.6C116,45.5,115.9,45.2,115.7,44.8z"/>
			<path fill="#FFFFFF" d="M119.2,50c-0.5,0-0.7-0.2-0.8-0.5c0-0.3-0.1-0.6-0.1-0.9l0,0l0,0c0.2-0.4,0.3-1,0.5-1.7
				c0.2-0.7,0.4-1.5,0.7-2.3c0-0.1,0-0.1,0.1-0.2c0-0.1,0.1-0.2,0.1-0.4c0.1-0.1,0.1-0.3,0.1-0.4c0-0.1,0-0.2,0-0.3
				c0-0.1,0-0.1-0.1-0.1c0,0-0.1-0.1-0.2-0.1c-0.1,0-0.2,0.1-0.4,0.2c-0.2,0.1-0.4,0.3-0.6,0.6c-0.3,0.3-0.5,0.6-0.7,0.8
				c-0.3,0.3-0.3,0.3-0.4,0.3c-0.1,0.1-0.2,0.2-0.4,0.3c-0.1,0.1-0.3,0.3-0.5,0.5l-0.1,0.2c0,0.1-0.1,0.2-0.2,0.3l-0.1,0.1l0-0.1
				c0-0.2-0.1-0.4-0.2-0.6c-0.1-0.2-0.2-0.5-0.4-0.9l0,0l0,0c0-0.1,0.1-0.2,0.2-0.3c0.1-0.1,0.2-0.2,0.2-0.3l0,0
				c0.1-0.1,0.2-0.2,0.4-0.4s0.4-0.4,0.6-0.6c0.2-0.2,0.4-0.5,0.7-0.8l1-1.1c0.2-0.2,0.4-0.4,0.6-0.7c0.3-0.3,0.6-0.6,0.9-1
				c0.3-0.4,0.6-0.6,1-0.8c0.3-0.2,0.7-0.3,1.1-0.3c0.4,0,0.7,0.1,0.9,0.4c0.2,0.3,0.3,0.6,0.3,1.1c0,0.3-0.1,0.7-0.3,1.4
				c-0.2,0.7-0.5,1.6-0.8,2.8c-0.1,0.2-0.2,0.4-0.3,0.6c-0.1,0.1-0.1,0.3-0.1,0.4c0,0.1,0,0.2,0,0.2c0,0,0,0.1,0.1,0.2
				c0,0,0.1-0.1,0.1-0.1c0-0.1,0.1-0.1,0.2-0.2c0.1-0.2,0.2-0.3,0.4-0.5c0.2-0.2,0.4-0.4,0.6-0.6c0.1-0.2,0.2-0.4,0.4-0.5
				c0.2-0.2,0.3-0.3,0.5-0.5c0,0,0.1-0.1,0.2-0.2c0.1-0.1,0.2-0.2,0.3-0.3c0.1-0.1,0.3-0.3,0.5-0.4c0.2-0.2,0.4-0.3,0.7-0.5
				c0.3-0.2,0.6-0.3,0.8-0.4c0.2-0.1,0.4-0.1,0.6-0.1c0.3,0,0.6,0.1,0.9,0.2c0.3,0.2,0.5,0.4,0.7,0.8c0.2,0.7,0.4,1.3,0.6,1.9
				c0.1,0.3,0.2,0.6,0.4,0.7c0.1,0.1,0.3,0.2,0.4,0.2c0.1,0,0.2,0,0.3-0.1c0.1,0,0.2-0.1,0.3-0.2l0.1-0.1l0.7,1.6l0,0
				c-0.2,0.1-0.4,0.3-0.6,0.5c-0.2,0.2-0.4,0.3-0.6,0.5c-0.2,0.2-0.5,0.4-0.7,0.5c-0.5,0.2-1,0.2-1.4,0c-0.2-0.1-0.4-0.3-0.6-0.5
				c-0.1-0.1-0.2-0.2-0.3-0.5c-0.1-0.2-0.3-0.5-0.4-0.9c-0.1-0.1-0.3-0.3-0.5-0.6c-0.2-0.2-0.4-0.5-0.6-0.8l-0.1,0
				c-0.2,0.1-0.4,0.2-0.6,0.3c-0.2,0.1-0.4,0.3-0.6,0.5c-0.5,0.4-0.8,0.7-1.1,0.8c-0.2,0.1-0.3,0.2-0.4,0.3c-0.2,0.3-0.4,0.6-0.8,1
				c-0.4,0.4-0.8,0.9-1.4,1.4c-0.1,0.1-0.3,0.3-0.4,0.4c-0.1,0.1-0.3,0.3-0.4,0.4c-0.1,0.1-0.3,0.2-0.5,0.3
				C119.6,50,119.4,50,119.2,50z M118.5,48.7c0,0.3,0.1,0.6,0.1,0.9c0,0.3,0.2,0.4,0.6,0.4c0.2,0,0.4,0,0.6-0.1
				c0.2,0,0.3-0.1,0.4-0.2c0.1-0.1,0.3-0.3,0.4-0.4c0.1-0.1,0.3-0.3,0.4-0.4c0.5-0.6,1-1,1.4-1.4c0.4-0.4,0.6-0.7,0.8-1
				c0.1-0.1,0.2-0.3,0.5-0.4c0.2-0.1,0.6-0.4,1-0.8c0.2-0.2,0.4-0.4,0.6-0.5c0.2-0.1,0.4-0.2,0.6-0.3l0,0l0.2,0.1l0,0
				c0.2,0.3,0.4,0.6,0.6,0.8c0.2,0.2,0.3,0.4,0.5,0.5l0,0c0.2,0.3,0.3,0.6,0.4,0.9c0.1,0.2,0.2,0.4,0.3,0.5c0.2,0.2,0.3,0.4,0.6,0.5
				c0.4,0.2,0.9,0.2,1.3,0c0.2-0.1,0.4-0.2,0.7-0.5c0.2-0.2,0.4-0.3,0.6-0.5c0.2-0.1,0.4-0.3,0.5-0.4L131,45
				c-0.1,0.1-0.2,0.1-0.3,0.2c-0.1,0.1-0.3,0.1-0.4,0.1c-0.2,0-0.4-0.1-0.5-0.3c-0.1-0.2-0.3-0.4-0.4-0.8c-0.2-0.6-0.4-1.2-0.6-1.8
				c-0.2-0.3-0.4-0.6-0.6-0.7c-0.2-0.2-0.5-0.2-0.8-0.2c-0.2,0-0.4,0-0.6,0.1c-0.2,0.1-0.5,0.2-0.8,0.3c-0.2,0.2-0.5,0.3-0.7,0.5
				c-0.2,0.1-0.4,0.3-0.5,0.4c-0.1,0.1-0.2,0.2-0.2,0.3c-0.1,0.1-0.1,0.2-0.2,0.2c-0.2,0.2-0.4,0.3-0.5,0.5
				c-0.2,0.2-0.3,0.3-0.4,0.5l0,0c-0.2,0.2-0.5,0.4-0.6,0.6c-0.2,0.2-0.3,0.3-0.4,0.5c-0.1,0.1-0.1,0.2-0.2,0.2
				c-0.1,0.1-0.1,0.1-0.2,0.1l0,0l0,0c-0.1-0.1-0.1-0.2-0.1-0.3c0-0.1,0-0.1,0-0.3c0-0.1,0.1-0.2,0.1-0.4c0.1-0.2,0.2-0.4,0.3-0.6
				c0.4-1.1,0.7-2.1,0.8-2.7c0.2-0.7,0.3-1.2,0.3-1.4c0-0.4-0.1-0.8-0.3-1c-0.2-0.2-0.4-0.3-0.8-0.3c-0.4,0-0.7,0.1-1.1,0.2
				c-0.3,0.2-0.6,0.4-0.9,0.8c-0.4,0.4-0.7,0.7-0.9,1c-0.3,0.3-0.5,0.5-0.6,0.7l-1,1.1c-0.3,0.3-0.5,0.6-0.7,0.8
				c-0.2,0.2-0.4,0.4-0.6,0.6c-0.2,0.2-0.3,0.3-0.4,0.4c-0.1,0.1-0.2,0.2-0.2,0.3c-0.1,0.1-0.1,0.1-0.1,0.2c0.2,0.3,0.3,0.6,0.4,0.9
				c0.1,0.2,0.1,0.3,0.2,0.5c0.1-0.1,0.1-0.1,0.1-0.2l0.1-0.2c0.2-0.2,0.3-0.3,0.5-0.5c0.1-0.1,0.3-0.2,0.4-0.3c0,0,0.1-0.1,0.4-0.3
				c0.2-0.2,0.4-0.4,0.7-0.8c0.2-0.3,0.5-0.5,0.6-0.6c0.2-0.1,0.3-0.2,0.5-0.2c0.1,0,0.2,0,0.3,0.1c0.1,0.1,0.1,0.1,0.1,0.2
				c0,0.1,0,0.2,0,0.3c0,0.1-0.1,0.2-0.1,0.4c-0.1,0.1-0.1,0.3-0.1,0.4c0,0.1-0.1,0.2-0.1,0.2l0,0c-0.3,0.9-0.5,1.7-0.7,2.4
				C118.8,47.7,118.6,48.2,118.5,48.7z"/>
		</g>
		<g>
			<path fill="#FFFFFF" d="M131,44.8c0-0.1,0.1-0.2,0.2-0.2c0.1-0.1,0.2-0.2,0.2-0.3c0.3-0.4,0.5-0.7,0.6-1c0.2-0.3,0.3-0.5,0.4-0.6
				c0.1-0.3,0.3-0.6,0.4-0.9c0.1-0.3,0.2-0.6,0.2-0.9c0.2-1.5,0.6-3.2,1.1-4.9c0.5-1.8,1.2-3.6,2-5.7c0.3-0.7,0.6-1.2,1-1.6
				c0.3-0.4,0.7-0.5,1.1-0.5c0.3,0,0.5,0.1,0.7,0.2c0.2,0.1,0.3,0.3,0.3,0.5c0,0.1,0,0.3,0.1,0.5c0,0.2,0,0.5,0,0.9
				c0,0.1-0.1,0.8-0.3,2.3c-0.2,0.7-0.4,1.6-0.7,2.7c-0.3,1.1-0.7,2.3-1.2,3.7c-0.1,0.2-0.2,0.4-0.4,0.7c-0.1,0.3-0.3,0.7-0.5,1.1
				c0,0.1-0.1,0.2-0.1,0.3c0,0.1-0.1,0.3-0.2,0.4c-0.1,0.1-0.2,0.2-0.2,0.4c-0.1,0.2-0.2,0.4-0.3,0.6c-0.2,0.6-0.4,1.4-0.6,2.3
				c-0.2,0.9-0.3,2-0.5,3.2c-0.1,1.2-0.3,2.2-0.3,3.1c-0.1,0.9-0.1,1.7-0.1,2.4c0,0.3,0,0.5,0.1,0.8c0,0.3,0.1,0.6,0.1,0.8
				c0,0.2,0.1,0.3,0.2,0.3c0.1,0,0.4-0.3,0.7-1c0.3-0.7,0.7-1.6,1.2-3l0-0.3c0-0.1,0.1-0.2,0.2-0.4c0.1-0.1,0.1-0.3,0.2-0.6
				c0.3-0.9,0.5-1.5,0.6-2c0.1-0.5,0.2-0.7,0.2-0.8c0.1-0.4,0.3-0.8,0.6-1.2c0.2-0.4,0.5-0.8,0.8-1.2c0.2,0.3,0.3,0.6,0.4,0.8
				c0.1,0.2,0.2,0.5,0.3,0.6c-0.1,0.2-0.3,0.4-0.4,0.7c-0.1,0.3-0.3,0.6-0.3,1c-0.1,0.3-0.2,0.6-0.2,0.9c-0.1,0.3-0.1,0.6-0.2,0.9
				c-0.5,2-1.1,3.7-1.6,5.1c-0.5,1.3-1,2.4-1.5,3c-0.1,0.1-0.2,0.3-0.3,0.4c-0.1,0.1-0.2,0.3-0.3,0.4c-0.1,0.1-0.3,0.2-0.4,0.3
				c-0.1,0.1-0.3,0.1-0.4,0.1c-0.5,0-0.8-0.1-1.1-0.3c-0.3-0.2-0.5-0.5-0.6-0.9c-0.1-0.3-0.1-0.7-0.1-1c0-0.3-0.1-0.7-0.1-1
				c-0.1-0.2-0.1-0.4-0.1-0.7c0-0.2,0-0.5,0-0.8v-2.4c0-0.1,0-0.3,0.1-0.5c0-0.2,0.1-0.4,0.1-0.6c-0.1-0.3-0.1-0.6-0.2-1
				c0-0.4,0.1-0.8,0.2-1.4c0.1-0.6,0.2-1.2,0.3-1.9l-0.4-0.4c0-0.1-0.1-0.3-0.2-0.6C131.3,45.5,131.2,45.2,131,44.8z M137.3,34.1
				c-0.1,0-0.1,0-0.1,0.1c0,0.1-0.1,0.2-0.1,0.3c0,0.1,0,0.3-0.1,0.4c-0.1,0.2-0.1,0.4-0.3,0.7c-0.1,0.2-0.2,0.4-0.2,0.6
				c0,0.2-0.1,0.3-0.1,0.4l0.1,0.1l0.2-0.2c0-0.2,0.1-0.3,0.1-0.5c0.1-0.2,0.2-0.4,0.3-0.7c0.1-0.2,0.2-0.4,0.2-0.6
				c0.1-0.2,0.1-0.3,0.1-0.4c0-0.1,0-0.2,0-0.3C137.4,34.1,137.4,34.1,137.3,34.1z"/>
			<path fill="#FFFFFF" d="M133.7,59.3c-0.5,0-0.9-0.1-1.1-0.3c-0.3-0.2-0.5-0.5-0.6-0.9c-0.1-0.3-0.1-0.7-0.1-1
				c0-0.3-0.1-0.7-0.1-1c-0.1-0.2-0.1-0.4-0.1-0.7c0-0.2,0-0.5,0-0.8v-2.4c0-0.1,0-0.3,0.1-0.6c0-0.2,0.1-0.4,0.1-0.5
				c-0.1-0.3-0.1-0.6-0.2-1l0,0l0,0c0-0.4,0.1-0.8,0.2-1.4c0.1-0.6,0.2-1.2,0.3-1.9l-0.4-0.4l0,0c0-0.1-0.1-0.3-0.2-0.6
				c-0.1-0.2-0.2-0.5-0.4-0.9l0,0l0,0c0-0.1,0.1-0.2,0.2-0.3c0.1-0.1,0.2-0.2,0.2-0.3c0.3-0.4,0.5-0.7,0.6-1
				c0.2-0.3,0.3-0.5,0.4-0.6c0.1-0.3,0.3-0.6,0.4-0.9c0.1-0.3,0.2-0.6,0.2-0.9c0.2-1.5,0.6-3.2,1.1-4.9c0.5-1.7,1.2-3.6,2-5.7
				c0.3-0.7,0.6-1.3,1-1.6c0.4-0.4,0.7-0.6,1.1-0.6c0.3,0,0.5,0.1,0.7,0.2c0.2,0.1,0.3,0.3,0.4,0.6c0,0.1,0,0.3,0.1,0.5
				c0,0.2,0,0.5,0,0.9c0,0.1,0,0.4-0.3,2.3c-0.2,0.7-0.4,1.6-0.7,2.7c-0.3,1.1-0.7,2.3-1.2,3.7c-0.1,0.2-0.2,0.4-0.4,0.7
				c-0.1,0.3-0.3,0.6-0.5,1.1c0,0.1-0.1,0.2-0.1,0.3c0,0.1-0.1,0.3-0.2,0.4l0,0c-0.1,0.1-0.2,0.2-0.2,0.4c-0.1,0.2-0.2,0.4-0.3,0.6
				c-0.2,0.6-0.4,1.3-0.5,2.2c-0.2,0.9-0.3,2-0.5,3.2c-0.1,1.2-0.3,2.2-0.3,3.1c-0.1,0.9-0.1,1.7-0.1,2.4c0,0.2,0,0.5,0.1,0.8
				c0,0.3,0.1,0.6,0.1,0.8c0,0.2,0.1,0.2,0.1,0.2c0.1,0,0.2-0.1,0.6-0.9c0.3-0.6,0.7-1.6,1.2-2.9l0-0.3l0,0c0-0.1,0.1-0.2,0.2-0.4
				c0.1-0.1,0.1-0.3,0.2-0.6c0.3-0.9,0.5-1.5,0.6-2c0.2-0.6,0.2-0.8,0.2-0.8c0.1-0.4,0.3-0.8,0.6-1.3c0.2-0.4,0.5-0.8,0.8-1.2
				l0.1-0.1l0,0.1c0.2,0.3,0.3,0.6,0.4,0.9c0.1,0.3,0.2,0.5,0.3,0.6l0,0l0,0c-0.1,0.2-0.3,0.4-0.4,0.7c-0.1,0.3-0.2,0.6-0.3,1
				c-0.1,0.3-0.2,0.6-0.2,0.9c-0.1,0.3-0.1,0.6-0.2,0.9c-0.5,2-1.1,3.7-1.6,5.1c-0.5,1.3-1,2.4-1.5,3c-0.1,0.1-0.2,0.3-0.3,0.4
				c-0.1,0.1-0.2,0.3-0.3,0.4c-0.1,0.2-0.3,0.3-0.4,0.3C134.1,59.2,133.9,59.3,133.7,59.3z M131.7,50c0.1,0.3,0.1,0.7,0.2,1
				c0,0.1,0,0.3-0.1,0.6c0,0.2-0.1,0.4-0.1,0.5v2.4c0,0.3,0,0.5,0,0.8c0,0.2,0.1,0.4,0.1,0.7c0,0.3,0.1,0.7,0.1,1
				c0,0.3,0.1,0.7,0.1,1c0.1,0.4,0.3,0.7,0.5,0.9c0.3,0.2,0.6,0.3,1.1,0.3c0.1,0,0.3,0,0.4-0.1c0.1-0.1,0.3-0.2,0.4-0.3
				c0.1-0.1,0.2-0.3,0.3-0.4c0.1-0.1,0.2-0.3,0.3-0.4c0.5-0.7,0.9-1.7,1.5-3c0.5-1.3,1-3,1.6-5.1c0.1-0.3,0.1-0.6,0.2-0.9
				c0.1-0.3,0.2-0.6,0.2-0.9c0.1-0.3,0.2-0.7,0.3-1c0.1-0.3,0.3-0.5,0.4-0.7c-0.1-0.2-0.2-0.4-0.2-0.6c-0.1-0.2-0.2-0.5-0.3-0.8
				c-0.3,0.3-0.5,0.7-0.7,1.1c-0.2,0.4-0.4,0.8-0.6,1.2c0,0-0.1,0.2-0.2,0.8c-0.1,0.5-0.3,1.1-0.6,2c-0.1,0.2-0.1,0.4-0.2,0.6
				c-0.1,0.1-0.1,0.3-0.2,0.3l0,0.3l0,0c-0.5,1.3-0.9,2.3-1.2,3c-0.4,0.9-0.6,1-0.8,1c-0.1,0-0.2-0.2-0.2-0.3c0-0.2-0.1-0.4-0.1-0.8
				c0-0.3-0.1-0.6-0.1-0.8c0-0.7,0-1.5,0.1-2.4c0.1-0.9,0.2-2,0.3-3.1c0.1-1.2,0.3-2.3,0.5-3.2c0.2-0.9,0.4-1.7,0.6-2.3
				c0.1-0.3,0.2-0.5,0.3-0.7c0.1-0.2,0.2-0.3,0.3-0.4c0.1-0.1,0.1-0.3,0.1-0.4c0-0.1,0.1-0.2,0.1-0.3c0.2-0.4,0.4-0.8,0.5-1.1
				c0.1-0.3,0.3-0.5,0.4-0.7c0.5-1.4,0.8-2.6,1.1-3.7c0.3-1.1,0.5-2,0.7-2.7c0.2-1.4,0.3-2.2,0.3-2.3c0-0.4,0-0.7,0-0.9
				c0-0.2,0-0.4-0.1-0.5c-0.1-0.2-0.2-0.4-0.3-0.5c-0.2-0.1-0.4-0.2-0.6-0.2c-0.3,0-0.7,0.2-1,0.5c-0.3,0.4-0.7,0.9-0.9,1.6
				c-0.8,2-1.5,3.9-2,5.6c-0.5,1.7-0.9,3.4-1.1,4.9c-0.1,0.3-0.1,0.6-0.2,0.9c-0.1,0.3-0.2,0.6-0.4,0.9c-0.1,0.1-0.2,0.4-0.4,0.6
				c-0.2,0.3-0.4,0.6-0.6,1c-0.1,0.1-0.2,0.2-0.3,0.3c-0.1,0.1-0.1,0.1-0.1,0.2c0.2,0.3,0.3,0.6,0.4,0.9c0.1,0.2,0.2,0.4,0.2,0.6
				l0.4,0.4l0,0c-0.1,0.7-0.2,1.4-0.3,1.9C131.7,49.2,131.7,49.7,131.7,50z M136.5,36.9l-0.2-0.2v0c0-0.1,0-0.3,0.1-0.4
				c0-0.2,0.1-0.4,0.2-0.6c0.1-0.3,0.2-0.5,0.3-0.7c0.1-0.2,0.1-0.3,0.1-0.4c0.1-0.2,0.1-0.3,0.1-0.4c0-0.1,0.1-0.2,0.2-0.2
				c0.1,0,0.2,0.1,0.2,0.1c0,0.1,0.1,0.2,0.1,0.3c0,0.1,0,0.3-0.1,0.4c-0.1,0.2-0.1,0.4-0.2,0.6c-0.1,0.2-0.2,0.5-0.3,0.7
				c-0.1,0.2-0.1,0.4-0.1,0.5l0,0L136.5,36.9z M136.5,36.7L136.5,36.7l0.2-0.1c0-0.2,0.1-0.3,0.1-0.5c0.1-0.2,0.2-0.4,0.3-0.7
				c0.1-0.2,0.2-0.4,0.2-0.6c0.1-0.2,0.1-0.3,0.1-0.4c0-0.1,0-0.2,0-0.2c0,0,0-0.1-0.1-0.1c0,0-0.1,0-0.1,0.1c0,0.1-0.1,0.2-0.1,0.3
				c0,0.1,0,0.2-0.1,0.4c-0.1,0.2-0.2,0.4-0.3,0.7c-0.1,0.2-0.2,0.4-0.2,0.6C136.5,36.5,136.5,36.6,136.5,36.7z"/>
		</g>
		<g>
			<path fill="#FFFFFF" d="M138.7,44.8l0.1-0.1l0-0.2c0.3-0.4,0.8-0.9,1.5-1.5c0.7-0.6,1.2-1.1,1.5-1.5c0.1-0.2,0.2-0.3,0.4-0.4
				c0.1-0.1,0.3-0.1,0.4-0.1c0.4,0,0.7,0.1,0.9,0.3c0.3,0.2,0.4,0.5,0.5,0.8c0.1,0.3,0.1,0.7,0.2,1c0.1,0.3,0.1,0.7,0.2,1
				c0.1,0.2,0.2,0.5,0.3,1c0.1,0.4,0.2,0.7,0.2,0.7c0.1,0.1,0.1,0.2,0.2,0.2c0.1,0,0.2,0.1,0.4,0.1c0.2,0,0.4,0,0.6-0.1
				c0.2-0.1,0.4-0.2,0.6-0.4c0.2-0.1,0.3-0.3,0.5-0.4c0.2-0.1,0.3-0.3,0.5-0.4l0.6,1.5c-0.2,0.2-0.4,0.4-0.7,0.6
				c-0.3,0.2-0.6,0.5-1,0.8c-0.4,0.3-0.8,0.6-1.1,0.7c-0.3,0.2-0.5,0.2-0.7,0.2c-1,0-1.6-0.1-1.9-0.3c-0.3-0.2-0.6-0.8-1-1.9
				c0-0.1-0.1-0.2-0.2-0.3c-0.1-0.1-0.2-0.3-0.3-0.4c-0.1-0.2-0.2-0.4-0.3-0.6c-0.1-0.1-0.2-0.2-0.2-0.2c-0.2,0-0.4,0.1-0.7,0.3
				c-0.3,0.2-0.6,0.6-1.1,1c-0.1-0.1-0.1-0.3-0.2-0.5c-0.1-0.2-0.2-0.4-0.2-0.7c0-0.1,0-0.1-0.1-0.2
				C138.8,44.9,138.8,44.9,138.7,44.8z M145.4,32.2c0.3,0,0.5,0.1,0.6,0.2c0.1,0.1,0.2,0.3,0.2,0.5c-0.1,0.3-0.1,0.5-0.2,0.8
				c-0.1,0.4-0.2,0.7-0.3,0.9c-0.1,0.2-0.1,0.4-0.2,0.5c-0.1,0.2-0.2,0.4-0.4,0.6c-0.2,0.2-0.4,0.3-0.6,0.5
				c-0.2,0.2-0.5,0.3-0.6,0.4c-0.2,0.1-0.3,0.1-0.3,0.1c-0.2,0-0.4,0-0.5-0.1c-0.2,0-0.3,0-0.5,0c-0.1-0.1-0.2-0.2-0.3-0.4
				c-0.1-0.2-0.1-0.5-0.1-0.9c0-0.3,0.2-0.7,0.6-1.2c0.4-0.5,0.7-0.7,1-0.8c0.2-0.2,0.4-0.5,0.6-0.8c0.1-0.1,0.2-0.1,0.4-0.2
				C145,32.2,145.2,32.2,145.4,32.2z"/>
			<path fill="#FFFFFF" d="M145,48.7c-1,0-1.6-0.1-1.9-0.3c-0.3-0.2-0.6-0.9-1-1.9c0-0.1-0.1-0.2-0.2-0.3c-0.1-0.1-0.2-0.3-0.3-0.4
				c-0.1-0.2-0.2-0.4-0.3-0.5c-0.1-0.1-0.2-0.2-0.2-0.2c-0.2,0-0.4,0.1-0.6,0.3c-0.3,0.2-0.6,0.6-1,1l-0.1,0.1l0-0.1
				c-0.1-0.1-0.1-0.3-0.2-0.5c-0.1-0.2-0.2-0.4-0.2-0.7c0-0.1,0-0.1-0.1-0.2c0,0-0.1-0.1-0.1-0.1l-0.1,0l0.1-0.2l0.1-0.2
				c0.3-0.4,0.8-0.9,1.5-1.6c0.7-0.6,1.2-1.1,1.5-1.5c0.1-0.2,0.2-0.3,0.4-0.4c0.1-0.1,0.3-0.1,0.4-0.1c0.4,0,0.7,0.1,1,0.3
				c0.3,0.2,0.4,0.5,0.5,0.9c0.1,0.3,0.1,0.7,0.2,1c0.1,0.3,0.1,0.7,0.2,1c0.1,0.2,0.2,0.5,0.3,1c0.1,0.6,0.2,0.7,0.2,0.7
				c0.1,0.1,0.1,0.2,0.2,0.2c0.1,0,0.2,0.1,0.4,0.1c0.2,0,0.4,0,0.6-0.1c0.2-0.1,0.4-0.2,0.6-0.4c0.2-0.1,0.3-0.3,0.5-0.4l0.6-0.5
				l0.7,1.6l0,0c-0.2,0.2-0.4,0.4-0.7,0.6c-0.3,0.2-0.6,0.5-1,0.8c-0.4,0.3-0.8,0.6-1.1,0.7C145.4,48.6,145.2,48.7,145,48.7z
				 M141.1,44.9c0.1,0,0.2,0.1,0.3,0.2c0.1,0.1,0.2,0.3,0.3,0.6c0.1,0.2,0.2,0.3,0.3,0.4c0.1,0.1,0.2,0.2,0.2,0.3
				c0.3,1,0.7,1.6,0.9,1.9c0.3,0.2,0.9,0.3,1.9,0.3c0.1,0,0.4-0.1,0.7-0.2c0.3-0.2,0.7-0.4,1.1-0.7c0.4-0.3,0.7-0.5,1-0.8
				c0.3-0.2,0.5-0.4,0.6-0.5l-0.6-1.4l-0.5,0.4c-0.2,0.1-0.3,0.3-0.5,0.4c-0.2,0.2-0.4,0.3-0.6,0.4c-0.4,0.1-0.8,0.1-1,0
				c-0.1-0.1-0.2-0.1-0.3-0.3c0,0-0.1-0.2-0.2-0.8c-0.1-0.4-0.2-0.8-0.3-1c0-0.4-0.1-0.7-0.2-1c-0.1-0.3-0.1-0.7-0.2-1
				c-0.1-0.4-0.2-0.6-0.5-0.8c-0.2-0.2-0.5-0.3-0.9-0.3c-0.1,0-0.3,0-0.4,0.1c-0.1,0.1-0.2,0.2-0.3,0.3c-0.3,0.4-0.8,0.9-1.5,1.6
				c-0.7,0.6-1.2,1.1-1.5,1.5l-0.1,0.2l-0.1,0.1c0,0,0.1,0.1,0.1,0.1c0,0.1,0.1,0.1,0.1,0.2c0.1,0.3,0.2,0.5,0.2,0.7
				c0.1,0.2,0.1,0.3,0.2,0.4c0.4-0.4,0.7-0.7,1-1C140.7,45,140.9,44.9,141.1,44.9z M143.6,36.7C143.6,36.7,143.6,36.7,143.6,36.7
				c-0.2,0-0.4,0-0.6-0.1c-0.2,0-0.3,0-0.5,0l0,0c-0.2-0.1-0.3-0.2-0.4-0.5c-0.1-0.2-0.1-0.5-0.1-0.9c0-0.3,0.2-0.7,0.6-1.2
				c0.4-0.5,0.7-0.8,1-0.8c0.2-0.2,0.4-0.5,0.6-0.8l0,0c0.1-0.1,0.3-0.1,0.4-0.2c0.2,0,0.4-0.1,0.6-0.1c0.3,0,0.5,0.1,0.6,0.2
				c0.1,0.1,0.2,0.3,0.2,0.5c-0.1,0.3-0.1,0.6-0.2,0.8c-0.1,0.4-0.2,0.7-0.3,1c-0.1,0.2-0.1,0.4-0.2,0.5c-0.1,0.2-0.2,0.5-0.4,0.6
				c-0.2,0.2-0.4,0.3-0.6,0.5c-0.2,0.2-0.5,0.3-0.6,0.4C143.8,36.6,143.7,36.7,143.6,36.7z M142.6,36.5c0.2,0,0.3,0,0.5,0
				c0.2,0,0.3,0,0.5,0.1c0,0,0,0,0,0c0,0,0.1,0,0.3-0.1c0.2-0.1,0.4-0.2,0.6-0.4c0.2-0.1,0.4-0.3,0.6-0.5c0.2-0.2,0.3-0.4,0.4-0.6
				c0-0.1,0.1-0.3,0.2-0.5c0.1-0.2,0.2-0.6,0.3-0.9c0-0.2,0.1-0.4,0.2-0.7c0-0.2-0.1-0.3-0.2-0.4c-0.1-0.1-0.3-0.1-0.5-0.1
				c-0.2,0-0.4,0-0.6,0.1c-0.2,0-0.3,0.1-0.4,0.2c-0.2,0.3-0.5,0.5-0.6,0.8l0,0l0,0c-0.3,0-0.6,0.3-1,0.8c-0.4,0.5-0.6,0.9-0.6,1.2
				c0,0.4,0,0.6,0.1,0.8C142.4,36.3,142.5,36.4,142.6,36.5z"/>
		</g>
		<g>
			<path fill="#FFFFFF" d="M147.9,44.8l0.1-0.1l0-0.2c0.2-0.2,0.4-0.4,0.5-0.6c0.1-0.1,0.2-0.2,0.3-0.3c0.1-0.1,0.2-0.1,0.4-0.2
				c0.2-0.1,0.4-0.2,0.7-0.3l0.2-0.1c0.1-0.1,0.2-0.3,0.4-0.5c0.2-0.2,0.4-0.5,0.7-0.8c0.1-0.1,0.1-0.1,0.2-0.2
				c0.1-0.1,0.2-0.2,0.3-0.3c0.3-0.2,0.5-0.5,0.8-0.8c0.3-0.3,0.5-0.5,0.7-0.8c0.1-0.1,0.3-0.3,0.6-0.5c0.3-0.3,0.7-0.6,1.2-1
				c0.1-0.1,0.2-0.1,0.4-0.2c0.2-0.1,0.4-0.2,0.8-0.4c0.1-0.1,0.2-0.2,0.3-0.3s0.1-0.3,0.1-0.6c0.1-0.1,0.2-0.3,0.2-0.5
				c0.1-0.2,0.2-0.4,0.2-0.7c0.1-0.3,0.2-0.6,0.2-0.8c0.1-0.2,0.1-0.3,0.1-0.4c0.2-0.5,0.4-1,0.7-1.7c0.3-0.6,0.7-1.4,1.1-2.2
				c0.2-0.4,0.5-0.9,0.8-1.5c0.2-0.3,0.4-0.5,0.6-0.6c0.2-0.1,0.5-0.2,0.7-0.2c0.2,0,0.3,0.1,0.4,0.2c0.1,0.1,0.1,0.4,0.1,0.7
				c0,0.5,0,0.9-0.1,1.3s-0.2,0.8-0.4,1.2c0,0.1-0.1,0.2-0.1,0.3c0,0.1,0,0.3-0.1,0.5c0,0.1-0.1,0.3-0.1,0.4
				c-0.1,0.1-0.2,0.3-0.3,0.4c0,0.1,0,0.2,0,0.3c0,0.1,0,0.2-0.1,0.4l-0.2,0.3c0,0.1,0,0.1,0,0.2c0,0.1,0,0.2,0,0.3
				c0,0.1,0,0.2-0.1,0.4c-0.1,0.2-0.2,0.5-0.3,0.8c-0.2,0.4-0.3,0.7-0.4,0.9c-0.1,0.2-0.2,0.3-0.2,0.4c0,0.1-0.1,0.1-0.2,0.3
				c-0.1,0.1-0.2,0.3-0.2,0.4l0,0.4l-1,3.7c0,0.4,0,0.8,0,1c0,0.3,0,0.5,0.1,0.7c0.1,0.2,0.1,0.4,0.3,0.7c0.1,0.3,0.3,0.5,0.5,0.8
				c0.1,0.2,0.3,0.3,0.4,0.4c0.2,0.1,0.3,0.1,0.5,0.1c0.2,0,0.4-0.1,0.6-0.2c0.2-0.1,0.4-0.3,0.6-0.5c0.1,0.3,0.2,0.5,0.4,0.8
				c0.1,0.2,0.2,0.5,0.3,0.7c-0.1,0-0.2,0.1-0.3,0.3c-0.2,0.2-0.4,0.5-0.7,0.8c-0.2,0.2-0.4,0.3-0.6,0.4c-0.3,0.1-0.6,0.1-0.9,0.1
				c-0.8,0-1.5-0.2-2-0.6s-0.9-1-1.1-1.9c0-0.2-0.1-0.3-0.1-0.4c0-0.1-0.1-0.2-0.1-0.4c-0.1-0.2-0.2-0.4-0.4-0.7
				c-0.1,0.1-0.1,0.2-0.2,0.2c-0.1,0.1-0.3,0.2-0.4,0.4c-0.2,0.2-0.3,0.4-0.5,0.6c0,0.1-0.1,0.2-0.2,0.4c-0.1,0.2-0.2,0.3-0.4,0.6
				c-0.3,0.4-0.7,0.8-1,1.2c-0.4,0.4-0.7,0.8-1.1,1.2c-0.5,0.5-0.9,0.9-1.3,1.2c-0.4,0.3-0.8,0.4-1.1,0.4c-0.5,0-0.9-0.1-1.2-0.4
				c-0.3-0.3-0.4-0.6-0.4-1.2c0-0.2,0.1-0.6,0.3-1c0.2-0.4,0.3-0.8,0.3-1l-0.1-0.3L147.9,44.8z M155.9,40.3c0-0.1,0-0.1-0.1-0.2
				c-0.2,0.2-0.4,0.3-0.6,0.6c-0.2,0.2-0.5,0.4-0.8,0.7c-0.1,0.2-0.2,0.4-0.5,0.8c-0.3,0.4-0.6,0.8-1.1,1.4
				c-0.1,0.2-0.3,0.4-0.6,0.8c-0.2,0.4-0.5,0.9-0.9,1.4c-0.1,0.2-0.2,0.5-0.4,0.8c0,0.1,0,0.1,0.1,0.2c0.3-0.1,0.7-0.4,1.2-0.8
				s1-1.1,1.7-1.9c0.7-0.9,1.2-1.6,1.5-2.2C155.8,41.1,155.9,40.6,155.9,40.3z"/>
			<path fill="#FFFFFF" d="M149.6,50.2c-0.5,0-1-0.1-1.2-0.4c-0.3-0.3-0.4-0.7-0.4-1.2c0-0.3,0.1-0.6,0.3-1.1c0.2-0.4,0.3-0.7,0.3-1
				l-0.1-0.2l-0.7-1.5l0.1-0.1l0.1-0.2c0.2-0.2,0.4-0.4,0.5-0.6c0.1-0.1,0.2-0.2,0.3-0.3c0.1-0.1,0.2-0.1,0.4-0.2
				c0.2-0.1,0.4-0.2,0.7-0.3l0.2-0.1c0.1-0.1,0.2-0.3,0.4-0.5c0.2-0.2,0.4-0.5,0.7-0.8c0.1-0.1,0.1-0.1,0.3-0.2
				c0.1-0.1,0.2-0.2,0.3-0.3c0.3-0.2,0.5-0.5,0.8-0.8c0.3-0.3,0.5-0.5,0.7-0.8c0.1-0.1,0.3-0.3,0.6-0.5c0.3-0.2,0.7-0.6,1.2-1
				c0.1-0.1,0.2-0.1,0.4-0.2c0.2-0.1,0.4-0.2,0.8-0.4c0.1-0.1,0.2-0.2,0.3-0.3c0.1-0.1,0.1-0.3,0.1-0.5v0l0,0
				c0.1-0.1,0.2-0.3,0.2-0.5c0.1-0.2,0.2-0.4,0.2-0.7c0.1-0.3,0.2-0.6,0.2-0.8c0.1-0.2,0.1-0.4,0.1-0.4c0.2-0.5,0.4-1.1,0.7-1.7
				c0.3-0.6,0.7-1.4,1.1-2.2c0.2-0.4,0.5-0.9,0.8-1.5c0.2-0.3,0.4-0.5,0.6-0.6c0.2-0.1,0.5-0.2,0.7-0.2c0.2,0,0.4,0.1,0.5,0.3
				c0.1,0.2,0.1,0.4,0.1,0.7c0,0.5,0,0.9-0.1,1.3c-0.1,0.4-0.2,0.8-0.4,1.2c0,0.1-0.1,0.2-0.1,0.3c0,0.1,0,0.3-0.1,0.5
				c0,0.2-0.1,0.3-0.1,0.5c-0.1,0.1-0.2,0.3-0.3,0.4c0,0.1,0,0.2,0,0.3c0,0.1,0,0.2-0.1,0.4l0,0l-0.2,0.3c0,0.1,0,0.1,0,0.2v0.3
				c0,0.1,0,0.2-0.1,0.4c-0.1,0.2-0.2,0.5-0.3,0.8c-0.2,0.4-0.3,0.7-0.4,0.9c-0.1,0.3-0.2,0.4-0.2,0.4l0,0c0,0.1-0.1,0.1-0.2,0.2
				c-0.1,0.1-0.1,0.2-0.2,0.4l0,0.3l0,0l-1,3.7c0,0.4,0,0.7,0,1c0,0.3,0,0.5,0.1,0.7c0.1,0.2,0.1,0.4,0.3,0.7
				c0.1,0.3,0.3,0.5,0.5,0.8c0.1,0.2,0.2,0.3,0.4,0.4c0.3,0.2,0.7,0.2,1.1,0c0.2-0.1,0.4-0.3,0.6-0.5l0.1-0.1l0,0.1
				c0.1,0.3,0.2,0.5,0.4,0.8c0.1,0.2,0.2,0.5,0.3,0.7l0,0l0,0c0,0-0.1,0.1-0.3,0.3c-0.2,0.2-0.4,0.5-0.7,0.8
				c-0.2,0.2-0.4,0.4-0.7,0.5c-0.3,0.1-0.6,0.1-0.9,0.1c-0.8,0-1.5-0.2-2-0.6c-0.5-0.4-0.9-1.1-1.1-1.9l-0.1-0.4
				c0-0.1-0.1-0.2-0.1-0.3c-0.1-0.2-0.2-0.4-0.3-0.6c-0.1,0.1-0.1,0.1-0.1,0.2l0,0c-0.1,0.1-0.3,0.2-0.4,0.4
				c-0.2,0.2-0.3,0.4-0.5,0.6c0,0.1-0.1,0.2-0.2,0.4c-0.1,0.2-0.2,0.3-0.4,0.6c-0.3,0.4-0.7,0.8-1,1.2c-0.4,0.4-0.7,0.8-1.1,1.2
				c-0.5,0.5-0.9,0.9-1.3,1.2C150.3,50.1,150,50.2,149.6,50.2z M148,44.9l0.6,1.4l0.1,0.3c0,0.2-0.1,0.6-0.3,1
				c-0.2,0.4-0.3,0.8-0.3,1c0,0.5,0.1,0.9,0.4,1.1c0.2,0.2,0.6,0.4,1.1,0.4c0.3,0,0.6-0.1,1-0.4c0.4-0.2,0.8-0.6,1.3-1.2
				c0.4-0.4,0.7-0.8,1.1-1.2c0.4-0.4,0.7-0.8,1-1.2c0.1-0.2,0.3-0.4,0.3-0.5c0.1-0.1,0.1-0.3,0.2-0.4l0,0c0.2-0.2,0.3-0.5,0.5-0.6
				c0.2-0.2,0.3-0.3,0.4-0.4c0-0.1,0.1-0.1,0.2-0.2l0-0.1l0.1,0.1c0.2,0.2,0.3,0.5,0.4,0.7c0,0.1,0.1,0.2,0.1,0.4l0.1,0.4
				c0.2,0.8,0.5,1.4,1,1.8c0.5,0.4,1.1,0.6,1.9,0.6c0.4,0,0.7,0,0.9-0.1c0.2-0.1,0.4-0.2,0.6-0.4c0.3-0.3,0.5-0.6,0.7-0.8
				c0.2-0.2,0.3-0.3,0.3-0.3c-0.1-0.2-0.2-0.4-0.3-0.6c-0.1-0.2-0.2-0.5-0.3-0.7c-0.2,0.2-0.4,0.4-0.6,0.5c-0.4,0.2-0.8,0.2-1.2,0
				c-0.2-0.1-0.3-0.3-0.4-0.5c-0.2-0.3-0.4-0.6-0.5-0.8c-0.1-0.3-0.2-0.5-0.3-0.7c-0.1-0.2-0.1-0.4-0.1-0.7c0-0.3,0-0.6,0-1l0,0
				l1-3.7l0-0.4l0,0c0.1-0.1,0.2-0.3,0.2-0.4c0.1-0.1,0.1-0.2,0.2-0.3c0,0,0-0.1,0.2-0.4c0.1-0.2,0.2-0.5,0.4-0.9
				c0.1-0.3,0.3-0.6,0.3-0.8c0.1-0.2,0.1-0.3,0.1-0.4v-0.3c0-0.1,0-0.2,0-0.3l0,0l0.2-0.3c0-0.1,0-0.2,0.1-0.3c0-0.1,0-0.2,0-0.3v0
				l0,0c0.1-0.1,0.2-0.2,0.3-0.4c0.1-0.1,0.1-0.3,0.1-0.4c0-0.2,0-0.4,0.1-0.5c0-0.2,0.1-0.3,0.1-0.4c0.2-0.4,0.3-0.7,0.3-1.2
				c0.1-0.4,0.1-0.8,0.1-1.3c0-0.3,0-0.5-0.1-0.6c-0.1-0.1-0.2-0.2-0.4-0.2c-0.2,0-0.5,0.1-0.7,0.2c-0.2,0.1-0.4,0.3-0.6,0.6
				c-0.3,0.5-0.5,1-0.7,1.4c-0.4,0.8-0.8,1.6-1.1,2.2c-0.3,0.6-0.6,1.2-0.7,1.7c0,0.1-0.1,0.2-0.1,0.4c-0.1,0.2-0.1,0.5-0.2,0.8
				c-0.1,0.3-0.2,0.5-0.2,0.7c-0.1,0.2-0.2,0.4-0.2,0.5c0,0.2,0,0.4-0.1,0.6c-0.1,0.2-0.2,0.3-0.3,0.3c-0.3,0.1-0.6,0.3-0.7,0.4
				c-0.2,0.1-0.3,0.2-0.4,0.2c-0.5,0.4-0.9,0.8-1.2,1c-0.3,0.3-0.5,0.4-0.6,0.5c-0.2,0.3-0.5,0.5-0.7,0.8c-0.3,0.3-0.5,0.5-0.8,0.8
				c-0.1,0.1-0.2,0.2-0.3,0.3c-0.1,0.1-0.2,0.1-0.2,0.2c-0.3,0.3-0.5,0.6-0.7,0.8c-0.2,0.2-0.3,0.4-0.4,0.5l0,0l-0.2,0.1
				c-0.3,0.1-0.6,0.2-0.7,0.3c-0.2,0.1-0.3,0.2-0.3,0.2c-0.1,0.1-0.2,0.2-0.3,0.3c-0.1,0.1-0.3,0.3-0.5,0.5L148,44.9L148,44.9z
				 M151.1,46.8L151.1,46.8c-0.1-0.1-0.2-0.2-0.2-0.3l0,0c0.1-0.3,0.3-0.6,0.4-0.8c0.3-0.6,0.6-1,0.9-1.4c0.2-0.4,0.4-0.7,0.6-0.8
				c0.5-0.5,0.9-1,1.1-1.4c0.3-0.4,0.4-0.6,0.5-0.8l0,0c0.3-0.3,0.6-0.5,0.8-0.7c0.2-0.2,0.4-0.4,0.6-0.6l0.1-0.1l0,0.1
				c0,0.1,0.1,0.2,0.1,0.3c0,0.4-0.2,0.9-0.5,1.5c-0.3,0.6-0.8,1.4-1.5,2.2c-0.6,0.8-1.2,1.5-1.7,1.9
				C151.9,46.4,151.5,46.7,151.1,46.8L151.1,46.8z M151.1,46.6c0,0,0,0.1,0.1,0.1c0.3-0.1,0.7-0.4,1.1-0.8c0.5-0.5,1-1.1,1.7-1.9
				c0.7-0.9,1.1-1.6,1.5-2.2c0.3-0.6,0.5-1.1,0.5-1.5c0,0,0-0.1,0-0.1c-0.1,0.1-0.3,0.3-0.5,0.5c-0.2,0.2-0.5,0.4-0.8,0.7
				c-0.1,0.2-0.2,0.4-0.5,0.8c-0.3,0.4-0.6,0.8-1.1,1.4c-0.1,0.2-0.3,0.4-0.6,0.8c-0.2,0.4-0.5,0.9-0.9,1.4
				C151.3,46,151.2,46.2,151.1,46.6z"/>
		</g>
		<g>
			<path fill="#FFFFFF" d="M161.3,44.8c0.1-0.2,0.3-0.5,0.5-0.7c0.2-0.2,0.5-0.5,0.8-0.7c0-0.2,0.1-0.4,0.1-0.6
				c0-0.2,0.1-0.4,0.1-0.6c0-0.1,0.1-0.3,0.2-0.5c0.1-0.2,0.1-0.4,0.2-0.7c0.1-0.2,0.2-0.5,0.4-0.9c0.2-0.4,0.4-0.7,0.6-1.2
				c0.2-0.2,0.5-0.5,0.7-0.8c0.2-0.3,0.5-0.6,0.7-0.9c0.1-0.1,0.2-0.2,0.4-0.3c0.1-0.1,0.3-0.2,0.4-0.3c0.1,0,0.3-0.1,0.4-0.1
				s0.3,0,0.5,0c0.3,0,0.5,0,0.6,0.1c0.2,0.1,0.3,0.1,0.4,0.3c0.1,0.1,0.1,0.2,0.2,0.4c0.1,0.2,0.1,0.4,0.2,0.6
				c0,0.2,0.1,0.4,0.1,0.7c0-0.1,0,0-0.1,0.1c0,0.1-0.1,0.3-0.2,0.6l-0.1,0.5c-0.1,0.5-0.5,1.1-1,1.8c-0.5,0.7-1.2,1.4-2.1,2.3
				c-0.1,0.1-0.1,0.2-0.2,0.3c-0.1,0.1-0.1,0.2-0.1,0.4c0,0.2,0,0.4,0.1,0.6c0.1,0.2,0.2,0.3,0.3,0.4c0.1,0.1,0.2,0.1,0.4,0.2
				c0.2,0.1,0.4,0.1,0.7,0.2c0.4,0,0.8-0.1,1.1-0.2c0.3-0.1,0.6-0.2,0.9-0.4c0.1,0,0.1-0.1,0.3-0.1c0.1-0.1,0.2-0.1,0.4-0.2
				c0.1,0.3,0.3,0.6,0.4,0.8c0.1,0.2,0.2,0.5,0.3,0.6c-0.6,0.6-1.2,1-1.7,1.4c-0.5,0.3-1,0.5-1.4,0.5c-0.2,0.1-0.4,0.2-0.6,0.2
				s-0.5,0.1-0.8,0.1c-0.4,0-0.7-0.1-1-0.2c-0.3-0.1-0.6-0.3-0.8-0.5c-0.1-0.1-0.2-0.3-0.3-0.5c-0.1-0.2-0.2-0.5-0.3-0.7
				c-0.1-0.2-0.2-0.4-0.3-0.5c-0.1-0.1-0.2-0.2-0.3-0.2c-0.1,0-0.2,0-0.3,0.1s-0.2,0.2-0.4,0.4c0-0.2-0.1-0.4-0.2-0.6
				C161.6,45.5,161.4,45.2,161.3,44.8z M166.4,39.6c-0.2,0-0.5,0.3-0.9,0.9c-0.4,0.6-0.6,1.1-0.6,1.4c0,0.1,0,0.1,0,0.1
				c0,0,0.1,0,0.2,0c0.1,0,0.2-0.1,0.3-0.2c0.1-0.1,0.1-0.2,0.2-0.3c0.1-0.1,0.2-0.2,0.3-0.3c0.1-0.1,0.2-0.2,0.3-0.4
				c0.1-0.1,0.2-0.3,0.3-0.4c0.1-0.1,0.1-0.3,0.1-0.4c0-0.1,0-0.2-0.1-0.2C166.5,39.7,166.5,39.6,166.4,39.6z"/>
			<path fill="#FFFFFF" d="M165.6,48.5c-0.4,0-0.8-0.1-1.1-0.2c-0.3-0.1-0.6-0.3-0.8-0.5c-0.1-0.1-0.2-0.3-0.3-0.5
				c-0.1-0.2-0.2-0.5-0.3-0.7c-0.1-0.2-0.2-0.4-0.3-0.5c-0.1-0.2-0.3-0.2-0.5,0c-0.1,0.1-0.2,0.2-0.3,0.3l-0.1,0.1l0-0.1
				c0-0.2-0.1-0.3-0.2-0.6c-0.1-0.2-0.2-0.5-0.4-0.9l0,0l0,0c0.1-0.2,0.3-0.5,0.5-0.7c0.2-0.2,0.5-0.5,0.8-0.7
				c0-0.2,0.1-0.4,0.1-0.6c0-0.2,0.1-0.4,0.1-0.6c0-0.2,0.1-0.3,0.2-0.5c0.1-0.2,0.1-0.4,0.2-0.7c0.1-0.2,0.2-0.5,0.4-0.9
				c0.2-0.4,0.4-0.8,0.7-1.2c0.2-0.3,0.5-0.5,0.7-0.8c0.2-0.3,0.5-0.6,0.7-0.9c0.1-0.1,0.3-0.2,0.4-0.3c0.1-0.1,0.3-0.2,0.4-0.3l0,0
				c0.1,0,0.3-0.1,0.4-0.1c0.2,0,0.3,0,0.5,0c0.3,0,0.5,0,0.7,0.1c0.2,0.1,0.3,0.2,0.4,0.3c0.1,0.1,0.2,0.2,0.2,0.4
				c0.1,0.2,0.1,0.4,0.2,0.6c0,0.2,0.1,0.4,0.1,0.7c0,0,0,0,0,0l0,0.1l-0.1,0c0,0,0,0,0,0c0,0.1-0.1,0.3-0.2,0.6l-0.1,0.5
				c-0.2,0.5-0.5,1.1-1,1.8c-0.5,0.7-1.2,1.4-2.1,2.3c-0.1,0.1-0.1,0.2-0.2,0.3c0,0.1-0.1,0.2-0.1,0.3c0,0.2,0,0.4,0.1,0.6
				c0.1,0.2,0.2,0.3,0.3,0.4c0.1,0.1,0.2,0.1,0.4,0.2c0.2,0.1,0.4,0.1,0.6,0.2c0.4,0,0.8-0.1,1.1-0.2c0.3-0.1,0.6-0.2,0.9-0.4
				c0.1,0,0.1-0.1,0.3-0.1c0.1-0.1,0.2-0.1,0.3-0.2l0.1-0.1l0,0.1c0.1,0.3,0.3,0.6,0.4,0.8c0.1,0.3,0.2,0.5,0.3,0.6l0,0l0,0
				c-0.6,0.6-1.2,1.1-1.7,1.4c-0.5,0.3-1,0.5-1.4,0.5c-0.2,0.1-0.4,0.2-0.6,0.2C166.1,48.5,165.9,48.5,165.6,48.5z M162.6,45.8
				c0.1,0,0.2,0.1,0.3,0.2c0.1,0.1,0.2,0.3,0.3,0.5c0.1,0.3,0.2,0.5,0.3,0.7c0.1,0.2,0.2,0.4,0.3,0.5c0.2,0.2,0.4,0.4,0.7,0.5
				c0.3,0.1,0.6,0.2,1,0.2c0.3,0,0.5,0,0.8-0.1c0.2,0,0.4-0.1,0.6-0.2l0,0h0c0.4,0,0.9-0.2,1.3-0.4c0.5-0.3,1-0.7,1.6-1.3
				c-0.1-0.2-0.1-0.4-0.2-0.6c-0.1-0.2-0.2-0.5-0.3-0.8c-0.1,0.1-0.2,0.1-0.3,0.2c-0.1,0.1-0.2,0.1-0.3,0.1
				c-0.3,0.2-0.6,0.3-0.9,0.4s-0.7,0.2-1.2,0.2l0,0l0,0c-0.3-0.1-0.5-0.1-0.7-0.2c-0.2-0.1-0.3-0.1-0.4-0.2
				c-0.2-0.1-0.3-0.2-0.4-0.4c-0.1-0.2-0.1-0.4-0.1-0.6c0-0.1,0-0.3,0.1-0.4c0.1-0.1,0.1-0.2,0.2-0.3c0.9-0.9,1.6-1.6,2.1-2.3
				c0.5-0.7,0.9-1.3,1-1.8l0.1-0.5c0.1-0.3,0.1-0.4,0.2-0.6c0-0.1,0-0.1,0-0.1l0-0.1c0-0.2-0.1-0.4-0.1-0.5
				c-0.1-0.2-0.1-0.4-0.2-0.6c-0.1-0.2-0.1-0.3-0.2-0.4c-0.1-0.1-0.2-0.2-0.4-0.3c-0.2-0.1-0.4-0.1-0.6-0.1c-0.2,0-0.4,0-0.5,0
				c-0.2,0-0.3,0.1-0.4,0.1c-0.1,0.1-0.3,0.2-0.4,0.3c-0.1,0.1-0.3,0.2-0.4,0.3c-0.2,0.3-0.5,0.6-0.7,0.9c-0.2,0.3-0.5,0.6-0.7,0.8
				c-0.3,0.4-0.5,0.8-0.6,1.2c-0.2,0.3-0.3,0.6-0.4,0.9c-0.1,0.2-0.2,0.5-0.2,0.7c-0.1,0.2-0.1,0.4-0.2,0.5c0,0.2,0,0.4-0.1,0.6
				c0,0.2-0.1,0.4-0.1,0.6l0,0l0,0c-0.3,0.2-0.6,0.5-0.8,0.7c-0.2,0.2-0.4,0.4-0.5,0.6c0.2,0.4,0.3,0.6,0.4,0.9
				c0.1,0.2,0.2,0.4,0.2,0.5c0.1-0.1,0.2-0.2,0.3-0.3C162.3,45.8,162.5,45.8,162.6,45.8z M165.1,42.2c-0.1,0-0.2,0-0.2-0.1
				c0,0-0.1-0.1-0.1-0.2c0-0.3,0.2-0.8,0.6-1.4c0.4-0.6,0.7-0.9,1-0.9c0.1,0,0.2,0,0.2,0.1c0,0.1,0.1,0.2,0.1,0.3
				c0,0.2,0,0.3-0.1,0.5c-0.1,0.2-0.2,0.3-0.3,0.5c-0.1,0.1-0.2,0.2-0.3,0.4c-0.1,0.1-0.2,0.2-0.3,0.3c-0.1,0.1-0.1,0.2-0.2,0.3
				C165.3,42.1,165.2,42.2,165.1,42.2z M166.4,39.7c-0.1,0-0.4,0.2-0.9,0.9c-0.4,0.6-0.6,1-0.6,1.3c0,0.1,0,0.1,0,0.1c0,0,0,0,0.1,0
				c0.1,0,0.2-0.1,0.2-0.2c0.1-0.1,0.1-0.2,0.2-0.3l0,0c0.1-0.1,0.2-0.2,0.3-0.3c0.1-0.1,0.2-0.2,0.3-0.4c0.1-0.1,0.2-0.3,0.3-0.4
				c0.1-0.1,0.1-0.3,0.1-0.4c0-0.1,0-0.2,0-0.2C166.5,39.7,166.4,39.7,166.4,39.7z"/>
		</g>
		<g>
			<path fill="#FFFFFF" d="M169.3,44.8c0-0.1,0.1-0.2,0.2-0.2c0.1-0.1,0.2-0.2,0.2-0.3c0.1-0.1,0.2-0.2,0.4-0.4
				c0.2-0.2,0.4-0.3,0.6-0.6c0.2-0.2,0.4-0.5,0.7-0.8c0.3-0.3,0.6-0.7,1-1.1c0.2-0.2,0.4-0.4,0.6-0.7c0.3-0.3,0.6-0.6,0.9-1
				c0.3-0.4,0.6-0.6,1-0.8c0.3-0.2,0.7-0.3,1.1-0.3s0.7,0.1,0.8,0.4c0.2,0.2,0.3,0.6,0.3,1c0,0.2-0.1,0.7-0.3,1.4
				c-0.2,0.7-0.5,1.6-0.8,2.8c-0.1,0.2-0.2,0.4-0.3,0.6c-0.1,0.1-0.1,0.3-0.1,0.4c0,0.1,0,0.2,0,0.2c0,0.1,0,0.1,0.1,0.2
				c0.1,0,0.1-0.1,0.2-0.1c0-0.1,0.1-0.1,0.2-0.2c0.1-0.2,0.2-0.3,0.4-0.5s0.4-0.4,0.6-0.6c0.1-0.2,0.2-0.4,0.4-0.5s0.3-0.3,0.5-0.5
				c0,0,0.1-0.1,0.2-0.2s0.2-0.2,0.2-0.3c0.1-0.1,0.3-0.3,0.5-0.4c0.2-0.1,0.4-0.3,0.7-0.5c0.3-0.1,0.5-0.3,0.8-0.4
				c0.2-0.1,0.4-0.1,0.6-0.1c0.3,0,0.6,0.1,0.9,0.2c0.3,0.2,0.5,0.4,0.7,0.8c0.2,0.7,0.4,1.3,0.6,1.8c0.1,0.3,0.2,0.6,0.4,0.7
				c0.1,0.2,0.3,0.2,0.5,0.2c0.1,0,0.3,0,0.4-0.1c0.1-0.1,0.2-0.1,0.3-0.2l0.6,1.5c-0.2,0.1-0.4,0.3-0.6,0.5
				c-0.2,0.2-0.4,0.3-0.6,0.5c-0.2,0.2-0.5,0.4-0.7,0.5c-0.2,0.1-0.4,0.1-0.6,0.1c-0.2,0-0.5-0.1-0.7-0.2c-0.2-0.1-0.4-0.3-0.6-0.5
				c-0.1-0.1-0.2-0.2-0.3-0.5c-0.1-0.2-0.3-0.5-0.4-0.9c-0.1-0.1-0.3-0.3-0.5-0.6c-0.2-0.2-0.4-0.5-0.6-0.8l-0.1,0
				c-0.2,0.1-0.4,0.2-0.6,0.3c-0.2,0.1-0.4,0.3-0.6,0.5c-0.5,0.4-0.8,0.7-1,0.8c-0.2,0.1-0.4,0.2-0.4,0.4c-0.1,0.3-0.4,0.6-0.8,1
				c-0.4,0.4-0.8,0.9-1.4,1.4c-0.1,0.1-0.3,0.3-0.4,0.4c-0.1,0.1-0.3,0.3-0.4,0.4c-0.1,0.1-0.3,0.2-0.5,0.2S173,50,172.8,50
				c-0.4,0-0.7-0.1-0.7-0.4c0-0.3-0.1-0.6-0.1-0.9c0.2-0.4,0.3-1,0.5-1.7c0.2-0.7,0.4-1.5,0.7-2.4c0-0.1,0-0.1,0.1-0.2
				c0-0.1,0.1-0.2,0.1-0.4c0.1-0.1,0.1-0.3,0.1-0.4c0-0.1,0-0.2,0-0.3c0-0.1,0-0.1-0.1-0.2c-0.1,0-0.1-0.1-0.3-0.1
				c-0.1,0-0.2,0.1-0.4,0.2c-0.2,0.1-0.4,0.3-0.6,0.6c-0.3,0.3-0.5,0.6-0.7,0.8c-0.2,0.2-0.3,0.3-0.4,0.3c-0.1,0.1-0.2,0.2-0.4,0.3
				c-0.1,0.1-0.3,0.3-0.5,0.5c0,0-0.1,0.1-0.1,0.2c0,0.1-0.1,0.2-0.2,0.3c0-0.2-0.1-0.4-0.2-0.6C169.6,45.5,169.5,45.2,169.3,44.8z"
				/>
			<path fill="#FFFFFF" d="M172.8,50c-0.5,0-0.7-0.2-0.8-0.5c0-0.3-0.1-0.6-0.1-0.9l0,0l0,0c0.2-0.4,0.3-1,0.5-1.7
				c0.2-0.7,0.4-1.5,0.7-2.3c0-0.1,0-0.1,0.1-0.2c0-0.1,0.1-0.2,0.1-0.4c0.1-0.1,0.1-0.3,0.1-0.4c0-0.1,0-0.2,0-0.3
				c0-0.1,0-0.1-0.1-0.1c0,0-0.1-0.1-0.2-0.1c-0.1,0-0.2,0-0.4,0.2c-0.2,0.1-0.4,0.3-0.6,0.6c-0.3,0.3-0.5,0.6-0.7,0.8
				c-0.3,0.3-0.3,0.3-0.4,0.3c-0.1,0.1-0.2,0.2-0.4,0.3c-0.1,0.1-0.3,0.3-0.5,0.5l-0.1,0.2c0,0.1-0.1,0.2-0.2,0.3l-0.1,0.1l0-0.1
				c0-0.2-0.1-0.3-0.2-0.6c-0.1-0.2-0.2-0.5-0.4-0.9l0,0l0,0c0-0.1,0.1-0.2,0.2-0.3c0.1-0.1,0.2-0.2,0.2-0.3l0,0
				c0.1-0.1,0.2-0.2,0.4-0.4c0.2-0.2,0.4-0.4,0.6-0.6c0.2-0.2,0.4-0.5,0.7-0.8c0.3-0.3,0.6-0.7,1-1.1c0.2-0.2,0.4-0.4,0.6-0.7
				c0.3-0.3,0.6-0.6,0.9-1c0.3-0.4,0.6-0.6,1-0.8c0.3-0.2,0.7-0.3,1.1-0.3c0.4,0,0.7,0.1,0.9,0.4c0.2,0.2,0.3,0.6,0.3,1.1
				c0,0.3-0.1,0.7-0.3,1.4c-0.2,0.7-0.5,1.6-0.8,2.8c-0.1,0.2-0.2,0.4-0.3,0.6c-0.1,0.1-0.1,0.3-0.1,0.4c0,0.1,0,0.2,0,0.2
				c0,0,0,0.1,0.1,0.2c0,0,0.1-0.1,0.1-0.1c0-0.1,0.1-0.1,0.2-0.2c0.1-0.2,0.2-0.3,0.4-0.5c0.2-0.2,0.4-0.4,0.6-0.6
				c0.1-0.2,0.2-0.4,0.4-0.5c0.2-0.2,0.3-0.3,0.5-0.5c0,0,0.1-0.1,0.2-0.2c0.1-0.1,0.2-0.2,0.3-0.3c0.1-0.1,0.3-0.3,0.5-0.4
				c0.2-0.2,0.4-0.3,0.7-0.5c0.3-0.2,0.6-0.3,0.8-0.4c0.2-0.1,0.4-0.1,0.6-0.1c0.3,0,0.6,0.1,0.9,0.2c0.3,0.2,0.5,0.4,0.7,0.8
				c0.2,0.7,0.4,1.3,0.6,1.9c0.1,0.3,0.2,0.6,0.4,0.7c0.1,0.1,0.3,0.2,0.4,0.2c0.1,0,0.2,0,0.3-0.1c0.1,0,0.2-0.1,0.3-0.2l0.1-0.1
				l0.7,1.6l0,0c-0.2,0.1-0.4,0.3-0.6,0.5c-0.2,0.2-0.4,0.3-0.6,0.5c-0.2,0.2-0.5,0.4-0.7,0.5c-0.5,0.2-1,0.2-1.4,0
				c-0.2-0.1-0.4-0.3-0.6-0.5c-0.1-0.1-0.2-0.2-0.3-0.5c-0.1-0.2-0.3-0.5-0.4-0.9c-0.1-0.1-0.3-0.3-0.5-0.6
				c-0.2-0.2-0.4-0.5-0.6-0.8l-0.1,0c-0.2,0.1-0.4,0.2-0.6,0.3c-0.2,0.1-0.4,0.3-0.6,0.5c-0.5,0.4-0.8,0.7-1.1,0.8
				c-0.2,0.1-0.3,0.2-0.4,0.3c-0.2,0.3-0.4,0.6-0.8,1c-0.4,0.4-0.8,0.9-1.4,1.4c-0.1,0.1-0.3,0.3-0.4,0.4c-0.1,0.1-0.3,0.3-0.4,0.4
				c-0.1,0.1-0.3,0.2-0.5,0.3C173.3,50,173.1,50,172.8,50z M172.1,48.7c0,0.3,0.1,0.6,0.1,0.9c0,0.3,0.2,0.4,0.6,0.4
				c0.2,0,0.4,0,0.6-0.1c0.2,0,0.3-0.1,0.4-0.2c0.1-0.1,0.3-0.3,0.4-0.4c0.1-0.1,0.3-0.3,0.4-0.4c0.5-0.6,1-1,1.4-1.4
				c0.4-0.4,0.6-0.7,0.8-1c0.1-0.1,0.2-0.3,0.5-0.4c0.2-0.1,0.6-0.4,1-0.8c0.2-0.2,0.4-0.4,0.6-0.5c0.2-0.1,0.4-0.2,0.6-0.3l0,0
				l0.2,0.1l0,0c0.2,0.3,0.4,0.6,0.6,0.8c0.2,0.2,0.3,0.4,0.5,0.5l0,0c0.2,0.3,0.3,0.6,0.4,0.9c0.1,0.2,0.2,0.4,0.3,0.5
				c0.2,0.2,0.3,0.4,0.6,0.5c0.4,0.2,0.9,0.2,1.3,0c0.2-0.1,0.4-0.2,0.7-0.5c0.2-0.2,0.4-0.3,0.6-0.5c0.2-0.1,0.4-0.3,0.5-0.4
				l-0.6-1.3c-0.1,0.1-0.2,0.1-0.3,0.2c-0.1,0.1-0.3,0.1-0.4,0.1c-0.2,0-0.4-0.1-0.5-0.3c-0.1-0.2-0.3-0.4-0.4-0.8
				c-0.2-0.6-0.4-1.2-0.6-1.8c-0.2-0.3-0.4-0.6-0.6-0.7c-0.2-0.2-0.5-0.2-0.8-0.2c-0.2,0-0.4,0-0.6,0.1c-0.2,0.1-0.5,0.2-0.8,0.3
				c-0.2,0.2-0.5,0.3-0.7,0.5c-0.2,0.1-0.4,0.3-0.5,0.4c-0.1,0.1-0.2,0.2-0.2,0.3c-0.1,0.1-0.1,0.2-0.2,0.2
				c-0.2,0.2-0.4,0.3-0.5,0.5c-0.2,0.2-0.3,0.3-0.4,0.5l0,0c-0.2,0.2-0.5,0.4-0.6,0.6c-0.2,0.2-0.3,0.3-0.4,0.5
				c-0.1,0.1-0.1,0.2-0.2,0.2c-0.1,0.1-0.1,0.1-0.2,0.1l0,0l0,0c-0.1-0.1-0.1-0.2-0.1-0.3c0-0.1,0-0.1,0-0.3c0-0.1,0.1-0.2,0.1-0.4
				c0.1-0.2,0.2-0.4,0.3-0.6c0.4-1.1,0.7-2.1,0.8-2.7c0.2-0.7,0.3-1.2,0.3-1.4c0-0.4-0.1-0.8-0.3-1c-0.2-0.2-0.4-0.3-0.8-0.3
				c-0.4,0-0.7,0.1-1.1,0.2c-0.3,0.2-0.6,0.4-0.9,0.8c-0.4,0.4-0.7,0.7-0.9,1c-0.3,0.3-0.5,0.5-0.6,0.7c-0.4,0.4-0.7,0.8-1,1.1
				c-0.3,0.3-0.5,0.6-0.7,0.8c-0.2,0.2-0.4,0.4-0.6,0.6c-0.2,0.2-0.3,0.3-0.4,0.4c-0.1,0.1-0.2,0.2-0.2,0.3
				c-0.1,0.1-0.1,0.1-0.1,0.2c0.2,0.4,0.3,0.6,0.4,0.9c0.1,0.2,0.2,0.4,0.2,0.5c0.1-0.1,0.1-0.1,0.1-0.2l0.1-0.2
				c0.2-0.2,0.3-0.3,0.5-0.5c0.1-0.1,0.3-0.2,0.4-0.3c0,0,0.1-0.1,0.4-0.3c0.2-0.2,0.4-0.4,0.7-0.8c0.3-0.3,0.5-0.5,0.6-0.6
				c0.2-0.1,0.3-0.2,0.5-0.2c0.1,0,0.2,0,0.3,0.1c0.1,0.1,0.1,0.1,0.1,0.2c0,0.1,0,0.2,0,0.3c0,0.1-0.1,0.2-0.1,0.4
				c-0.1,0.2-0.1,0.3-0.1,0.4c0,0.1-0.1,0.2-0.1,0.2l0,0c-0.3,0.9-0.5,1.7-0.7,2.4C172.4,47.7,172.3,48.2,172.1,48.7z"/>
		</g>
		<g>
			<path fill="#FFFFFF" d="M184.6,44.8l0.1-0.1c0.1-0.1,0.1-0.2,0.2-0.3c0.1-0.1,0.2-0.3,0.4-0.4c0.8-0.7,1.5-1.5,2.2-2.5
				c0.7-1,1.4-2.1,2.1-3.4c0.1-0.1,0.2-0.3,0.3-0.5c0.1-0.2,0.2-0.4,0.4-0.7c0-0.1,0-0.1,0-0.1c0,0-0.1,0-0.2,0
				c-0.1,0-0.2,0-0.3,0.1c-0.1,0-0.3,0.1-0.3,0.1h-2c-0.1,0-0.2,0-0.4,0c-0.2,0-0.3,0-0.4,0c-0.1-0.1-0.2-0.1-0.3-0.1
				c-0.1,0-0.2-0.1-0.3-0.1c-0.1,0-0.2-0.1-0.3-0.2c-0.1-0.1-0.1-0.2-0.1-0.2c0-0.7,0.1-1.2,0.2-1.6c0.1-0.4,0.4-0.5,0.7-0.5
				c0.3,0,0.6,0,0.8,0c0.3,0,0.5,0.1,0.7,0.1c0.2,0,0.3-0.1,0.4-0.1c0.3,0,0.5,0,0.7,0c0.2,0,0.4,0,0.5,0.1c0.1,0,0.3-0.1,0.4-0.1
				c0.1,0,0.3-0.1,0.4-0.1l0.5,0.2c0.4,0,0.8-0.6,1.2-1.6c0.4-1,0.9-1.5,1.4-1.5c0.3,0,0.5,0.1,0.6,0.2s0.2,0.4,0.2,0.7
				c0,0.2-0.1,0.6-0.2,1c-0.1,0.4-0.2,0.7-0.2,0.9c0,0,0,0.1,0.1,0.1s0.1,0.1,0.2,0.2c0.1,0,0.1,0.1,0.1,0.2c0,0.1,0,0.2,0,0.4
				c0,0.6,0,1.1-0.1,1.5c-0.1,0.3-0.2,0.5-0.3,0.5l-1.1,0.2c0,0.1,0,0.2-0.1,0.4c0,0.2-0.1,0.3-0.1,0.5c-0.2,0.5-0.4,1.2-0.6,2
				c-0.2,0.8-0.5,1.8-0.8,2.9c-0.2,0.9-0.3,1.6-0.4,2.2c-0.1,0.6-0.1,0.9-0.1,1.1c0,0.2,0,0.3,0.1,0.4c0.1,0.1,0.1,0.1,0.2,0.1
				c0.1,0,0.3-0.2,0.7-0.5c0.4-0.3,1-0.8,1.7-1.4l0.6,1.5c-0.1,0.1-0.3,0.3-0.4,0.4c-0.2,0.2-0.4,0.3-0.7,0.5
				c-0.1,0.1-0.2,0.2-0.4,0.4c-0.2,0.1-0.3,0.3-0.5,0.5c-0.2,0.2-0.4,0.4-0.6,0.6c-0.2,0.2-0.4,0.4-0.6,0.6
				c-0.3,0.3-0.5,0.5-0.8,0.6c-0.2,0.1-0.5,0.2-0.7,0.2c-0.5,0-0.8-0.1-1-0.4c-0.2-0.3-0.3-0.7-0.3-1.3c0-0.6,0-1.2,0.1-1.6
				c0-0.5,0.1-0.8,0.2-1.1c0-0.1,0.1-0.2,0.1-0.2c0-0.1,0-0.3,0-0.4c0-0.2,0.1-0.4,0.1-0.6c0.1-0.4,0.1-0.8,0.2-1.2
				c0.1-0.3,0.2-0.5,0.4-0.8c0-0.1,0-0.1-0.1-0.1l-0.2,0.1c-0.2,0.3-0.4,0.5-0.6,0.8c-0.3,0.3-0.6,0.6-0.9,0.9
				c-0.5,0.5-1.1,1.1-1.7,1.6c0,0.1-0.1,0.1-0.2,0.2c-0.1,0.1-0.2,0.2-0.3,0.4c-0.1-0.1-0.1-0.3-0.2-0.5c-0.1-0.2-0.2-0.4-0.2-0.7
				c0-0.1,0-0.1-0.1-0.2C184.7,44.9,184.7,44.9,184.6,44.8z"/>
			<path fill="#FFFFFF" d="M189.5,50.3c-0.5,0-0.9-0.1-1.1-0.4c-0.2-0.3-0.4-0.7-0.4-1.3c0-0.6,0-1.2,0.1-1.6c0-0.5,0.1-0.8,0.2-1.1
				c0-0.1,0.1-0.2,0.1-0.2c0-0.1,0-0.3,0-0.4c0-0.2,0.1-0.4,0.1-0.6c0.1-0.4,0.1-0.8,0.2-1.2l0,0c0.1-0.3,0.2-0.5,0.4-0.8
				c0,0,0,0-0.1-0.1l-0.1,0.1c-0.2,0.3-0.4,0.5-0.6,0.8c-0.3,0.3-0.6,0.6-0.9,0.9c-0.5,0.5-1.1,1-1.7,1.6c0,0.1-0.1,0.1-0.2,0.2
				c-0.1,0.1-0.2,0.2-0.3,0.4l-0.1,0.1l0-0.1c-0.1-0.1-0.1-0.3-0.2-0.5c-0.1-0.2-0.2-0.4-0.2-0.7c0-0.1,0-0.1-0.1-0.2
				c0,0-0.1-0.1-0.1-0.1l0,0l0.1-0.2c0.1-0.1,0.2-0.2,0.3-0.3c0.1-0.1,0.2-0.3,0.4-0.4c0.8-0.7,1.5-1.5,2.2-2.5
				c0.7-1,1.4-2.1,2.1-3.4c0.1-0.1,0.2-0.3,0.3-0.5c0.1-0.2,0.2-0.4,0.3-0.7c0,0,0-0.1,0-0.1c0,0-0.1,0-0.4,0
				c-0.1,0-0.3,0.1-0.3,0.1h-2c-0.1,0-0.2,0-0.4,0c-0.2,0-0.3,0-0.4,0l0,0c-0.1-0.1-0.2-0.1-0.3-0.1c-0.1,0-0.2-0.1-0.3-0.1
				c-0.1,0-0.2-0.1-0.3-0.2c-0.1-0.1-0.1-0.2-0.1-0.3c0-0.7,0.1-1.2,0.2-1.6c0.2-0.4,0.4-0.6,0.7-0.6c0.3,0,0.6,0,0.8,0
				c0.3,0,0.5,0.1,0.7,0.1c0.2,0,0.3-0.1,0.4-0.1c0.3,0,0.6,0,0.8,0c0.2,0,0.4,0,0.5,0.1c0.1,0,0.3-0.1,0.4-0.1l0.5-0.1l0.5,0.2
				c0.3,0,0.7-0.6,1.1-1.5c0.4-1,0.9-1.5,1.4-1.5c0.3,0,0.5,0.1,0.6,0.3c0.1,0.2,0.2,0.4,0.2,0.7c0,0.3-0.1,0.6-0.2,1
				c-0.1,0.4-0.2,0.7-0.2,0.9c0,0,0,0.1,0.1,0.1c0,0,0.1,0.1,0.2,0.2c0.1,0,0.1,0.1,0.2,0.2c0,0.1,0,0.2,0,0.4c0,0.6,0,1.1-0.1,1.5
				c-0.1,0.4-0.2,0.6-0.3,0.6l-1,0.2c0,0.1,0,0.2-0.1,0.4c0,0.2-0.1,0.3-0.1,0.5c-0.2,0.5-0.4,1.2-0.6,2c-0.2,0.8-0.5,1.8-0.8,2.9
				c-0.2,0.9-0.3,1.6-0.4,2.2c-0.1,0.6-0.1,0.9-0.1,1.1c0,0.2,0,0.3,0.1,0.4c0,0.1,0.1,0.1,0.2,0.1c0,0,0.1,0,0.7-0.5
				c0.4-0.3,1-0.8,1.7-1.4l0.1-0.1l0.7,1.6l0,0c-0.1,0.1-0.3,0.3-0.5,0.4c-0.2,0.2-0.4,0.3-0.7,0.5c-0.1,0.1-0.2,0.2-0.4,0.4
				c-0.2,0.1-0.3,0.3-0.5,0.5c-0.2,0.2-0.4,0.4-0.6,0.6c-0.2,0.2-0.4,0.4-0.6,0.6c-0.3,0.3-0.5,0.5-0.8,0.6
				C190,50.2,189.7,50.3,189.5,50.3z M188.9,43.3c-0.1,0.4-0.1,0.8-0.2,1.2c0,0.2-0.1,0.5-0.1,0.6c0,0.2,0,0.3,0,0.4l0,0
				c0,0.1-0.1,0.1-0.1,0.2c-0.1,0.3-0.2,0.6-0.2,1.1c0,0.5-0.1,1-0.1,1.6c0,0.5,0.1,1,0.3,1.2c0.2,0.3,0.6,0.4,1,0.4
				c0.2,0,0.4-0.1,0.7-0.2c0.2-0.1,0.5-0.3,0.7-0.6c0.2-0.2,0.4-0.4,0.6-0.6c0.2-0.2,0.4-0.4,0.6-0.6c0.2-0.2,0.4-0.4,0.5-0.5
				c0.2-0.1,0.3-0.3,0.4-0.4c0.3-0.2,0.5-0.4,0.7-0.5c0.2-0.1,0.3-0.3,0.4-0.4l-0.6-1.4c-0.7,0.6-1.2,1-1.6,1.3
				c-0.6,0.5-0.7,0.5-0.7,0.5c-0.1,0-0.2-0.1-0.3-0.2c-0.1-0.1-0.1-0.2-0.1-0.4c0-0.2,0-0.6,0.1-1.1c0.1-0.6,0.2-1.3,0.4-2.2
				c0.3-1.1,0.5-2.1,0.8-2.9c0.2-0.8,0.4-1.5,0.6-2c0.1-0.2,0.1-0.4,0.1-0.5c0-0.1,0.1-0.3,0.1-0.4l0-0.1l1.1-0.2
				c0.1,0,0.2-0.2,0.2-0.5c0.1-0.3,0.1-0.8,0.1-1.5c0-0.1,0-0.3,0-0.4c0-0.1-0.1-0.1-0.1-0.2c-0.1-0.1-0.1-0.1-0.2-0.2
				c0-0.1-0.1-0.1-0.1-0.1l0,0l0,0c0-0.2,0.1-0.5,0.3-0.9c0.1-0.4,0.2-0.7,0.2-0.9c0-0.3-0.1-0.5-0.2-0.7c-0.1-0.1-0.3-0.2-0.5-0.2
				c-0.5,0-0.9,0.5-1.3,1.5c-0.4,1-0.8,1.6-1.2,1.6l0,0l-0.5-0.2l-0.4,0.1c-0.1,0-0.3,0.1-0.4,0.1l0,0l0,0c-0.1,0-0.3-0.1-0.5-0.1
				c-0.2,0-0.4,0-0.7,0c-0.1,0-0.3,0.1-0.4,0.1l0,0l0,0c-0.2,0-0.4-0.1-0.7-0.1c-0.3,0-0.5,0-0.8,0c-0.3,0-0.5,0.2-0.6,0.5
				c-0.1,0.4-0.2,0.9-0.2,1.5c0,0.1,0,0.1,0.1,0.2c0.1,0.1,0.2,0.1,0.3,0.2c0.1,0,0.2,0.1,0.3,0.1c0.1,0,0.2,0.1,0.3,0.1
				c0.1,0,0.2,0,0.4,0c0.2,0,0.3,0,0.4,0h2c0.1,0,0.2,0,0.3-0.1c0.2,0,0.3-0.1,0.3-0.1c0.1,0,0.2,0,0.2,0.1c0,0,0.1,0.1,0.1,0.2l0,0
				c-0.1,0.3-0.2,0.5-0.4,0.7c-0.1,0.2-0.2,0.4-0.3,0.5c-0.7,1.3-1.4,2.4-2.1,3.4c-0.7,1-1.5,1.8-2.2,2.5c-0.1,0.2-0.3,0.3-0.4,0.4
				c-0.1,0.1-0.2,0.2-0.2,0.3l0,0.1c0,0,0.1,0.1,0.1,0.1c0,0.1,0.1,0.1,0.1,0.2c0.1,0.3,0.2,0.5,0.2,0.7c0.1,0.1,0.1,0.3,0.2,0.4
				c0.1-0.1,0.2-0.2,0.2-0.3c0.1-0.1,0.1-0.2,0.2-0.2l0,0c0.6-0.5,1.1-1.1,1.7-1.6c0.4-0.3,0.7-0.6,0.9-0.9c0.3-0.3,0.5-0.5,0.6-0.8
				l0,0l0.2-0.1l0,0c0.1,0.1,0.2,0.1,0.2,0.2l0,0C189.2,42.8,189,43,188.9,43.3z"/>
		</g>
		<g>
			<path fill="#FFFFFF" d="M193.5,44.8l0.1-0.1l0-0.2c0.3-0.4,0.8-0.9,1.5-1.5c0.7-0.6,1.2-1.1,1.5-1.5c0.1-0.2,0.2-0.3,0.4-0.4
				c0.1-0.1,0.3-0.1,0.4-0.1c0.4,0,0.7,0.1,0.9,0.3c0.3,0.2,0.4,0.5,0.5,0.8c0.1,0.3,0.1,0.7,0.2,1c0.1,0.3,0.1,0.7,0.2,1
				c0.1,0.2,0.2,0.5,0.3,1c0.1,0.4,0.2,0.7,0.2,0.7c0.1,0.1,0.1,0.2,0.2,0.2s0.2,0.1,0.4,0.1c0.2,0,0.4,0,0.6-0.1
				c0.2-0.1,0.4-0.2,0.6-0.4c0.2-0.1,0.3-0.3,0.5-0.4s0.3-0.3,0.5-0.4l0.6,1.5c-0.2,0.2-0.4,0.4-0.7,0.6c-0.3,0.2-0.6,0.5-1,0.8
				c-0.4,0.3-0.8,0.6-1.1,0.7c-0.3,0.2-0.5,0.2-0.7,0.2c-1,0-1.6-0.1-1.9-0.3s-0.6-0.8-1-1.9c0-0.1-0.1-0.2-0.2-0.3
				c-0.1-0.1-0.2-0.3-0.3-0.4c-0.1-0.2-0.2-0.4-0.3-0.6c-0.1-0.1-0.2-0.2-0.2-0.2c-0.2,0-0.4,0.1-0.7,0.3c-0.3,0.2-0.6,0.6-1.1,1
				c-0.1-0.1-0.1-0.3-0.2-0.5c-0.1-0.2-0.2-0.4-0.2-0.7c0-0.1,0-0.1-0.1-0.2C193.6,44.9,193.5,44.9,193.5,44.8z M200.2,32.2
				c0.3,0,0.5,0.1,0.6,0.2c0.1,0.1,0.2,0.3,0.2,0.5c-0.1,0.3-0.1,0.5-0.2,0.8c-0.1,0.4-0.2,0.7-0.3,0.9c-0.1,0.2-0.1,0.4-0.2,0.5
				c-0.1,0.2-0.2,0.4-0.4,0.6c-0.2,0.2-0.4,0.3-0.6,0.5c-0.2,0.2-0.5,0.3-0.6,0.4c-0.2,0.1-0.3,0.1-0.3,0.1c-0.2,0-0.4,0-0.5-0.1
				s-0.3,0-0.5,0c-0.1-0.1-0.2-0.2-0.3-0.4c-0.1-0.2-0.1-0.5-0.1-0.9c0-0.3,0.2-0.7,0.6-1.2c0.4-0.5,0.7-0.7,1-0.8
				c0.2-0.2,0.4-0.5,0.6-0.8c0.1-0.1,0.2-0.1,0.4-0.2C199.8,32.2,200,32.2,200.2,32.2z"/>
			<path fill="#FFFFFF" d="M199.8,48.7c-1,0-1.6-0.1-1.9-0.3c-0.3-0.2-0.6-0.9-1-1.9c0-0.1-0.1-0.2-0.2-0.3
				c-0.1-0.1-0.2-0.3-0.3-0.4c-0.1-0.2-0.2-0.4-0.3-0.5c-0.1-0.1-0.2-0.2-0.2-0.2c-0.2,0-0.4,0.1-0.6,0.3c-0.3,0.2-0.6,0.6-1,1
				l-0.1,0.1l0-0.1c-0.1-0.1-0.1-0.3-0.2-0.5c-0.1-0.2-0.2-0.4-0.2-0.7c0-0.1,0-0.1-0.1-0.2c0,0-0.1-0.1-0.1-0.1l-0.1,0l0.1-0.2
				l0.1-0.2c0.3-0.4,0.8-0.9,1.5-1.6c0.7-0.6,1.2-1.1,1.5-1.5c0.1-0.2,0.2-0.3,0.4-0.4c0.1-0.1,0.3-0.1,0.4-0.1c0.4,0,0.7,0.1,1,0.3
				c0.3,0.2,0.4,0.5,0.5,0.9c0.1,0.3,0.1,0.7,0.2,1c0.1,0.3,0.1,0.7,0.2,1c0.1,0.2,0.2,0.5,0.3,1c0.1,0.6,0.2,0.7,0.2,0.7
				c0.1,0.1,0.1,0.2,0.2,0.2c0.1,0,0.2,0.1,0.4,0.1c0.2,0,0.4,0,0.6-0.1c0.2-0.1,0.4-0.2,0.6-0.4c0.2-0.1,0.3-0.3,0.5-0.4l0.6-0.5
				l0.7,1.6l0,0c-0.2,0.2-0.4,0.4-0.7,0.6c-0.3,0.2-0.6,0.5-1,0.8c-0.4,0.3-0.8,0.6-1.1,0.7C200.2,48.6,200,48.7,199.8,48.7z
				 M195.9,44.9c0.1,0,0.2,0.1,0.3,0.2c0.1,0.1,0.2,0.3,0.3,0.6c0.1,0.2,0.2,0.3,0.3,0.4c0.1,0.1,0.2,0.2,0.2,0.3
				c0.3,1,0.7,1.6,0.9,1.9c0.3,0.2,0.9,0.3,1.9,0.3c0.1,0,0.4-0.1,0.7-0.2c0.3-0.2,0.7-0.4,1.1-0.7c0.4-0.3,0.7-0.5,1-0.8
				c0.3-0.2,0.5-0.4,0.6-0.5l-0.6-1.4l-0.5,0.4c-0.2,0.1-0.3,0.3-0.5,0.4c-0.2,0.2-0.4,0.3-0.6,0.4c-0.2,0.1-0.4,0.1-0.6,0.1
				c-0.2,0-0.3,0-0.4-0.1c-0.1-0.1-0.2-0.1-0.3-0.3c0,0-0.1-0.2-0.2-0.8c-0.1-0.4-0.2-0.7-0.3-1c0-0.3-0.1-0.7-0.2-1
				c-0.1-0.3-0.1-0.7-0.2-1c-0.1-0.4-0.2-0.6-0.5-0.8c-0.2-0.2-0.5-0.3-0.9-0.3c-0.1,0-0.3,0-0.4,0.1c-0.1,0.1-0.2,0.2-0.3,0.3
				c-0.3,0.4-0.8,0.9-1.5,1.6c-0.7,0.6-1.2,1.1-1.5,1.5l-0.1,0.2l-0.1,0.1c0,0,0.1,0.1,0.1,0.1c0,0.1,0.1,0.1,0.1,0.2
				c0.1,0.3,0.2,0.5,0.2,0.7c0.1,0.2,0.1,0.3,0.2,0.4c0.4-0.4,0.7-0.7,1-1C195.5,45,195.7,44.9,195.9,44.9z M198.4,36.7
				C198.4,36.7,198.4,36.7,198.4,36.7c-0.2,0-0.4,0-0.6-0.1c-0.2,0-0.3,0-0.5,0l0,0c-0.2-0.1-0.3-0.2-0.4-0.5
				c-0.1-0.2-0.1-0.5-0.1-0.9c0-0.3,0.2-0.7,0.6-1.2c0.4-0.5,0.7-0.8,1-0.8c0.2-0.2,0.4-0.5,0.6-0.8l0,0c0.1-0.1,0.3-0.1,0.4-0.2
				c0.2,0,0.4-0.1,0.6-0.1c0.3,0,0.5,0.1,0.6,0.2c0.1,0.1,0.2,0.3,0.2,0.5c-0.1,0.3-0.1,0.6-0.2,0.8c-0.1,0.4-0.2,0.7-0.3,1
				c-0.1,0.2-0.1,0.4-0.2,0.5c-0.1,0.2-0.2,0.5-0.4,0.6c-0.2,0.2-0.4,0.3-0.6,0.5c-0.2,0.2-0.5,0.3-0.6,0.4
				C198.6,36.6,198.5,36.7,198.4,36.7z M197.4,36.5c0.2,0,0.3,0,0.5,0c0.2,0,0.3,0,0.5,0.1c0,0,0,0,0,0c0,0,0.1,0,0.3-0.1
				c0.2-0.1,0.4-0.2,0.6-0.4c0.2-0.1,0.4-0.3,0.6-0.5c0.2-0.2,0.3-0.4,0.4-0.6c0-0.1,0.1-0.3,0.2-0.5c0.1-0.2,0.2-0.6,0.3-0.9
				c0-0.2,0.1-0.4,0.2-0.7c0-0.2-0.1-0.3-0.2-0.4c-0.1-0.1-0.3-0.1-0.5-0.1c-0.2,0-0.4,0-0.6,0.1c-0.2,0-0.3,0.1-0.4,0.2
				c-0.2,0.3-0.4,0.5-0.6,0.8l0,0l0,0c-0.3,0-0.6,0.3-1,0.8c-0.4,0.5-0.6,0.9-0.6,1.2c0,0.4,0,0.6,0.1,0.8
				C197.2,36.3,197.3,36.4,197.4,36.5z"/>
		</g>
		<g>
			<path fill="#FFFFFF" d="M203.2,44.1l1.5-1c0.1-0.1,0.1-0.1,0.2-0.2c0.1-0.1,0.2-0.2,0.3-0.4c0.1-0.1,0.2-0.3,0.3-0.4
				s0.3-0.2,0.4-0.3c0.1-0.1,0.2-0.2,0.4-0.4c0.2-0.2,0.4-0.3,0.6-0.6c0.1-0.1,0.3-0.2,0.4-0.3c0.2-0.1,0.4-0.3,0.6-0.5
				c1-0.9,1.8-1.6,2.6-2.1c0.7-0.5,1.3-0.7,1.8-0.7c0.3,0,0.5,0.1,0.6,0.2c0.1,0.1,0.2,0.3,0.2,0.5c0,0.2,0,0.4-0.1,0.6
				c-0.1,0.2-0.2,0.3-0.4,0.4c-0.3,0.2-0.6,0.4-0.9,0.6c-0.2,0.2-0.4,0.5-0.6,0.7c-0.2,0.3-0.5,0.5-0.9,0.7
				c-0.1,0.1-0.2,0.3-0.3,0.4c-0.1,0.1-0.2,0.1-0.3,0.3c-0.1,0.1-0.3,0.3-0.6,0.5c-0.1,0.2-0.3,0.5-0.7,0.9
				c-0.4,0.4-0.8,0.8-1.4,1.3c-0.1,0.1-0.2,0.2-0.4,0.5c-0.2,0.3-0.4,0.6-0.8,1.1l0.1,0.1c0.2-0.1,0.5-0.2,0.7-0.4
				c0.3-0.2,0.5-0.4,0.8-0.7c0.4-0.3,0.7-0.6,0.9-0.8c0.2-0.2,0.4-0.3,0.5-0.4c0.1,0,0.1-0.1,0.2-0.1c0.1,0,0.2-0.1,0.3-0.2
				c0.5-0.6,1-1,1.4-1.3c0.4-0.3,0.8-0.4,1.2-0.4c0.2,0,0.4,0.1,0.5,0.3c0.1,0.2,0.2,0.4,0.2,0.8c0,0.5,0,1,0,1.5
				c0,0.3,0.1,0.6,0.3,0.9c0.2,0.3,0.5,0.4,0.8,0.4c0.1,0,0.2,0,0.3-0.1c0.1-0.1,0.2-0.1,0.3-0.2c0.1-0.1,0.1-0.2,0.2-0.3
				c0.1-0.1,0.1-0.2,0.2-0.3c0,0,0.1-0.1,0.2-0.1c0.1-0.1,0.2-0.1,0.2-0.2c0.1,0.3,0.3,0.6,0.4,0.8s0.2,0.5,0.2,0.6
				c-0.2,0.2-0.5,0.5-0.7,0.7c-0.2,0.2-0.5,0.5-0.8,0.7c-0.3,0.2-0.6,0.4-0.9,0.6c-0.3,0.1-0.6,0.2-0.9,0.2c-0.7,0-1.2-0.2-1.6-0.6
				c-0.4-0.4-0.6-1-0.7-1.8c0-0.1,0-0.2,0-0.3c0-0.1-0.1-0.2-0.2-0.3c-0.1,0.1-0.1,0.1-0.2,0.2c-0.1,0.1-0.1,0.1-0.2,0.2
				c-0.1,0.1-0.3,0.2-0.5,0.4c-0.2,0.2-0.5,0.4-0.7,0.6c-0.4,0.4-0.7,0.7-0.9,0.9c-0.3,0.2-0.4,0.4-0.5,0.5
				c-0.2,0.2-0.5,0.4-0.7,0.5c-0.3,0.2-0.6,0.4-1,0.6c-0.2,0.1-0.4,0.2-0.6,0.3c-0.2,0.1-0.3,0.1-0.4,0.1c-0.5,0-0.9-0.1-1.1-0.4
				c-0.2-0.3-0.4-0.6-0.4-1.2c0-0.3,0.1-0.6,0.2-0.8c0.1-0.3,0.3-0.5,0.6-0.8c0-0.1,0-0.3,0-0.3c0-0.1,0-0.1,0-0.2
				c0-0.1-0.1-0.1-0.1-0.2c-0.1-0.1-0.1-0.3-0.2-0.5c-0.1-0.2-0.2-0.4-0.3-0.6c0,0,0.1-0.1,0.2-0.2C203,44.5,203.1,44.3,203.2,44.1z
				"/>
			<path fill="#FFFFFF" d="M204.1,49.8c-0.5,0-0.9-0.1-1.2-0.4c-0.3-0.3-0.4-0.7-0.4-1.2c0-0.3,0.1-0.6,0.2-0.9
				c0.1-0.3,0.3-0.5,0.6-0.8c0-0.1,0-0.2,0-0.3c0,0,0-0.1,0-0.1c0-0.1-0.1-0.1-0.1-0.2l-0.2-0.5c-0.1-0.2-0.2-0.4-0.3-0.6l0,0l0,0
				c0,0,0.1-0.1,0.2-0.2c0.1-0.1,0.2-0.3,0.3-0.5l0,0l1.5-1c0,0,0.1-0.1,0.2-0.2c0.1-0.1,0.2-0.2,0.3-0.4c0.1-0.1,0.2-0.3,0.3-0.4
				c0.1-0.1,0.3-0.2,0.4-0.3c0.1-0.1,0.2-0.2,0.4-0.4c0.2-0.2,0.4-0.3,0.6-0.6c0.1-0.1,0.3-0.2,0.5-0.3c0.2-0.1,0.4-0.3,0.6-0.5
				c1-0.9,1.8-1.6,2.6-2.1c0.7-0.5,1.4-0.7,1.9-0.7c0.3,0,0.5,0.1,0.7,0.2c0.1,0.1,0.2,0.3,0.2,0.5c0,0.2,0,0.4-0.1,0.6
				c-0.1,0.2-0.2,0.3-0.4,0.5c-0.3,0.2-0.5,0.4-0.9,0.6c-0.2,0.2-0.4,0.5-0.6,0.7c-0.2,0.3-0.5,0.5-0.9,0.7
				c-0.1,0.1-0.2,0.3-0.3,0.4c-0.1,0.1-0.2,0.2-0.3,0.3c-0.1,0.1-0.3,0.3-0.6,0.5c-0.1,0.2-0.3,0.5-0.7,0.9
				c-0.4,0.4-0.8,0.8-1.4,1.3c-0.1,0.1-0.2,0.2-0.4,0.5c-0.2,0.3-0.4,0.6-0.7,1l0.1,0.1c0.2-0.1,0.4-0.2,0.7-0.4
				c0.3-0.2,0.5-0.4,0.8-0.7c0.4-0.3,0.7-0.6,0.9-0.8c0.2-0.2,0.4-0.3,0.5-0.4l0.2-0.1c0.1,0,0.2-0.1,0.2-0.2c0.5-0.6,1-1,1.4-1.3
				c0.4-0.3,0.8-0.4,1.2-0.4c0.2,0,0.4,0.1,0.6,0.3c0.1,0.2,0.2,0.5,0.2,0.8c0,0.5,0,1,0,1.5c0,0.3,0.1,0.6,0.3,0.9
				c0.2,0.3,0.4,0.4,0.7,0.4c0.1,0,0.2,0,0.2-0.1c0.1-0.1,0.2-0.1,0.3-0.2c0.1-0.1,0.1-0.2,0.2-0.3c0.1-0.1,0.1-0.2,0.2-0.3l0,0
				c0,0,0.1-0.1,0.2-0.1c0.1-0.1,0.2-0.1,0.2-0.2l0.1-0.1l0,0.1c0.1,0.3,0.3,0.6,0.4,0.8c0.1,0.2,0.2,0.5,0.2,0.6l0,0l0,0
				c-0.2,0.2-0.5,0.5-0.7,0.7c-0.2,0.2-0.5,0.5-0.8,0.7c-0.3,0.2-0.6,0.4-0.9,0.6c-0.3,0.1-0.6,0.2-0.9,0.2c-0.7,0-1.3-0.2-1.6-0.6
				c-0.4-0.4-0.6-1-0.7-1.8c0-0.1,0-0.2,0-0.3c0-0.1-0.1-0.2-0.1-0.2c0,0-0.1,0.1-0.1,0.1c-0.1,0.1-0.1,0.1-0.2,0.2l-0.5,0.4
				c-0.2,0.2-0.4,0.3-0.7,0.6c-0.4,0.4-0.7,0.7-0.9,0.9c-0.3,0.2-0.4,0.4-0.5,0.5c-0.2,0.2-0.5,0.4-0.8,0.6c-0.3,0.2-0.6,0.4-1,0.6
				c-0.2,0.1-0.4,0.2-0.6,0.3C204.3,49.8,204.1,49.8,204.1,49.8z M202.8,44.9c0.1,0.2,0.2,0.4,0.2,0.6l0.2,0.5
				c0,0.1,0.1,0.1,0.1,0.2c0,0.1,0,0.1,0,0.2c0,0.1,0,0.2,0,0.3l0,0l0,0c-0.2,0.2-0.4,0.5-0.5,0.7c-0.1,0.3-0.2,0.5-0.2,0.8
				c0,0.5,0.1,0.9,0.4,1.1c0.2,0.2,0.6,0.4,1.1,0.4c0,0,0.1,0,0.3-0.1c0.2-0.1,0.4-0.2,0.6-0.3c0.4-0.2,0.7-0.4,0.9-0.6
				c0.3-0.2,0.5-0.4,0.7-0.5c0.1-0.1,0.3-0.3,0.5-0.5c0.3-0.2,0.6-0.5,0.9-0.9c0.3-0.2,0.5-0.4,0.7-0.6l0.5-0.4
				c0.1-0.1,0.2-0.2,0.2-0.2c0.1-0.1,0.1-0.1,0.2-0.2l0,0l0,0.1c0.1,0.1,0.2,0.2,0.2,0.3c0,0.1,0,0.2,0,0.3c0.1,0.8,0.3,1.4,0.6,1.8
				c0.4,0.4,0.9,0.6,1.6,0.6c0.3,0,0.6-0.1,0.9-0.2c0.3-0.1,0.6-0.3,0.9-0.5c0.3-0.2,0.5-0.4,0.8-0.7c0.2-0.2,0.5-0.5,0.7-0.7
				c-0.1-0.2-0.1-0.4-0.2-0.6c-0.1-0.2-0.2-0.5-0.3-0.8c-0.1,0.1-0.1,0.1-0.2,0.1c-0.1,0-0.1,0.1-0.2,0.1c-0.1,0.1-0.1,0.2-0.2,0.2
				c-0.1,0.1-0.1,0.2-0.2,0.3c-0.1,0.1-0.2,0.2-0.3,0.2c-0.1,0.1-0.2,0.1-0.3,0.1c-0.3,0-0.6-0.1-0.8-0.4c-0.2-0.3-0.3-0.6-0.3-1
				c0-0.5,0-1,0-1.5c0-0.3-0.1-0.6-0.2-0.8c-0.1-0.2-0.3-0.2-0.5-0.2c-0.3,0-0.7,0.1-1.2,0.4c-0.4,0.3-0.9,0.7-1.4,1.3l0,0
				c-0.1,0.1-0.2,0.1-0.3,0.2l-0.2,0.1c-0.1,0.1-0.3,0.2-0.5,0.4c-0.2,0.2-0.5,0.5-0.9,0.8c-0.3,0.3-0.6,0.5-0.9,0.7
				c-0.3,0.2-0.5,0.3-0.8,0.4l0,0l-0.2-0.2l0,0c0.3-0.4,0.6-0.8,0.8-1.1c0.2-0.3,0.3-0.4,0.4-0.5c0.6-0.5,1.1-1,1.4-1.3
				c0.4-0.4,0.6-0.7,0.7-0.9l0,0c0.2-0.2,0.4-0.3,0.6-0.5c0.1-0.1,0.2-0.2,0.3-0.3c0.1-0.1,0.2-0.2,0.3-0.4l0,0
				c0.3-0.2,0.6-0.5,0.9-0.7c0.2-0.2,0.5-0.5,0.6-0.7l0,0c0.3-0.2,0.6-0.5,0.9-0.6c0.2-0.1,0.3-0.2,0.4-0.4c0.1-0.2,0.1-0.4,0.1-0.6
				c0-0.2-0.1-0.3-0.2-0.5c-0.1-0.1-0.3-0.2-0.6-0.2c-0.5,0-1.1,0.2-1.8,0.7c-0.7,0.5-1.6,1.1-2.5,2.1c-0.2,0.2-0.4,0.4-0.6,0.5
				c-0.2,0.1-0.3,0.2-0.5,0.3c-0.2,0.2-0.4,0.4-0.6,0.5c-0.2,0.2-0.3,0.3-0.4,0.4l0,0c-0.2,0.1-0.3,0.2-0.4,0.2
				c-0.1,0.1-0.2,0.2-0.3,0.3c-0.1,0.2-0.2,0.3-0.3,0.4c-0.1,0.1-0.1,0.2-0.2,0.2l-1.5,1c-0.1,0.2-0.2,0.3-0.3,0.4
				C202.9,44.7,202.8,44.8,202.8,44.9z"/>
		</g>
		<g>
			<path fill="#FFFFFF" d="M215,44.8c0.1-0.1,0.2-0.2,0.3-0.4c0.1-0.2,0.2-0.3,0.4-0.5l1.1-0.9c0,0,0.1-0.1,0.1-0.1
				c0-0.1,0-0.1,0-0.2c0-0.1,0-0.3,0-0.3c0-0.2,0-0.7,0.1-1.2c0.1-0.6,0.2-0.9,0.3-1l-0.1-0.3c0.1-0.7,0.3-1.5,0.6-2.3
				c0.3-0.8,0.5-1.8,0.9-2.8c0.1-0.2,0.2-0.4,0.3-0.6c0.1-0.3,0.3-0.6,0.4-0.9c0.2-0.6,0.4-1.1,0.7-1.7c0.3-0.6,0.6-1.2,1-1.9
				c0.5-0.8,0.9-1.5,1.3-1.9c0.4-0.4,0.7-0.6,1-0.6c0.6,0,1,0.1,1.3,0.4c0.2,0.2,0.3,0.7,0.3,1.4c0,0.2,0,0.4-0.1,0.8
				c-0.1,0.4-0.1,0.6-0.1,0.8c0,0.2-0.1,0.4-0.2,0.8c-0.1,0.3-0.2,0.6-0.2,0.9c0,0.1,0,0.2-0.1,0.3l0,0.2c0,0.1-0.1,0.3-0.2,0.5
				c-0.1,0.2-0.2,0.5-0.3,0.8c-0.1,0.3-0.2,0.6-0.3,0.9c-0.1,0.4-0.3,0.7-0.4,1.2c-0.1,0.1-0.1,0.2-0.2,0.4
				c-0.1,0.2-0.2,0.3-0.3,0.5c0,0.1-0.1,0.3-0.2,0.5c-0.1,0.2-0.2,0.4-0.3,0.6c-0.1,0.1-0.1,0.3-0.3,0.4c-0.1,0.1-0.2,0.3-0.4,0.6
				c-0.1,0.1-0.1,0.2-0.2,0.4c-0.1,0.2-0.2,0.3-0.3,0.5c-0.1,0.2-0.3,0.4-0.5,0.7c-0.2,0.3-0.4,0.6-0.7,0.9c-0.3,0.6-0.7,1.1-1,1.7
				c0,1,0.2,1.8,0.6,2.3c0.4,0.5,1,0.8,1.8,0.8c0.1,0,0.2,0,0.5-0.1c0.3-0.1,0.6-0.2,1.1-0.4c0.1-0.1,0.3-0.2,0.5-0.4
				c0.2-0.2,0.4-0.3,0.7-0.6l0.6,1.5c-0.3,0.2-0.6,0.5-0.8,0.8c-0.3,0.3-0.6,0.5-0.8,0.8c-0.3,0.3-0.7,0.5-1,0.6
				c-0.3,0.1-0.7,0.2-1,0.2c-0.2,0-0.4,0-0.8-0.1c-0.4,0-0.6-0.1-0.8-0.1c-0.6,0-1.1-0.2-1.5-0.7c-0.4-0.5-0.7-1.2-0.8-2.2
				c0-0.1-0.1-0.2-0.1-0.3c0-0.1-0.1-0.2-0.2-0.3c-0.1,0.1-0.3,0.3-0.5,0.5s-0.4,0.4-0.7,0.7L215,44.8z M222.6,32.3l-0.1-0.1
				c-0.6,0.6-1,1.1-1.4,1.6s-0.5,1-0.5,1.5c0,0.1,0,0.2-0.1,0.4s-0.2,0.4-0.3,0.7c-0.2,0.3-0.3,0.7-0.5,1.1
				c-0.2,0.6-0.4,1.1-0.5,1.5c-0.1,0.4-0.2,0.6-0.2,0.8l0.1,0.1c0.1,0,0.2-0.1,0.4-0.3c0.1-0.2,0.3-0.4,0.5-0.8
				c0.1-0.2,0.2-0.4,0.4-0.7c0.2-0.3,0.3-0.6,0.5-0.9c0.2-0.2,0.4-0.8,0.8-1.8c0.4-1,0.6-1.6,0.6-1.9c0-0.2,0-0.4,0.1-0.6
				C222.5,32.7,222.6,32.5,222.6,32.3z"/>
			<path fill="#FFFFFF" d="M221,48.7c-0.2,0-0.4,0-0.8-0.1c-0.3,0-0.6-0.1-0.8-0.1c-0.6,0-1.1-0.3-1.5-0.7c-0.4-0.5-0.7-1.2-0.8-2.2
				c0-0.1,0-0.2-0.1-0.2c0-0.1-0.1-0.1-0.1-0.2c-0.1,0.1-0.3,0.3-0.4,0.5c-0.2,0.2-0.4,0.4-0.7,0.7l-0.1,0.1l-0.7-1.6l0,0
				c0.1-0.1,0.2-0.2,0.3-0.4c0.1-0.2,0.2-0.3,0.4-0.5l1.1-0.9c0,0,0-0.1,0.1-0.1c0,0,0-0.1,0-0.2c0-0.1,0-0.2,0-0.3
				c0-0.3,0-0.7,0.1-1.3c0.1-0.6,0.2-0.9,0.3-1l-0.1-0.3l0,0c0.1-0.7,0.3-1.5,0.6-2.4c0.2-0.8,0.5-1.8,0.9-2.8
				c0.1-0.2,0.2-0.4,0.3-0.7l0.4-0.9c0.2-0.5,0.4-1.1,0.7-1.7c0.3-0.6,0.6-1.2,1-1.9c0.5-0.8,1-1.5,1.3-1.9c0.4-0.4,0.8-0.7,1.1-0.7
				c0.6,0,1.1,0.1,1.3,0.4c0.2,0.3,0.4,0.7,0.4,1.4c0,0.2,0,0.4-0.1,0.8c-0.1,0.4-0.1,0.6-0.1,0.8c0,0.2-0.1,0.5-0.2,0.8
				c-0.1,0.3-0.2,0.6-0.2,0.9c0,0.1,0,0.2-0.1,0.3l0,0.2l0,0c0,0.2-0.1,0.3-0.2,0.6c-0.1,0.2-0.2,0.5-0.3,0.8
				c-0.1,0.3-0.2,0.6-0.3,0.9c-0.1,0.4-0.3,0.7-0.4,1.2c-0.1,0.1-0.2,0.2-0.3,0.4c-0.1,0.2-0.2,0.3-0.3,0.5c0,0.1-0.1,0.3-0.2,0.5
				c-0.1,0.2-0.2,0.4-0.3,0.6c-0.1,0.1-0.2,0.3-0.3,0.4c-0.1,0.1-0.2,0.3-0.4,0.6c-0.1,0.1-0.1,0.2-0.2,0.4
				c-0.1,0.2-0.2,0.3-0.3,0.5c-0.1,0.2-0.3,0.4-0.5,0.7c-0.2,0.3-0.4,0.6-0.7,0.9c-0.3,0.6-0.7,1.1-1,1.7c0,1,0.2,1.8,0.6,2.3
				c0.4,0.5,1,0.8,1.8,0.8c0,0,0.1,0,0.5-0.1c0.3-0.1,0.6-0.2,1.1-0.4c0.1-0.1,0.3-0.2,0.5-0.4c0.2-0.2,0.4-0.3,0.7-0.6l0.1-0.1
				l0.7,1.6l0,0c-0.3,0.2-0.5,0.5-0.8,0.8c-0.3,0.3-0.6,0.5-0.9,0.8c-0.3,0.3-0.7,0.5-1,0.6C221.6,48.7,221.3,48.7,221,48.7z
				 M216.8,45.1L216.8,45.1c0.1,0.1,0.2,0.2,0.3,0.3c0,0.1,0.1,0.2,0.1,0.3c0.2,0.9,0.4,1.7,0.8,2.1c0.4,0.5,0.9,0.7,1.4,0.7
				c0.2,0,0.4,0,0.8,0.1c0.3,0,0.6,0.1,0.8,0.1c0.3,0,0.7-0.1,1-0.2c0.3-0.1,0.7-0.4,1-0.6c0.3-0.2,0.6-0.5,0.8-0.8
				c0.3-0.2,0.5-0.5,0.8-0.7l-0.6-1.4c-0.2,0.2-0.4,0.4-0.6,0.5c-0.2,0.2-0.4,0.3-0.5,0.4c-0.5,0.2-0.9,0.3-1.1,0.4
				c-0.4,0.1-0.5,0.1-0.5,0.1c-0.8,0-1.5-0.3-1.9-0.8c-0.4-0.5-0.6-1.3-0.6-2.4v0l0,0c0.4-0.5,0.7-1.1,1-1.7c0.3-0.4,0.5-0.7,0.7-1
				c0.2-0.3,0.3-0.5,0.5-0.7c0.1-0.2,0.2-0.4,0.3-0.5c0.1-0.2,0.1-0.3,0.2-0.4c0.2-0.2,0.3-0.4,0.4-0.6c0.1-0.1,0.2-0.3,0.3-0.4
				c0.1-0.2,0.2-0.5,0.3-0.6c0.1-0.2,0.1-0.3,0.2-0.5l0,0c0.1-0.2,0.2-0.4,0.3-0.5c0.1-0.2,0.2-0.3,0.2-0.4c0.2-0.4,0.3-0.8,0.4-1.1
				c0.1-0.4,0.2-0.7,0.3-0.9c0.1-0.3,0.3-0.6,0.3-0.8c0.1-0.2,0.1-0.4,0.2-0.5l0-0.2l0,0c0-0.1,0.1-0.2,0.1-0.2
				c0-0.3,0.1-0.6,0.2-0.9c0.1-0.3,0.2-0.6,0.2-0.7c0-0.2,0-0.5,0.1-0.8c0.1-0.4,0.1-0.6,0.1-0.8c0-0.6-0.1-1.1-0.3-1.3
				c-0.2-0.2-0.6-0.3-1.2-0.3c-0.3,0-0.6,0.2-1,0.6c-0.4,0.4-0.8,1.1-1.3,1.9c-0.4,0.6-0.7,1.3-1,1.9c-0.3,0.6-0.5,1.2-0.7,1.7
				l-0.4,0.9c-0.1,0.3-0.2,0.5-0.3,0.7c-0.3,1-0.6,1.9-0.8,2.7c-0.2,0.8-0.4,1.6-0.6,2.3l0.1,0.3l0,0c0,0.1-0.1,0.3-0.2,1
				c-0.1,0.6-0.1,1-0.1,1.2c0,0.1,0,0.2,0,0.3c0,0.1,0,0.2,0,0.2c0,0.1,0,0.1-0.1,0.2l-1.1,0.9c-0.2,0.2-0.3,0.3-0.4,0.5
				c-0.1,0.1-0.2,0.3-0.3,0.4l0.6,1.4c0.2-0.2,0.4-0.4,0.6-0.6C216.4,45.4,216.6,45.3,216.8,45.1L216.8,45.1z M219.2,39.9l-0.1-0.2
				v0c0-0.2,0.1-0.4,0.2-0.8c0.1-0.4,0.3-0.8,0.5-1.5c0.2-0.4,0.4-0.8,0.5-1.1c0.1-0.3,0.2-0.5,0.3-0.7c0.1-0.2,0.1-0.3,0.1-0.4
				c0-0.5,0.2-1,0.5-1.5c0.3-0.5,0.8-1.1,1.4-1.6l0,0l0.2,0.1l0,0c0,0.2-0.1,0.4-0.1,0.6c0,0.2-0.1,0.4-0.1,0.6
				c0,0.3-0.2,0.9-0.6,1.9c-0.4,1-0.6,1.6-0.8,1.8c-0.2,0.3-0.4,0.6-0.5,0.9c-0.2,0.3-0.3,0.5-0.4,0.7c-0.2,0.4-0.3,0.6-0.5,0.8
				C219.5,39.8,219.3,39.9,219.2,39.9L219.2,39.9z M219.2,39.7L219.2,39.7c0.1,0.1,0.2,0,0.3-0.2c0.1-0.2,0.3-0.4,0.5-0.8
				c0.1-0.2,0.2-0.4,0.4-0.7c0.2-0.3,0.3-0.6,0.5-0.9c0.2-0.2,0.4-0.8,0.8-1.8c0.4-1,0.6-1.6,0.6-1.8c0-0.2,0-0.4,0.1-0.6
				c0-0.2,0.1-0.4,0.1-0.6l0,0c-0.6,0.6-1,1.1-1.3,1.6c-0.3,0.5-0.4,1-0.4,1.5c0,0.1,0,0.2-0.1,0.4c-0.1,0.2-0.2,0.4-0.3,0.7
				c-0.2,0.3-0.3,0.7-0.5,1.1c-0.2,0.6-0.4,1.1-0.5,1.4C219.2,39.3,219.2,39.6,219.2,39.7z"/>
		</g>
	</g>
</g>
</svg>
