<?xml version="1.0" encoding="utf-8"?>
<!-- Generator: Adobe Illustrator 17.1.0, SVG Export Plug-In . SVG Version: 6.00 Build 0)  -->
<!DOCTYPE svg PUBLIC "-//W3C//DTD SVG 1.1//EN" "http://www.w3.org/Graphics/SVG/1.1/DTD/svg11.dtd">
<svg version="1.1" id="Layer_1" xmlns="http://www.w3.org/2000/svg" xmlns:xlink="http://www.w3.org/1999/xlink" x="0px" y="0px"
	 viewBox="0 0 224.3 60" enable-background="new 0 0 224.3 60" xml:space="preserve">
<g>
	<g>
		<g>
			<g>
				<g>
					<path fill="#FFFFFF" d="M108.1,37.5c-0.3,0-1.2,0-1.2,0h-1.7v-4.7h2.6c1.6,0,2.6,0.2,2.6,2.4C110.3,36.8,109.8,37.5,108.1,37.5
						z M109.4,35.2c0-1.4-0.5-1.7-1.7-1.7h-1.7v3.5h1.8C109.1,36.9,109.4,36.3,109.4,35.2L109.4,35.2z"/>
				</g>
				<g>
					<path fill="#FFFFFF" d="M114.5,37.5c-2.1,0-2.6-0.7-2.6-2.4c0-1.7,0.5-2.4,2.6-2.4c2.1,0,2.6,0.7,2.6,2.4
						C117.1,36.8,116.6,37.5,114.5,37.5z M114.5,33.4c-1.4,0-1.7,0.6-1.7,1.8c0,1.2,0.3,1.8,1.7,1.8c1.5,0,1.7-0.6,1.7-1.8
						C116.2,34,115.9,33.4,114.5,33.4z"/>
				</g>
				<g>
					<path fill="#FFFFFF" d="M126.5,35.4c0,1.4-0.6,2.1-1.9,2.1h-0.4c-0.4,0-0.9-0.1-1.2-0.3c-0.5,0.1-1.6,0.3-2.3,0.3
						c-1.3,0-1.8-0.7-1.8-2.1v-2.6h0.9v2.6c0,1,0.4,1.5,1.2,1.5c0,0,0.9,0,1.6,0c-0.3-0.5-0.3-0.9-0.3-1.4v-2.6h0.9v2.7
						c0,1,0.4,1.4,1.2,1.4c0.9,0,1.2-0.4,1.2-1.4v-2.7h0.9V35.4z"/>
				</g>
				<g>
					<path fill="#FFFFFF" d="M132,37.5l-2.5-4.1h-0.2l0,4.1h-0.9v-4.7h1.7l2.4,4.1h0.2v-4.1h0.9v4.7H132z"/>
				</g>
				<g>
					<path fill="#FFFFFF" d="M139.7,33.4H138v4.1h-0.9v-4.1h-1.7l-0.2-0.6h4.7L139.7,33.4z"/>
				</g>
				<g>
					<path fill="#FFFFFF" d="M143.6,37.5c-2.1,0-2.6-0.7-2.6-2.4c0-1.7,0.5-2.4,2.6-2.4c2.1,0,2.6,0.7,2.6,2.4
						C146.2,36.8,145.7,37.5,143.6,37.5z M143.6,33.4c-1.4,0-1.7,0.6-1.7,1.8c0,1.2,0.3,1.8,1.7,1.8c1.5,0,1.7-0.6,1.7-1.8
						C145.3,34,145,33.4,143.6,33.4z"/>
				</g>
				<g>
					<path fill="#FFFFFF" d="M155.6,35.4c0,1.4-0.6,2.1-1.9,2.1h-0.4c-0.4,0-0.9-0.1-1.2-0.3c-0.5,0.1-1.6,0.3-2.3,0.3
						c-1.3,0-1.8-0.7-1.8-2.1v-2.6h0.9v2.6c0,1,0.4,1.5,1.2,1.5c0,0,0.9,0,1.6,0c-0.3-0.5-0.3-0.9-0.3-1.4v-2.6h0.9v2.7
						c0,1,0.4,1.4,1.2,1.4c0.9,0,1.2-0.4,1.2-1.4v-2.7h0.9V35.4z"/>
				</g>
				<g>
					<path fill="#FFFFFF" d="M161.2,37.5l-2.5-4.1h-0.2l0,4.1h-0.9v-4.7h1.7l2.4,4.1h0.2v-4.1h0.9v4.7H161.2z"/>
				</g>
			</g>
		</g>
		<g>
			<path fill="#FFFFFF" d="M73.7,17.2l19.2,0c0.8,0,1.9-0.1,2.7-0.8c0.8-0.7,0.8-2.1,0.8-2.3c0,0,0-7.4,0-7.4c0-2.8-2.3-5.2-5-5.2h0
				c0,0-19.1,0-19.1,0c-2.8,0-5,2.4-5,5.2l0,0l0,15.5l0,0c0,2.8,2.3,5.2,5,5.2h0c0,0,23.7,0,23.7,0l0-4.6c0,0,0,0,0,0
				c0-0.1,0-0.8-0.5-1.1c-0.4-0.2-0.9-0.2-1-0.2l-20.8,0L73.7,17.2z M73.7,7.4h15.1c1.2,0,1.7,0.9,1.7,2.2c0,1.3-0.5,2.2-1.7,2.2
				H73.7V7.4z"/>
		</g>
		<g>
			<path fill="#FFFFFF" d="M123.2,11.9l-19.2,0c-0.8,0-1.9,0.1-2.7,0.8c-0.8,0.7-0.8,2.1-0.8,2.3c0,0,0,7.4,0,7.4
				c0,2.8,2.3,5.2,5,5.2h0c0,0,19.1,0,19.1,0c2.8,0,5-2.4,5-5.2l0,0l0-15.5l0,0c0-2.8-2.3-5.2-5-5.2h0c0,0-23.7,0-23.7,0l0,4.6
				c0,0,0,0,0,0c0,0.1,0,0.8,0.5,1.1c0.4,0.2,0.9,0.2,1,0.2l20.8,0L123.2,11.9z M123.2,21.7h-15.1c-1.2,0-1.7-0.9-1.7-2.2
				c0-1.3,0.5-2.2,1.7-2.2h15.1V21.7z"/>
		</g>
		<g>
			<path fill="#FFFFFF" d="M62.8,27.5l0-10.7c0-1.4-0.3-2.2-0.9-2.7c-0.4-0.3-0.9-0.4-1.4-0.5c0.8-0.2,1.4-0.5,1.7-0.9
				c0.5-0.6,0.6-1.4,0.6-2.5c0-0.4,0-3.5,0-3.6c0-1.4-0.5-2.7-1.5-3.6c-1-0.9-2.3-1.5-3.9-1.5l-23.5,0v26c0,0,5.5,0,5.5,0
				c0,0,0.8,0,0.8-0.7l0-8.8c0-0.7,0.7-0.7,0.8-0.7c0,0,14.7,0,14.7,0c0,0,0.8,0,0.8,0.7l0,8.8c0,0.7,0.7,0.7,0.8,0.7
				C57.1,27.5,62.8,27.5,62.8,27.5z M40.2,7.4h15c0.6,0,0.9,0.2,1.1,0.6c0.2,0.4,0.3,1,0.3,1.6c0,0.6-0.1,1.2-0.3,1.6
				c-0.2,0.4-0.5,0.6-1.1,0.6h-15V7.4z"/>
		</g>
		<g>
			<path fill="#FFFFFF" d="M145.2,18c0,3.6,0,7.7,0,7.9c0,0.3,0,1.6,1.3,1.6l0.2,0h0.3h4.7c0-0.1,0-4.8,0-9.5V8.2c0,0,0-0.1,0-0.1
				c0,0,0-0.8,0.7-0.8l0.1,0h4.1l0,19.4c0,0.7,0.7,0.7,0.8,0.7c0,0,0.1,0,0.1,0h5.7V6.8l0,0c0-2.8-2.3-5.2-5-5.2c0,0-19,0-19.1,0h0
				c-2.8,0-5,2.4-5,5.2l0,0v20.7h5.7c0,0,0.1,0,0.1,0c0,0,0.8,0,0.8-0.7l0-19.4h4.1l0.1,0c0.7,0,0.7,0.7,0.7,0.8c0,0,0,0.1,0,0.1
				s0,2.2,0,3.5L145.2,18z"/>
		</g>
		<g>
			<path fill="#FFFFFF" d="M28.1,26.2 M24.2,27.5 M22.7,17.7l0,1.4v0.8v0.3l0,0.2c0,1.2-1.3,1.3-1.6,1.3c-0.1,0-2.8,0-2.8,0H6.5V7.3
				c0,0,14.5,0,14.6,0c0.3,0,1.6,0,1.6,1.3l0,0.2l0,1.5V17.7 M24.1,27.5c2.8,0,5.2-2.3,5.2-5l0-15.7l0,0c0-2.8-2.3-5.2-5-5.2l-0.3,0
				L2,1.5l-2,0l0,16.5c0,3.6,0,7.7,0,7.9c0,0.3,0,1.6,1.3,1.6l0.2,0h0.3L24.1,27.5z"/>
		</g>
		<g>
			<g>
				<path fill="#FFFFFF" d="M167.1,0.1c1.1,0,2,0.9,2,1.9c0,1.1-0.9,1.9-2,1.9c-1.1,0-2-0.8-2-1.9C165.1,1,166,0.1,167.1,0.1
					L167.1,0.1z M167,0.5c-0.8,0-1.5,0.7-1.5,1.5c0,0.9,0.6,1.5,1.5,1.5c0.8,0,1.5-0.7,1.5-1.5C168.5,1.2,167.9,0.5,167,0.5L167,0.5
					z M166.8,3.1h-0.4V1.2c0.2,0,0.4-0.1,0.7-0.1c0.4,0,0.5,0.1,0.7,0.2c0.1,0.1,0.2,0.2,0.2,0.4c0,0.2-0.2,0.4-0.4,0.5v0
					c0.2,0.1,0.3,0.2,0.4,0.5c0.1,0.3,0.1,0.4,0.1,0.5h-0.5c-0.1-0.1-0.1-0.2-0.2-0.5c0-0.2-0.2-0.3-0.4-0.3h-0.2V3.1z M166.8,2h0.2
					c0.2,0,0.4-0.1,0.4-0.3c0-0.2-0.1-0.3-0.4-0.3c-0.1,0-0.2,0-0.2,0V2z"/>
			</g>
		</g>
	</g>
	<g>
		<g>
			<path fill="#FFFFFF" d="M104.5,47c-0.3,0.2-0.7,0.5-1.2,0.8c-0.5,0.3-1,0.7-1.7,1.1c-0.6,0.3-1.1,0.6-1.5,0.9
				c-0.4,0.2-0.8,0.4-1.1,0.5c-0.4,0.2-0.9,0.3-1.4,0.4c-0.5,0.1-1,0.1-1.5,0.1c-0.2,0-0.3,0-0.5-0.1c-0.2,0-0.4-0.1-0.6-0.2
				c-0.3-0.1-0.5-0.1-0.7-0.2c-0.2-0.1-0.4-0.1-0.5-0.1l-0.2-0.2L93.1,50c-0.2,0-0.4-0.1-0.7-0.3c-0.3-0.2-0.6-0.5-0.9-0.8
				c-0.3-0.3-0.6-0.6-0.8-0.9c-0.2-0.3-0.3-0.5-0.4-0.8l-0.4-1.4c-0.1-0.5-0.3-0.8-0.3-1.1c-0.1-0.3-0.1-0.5-0.1-0.6l0.2-0.7
				c-0.1-0.2-0.2-0.4-0.2-0.6s-0.1-0.3-0.1-0.4s0-0.3,0.1-0.8c0.1-0.4,0.1-1,0.2-1.8c0.1-0.1,0.2-0.3,0.2-0.5
				c0.1-0.2,0.2-0.5,0.2-0.7l0-0.4c0-0.1,0-0.2,0.1-0.3c0-0.1,0.1-0.2,0.2-0.4c0.2-0.5,0.5-1,0.7-1.6c0.2-0.5,0.5-1,0.7-1.5
				c0.2-0.4,0.5-0.8,0.8-1.2c0.3-0.4,0.7-0.8,1.2-1.3c0.1-0.1,0.2-0.2,0.4-0.4c0.1-0.2,0.3-0.4,0.5-0.6c0.2-0.1,0.4-0.3,0.7-0.5
				c0.3-0.2,0.6-0.5,0.9-0.8c0.1,0,0.2-0.1,0.4-0.2c0.1-0.1,0.3-0.2,0.5-0.3c0.1,0,0.1-0.1,0.2-0.2s0.2-0.2,0.3-0.2
				c0.1-0.1,0.5-0.3,1.3-0.5c0.7-0.2,1.2-0.3,1.4-0.3c0.5,0,0.9,0,1.2,0.1c0.3,0.1,0.6,0.2,0.8,0.3l0.5,0.1c0.4,0.1,0.7,0.4,0.9,1
				c0.2,0.6,0.3,1.4,0.3,2.4c0,0.5,0,0.9,0,1.2c0,0.3,0,0.5,0,0.6c-0.1,0.3-0.1,0.7-0.2,1.2c-0.1,0.5-0.2,1-0.3,1.7
				c0,0.2-0.1,0.4-0.2,0.8c-0.1,0.4-0.3,0.9-0.5,1.4c-0.2,0.6-0.4,1.1-0.6,1.4s-0.3,0.5-0.4,0.5c-0.4,0.1-0.9,0.2-1.4,0.4
				c-0.2,0-0.4,0-0.5-0.1c-0.1,0-0.1-0.1-0.1-0.2c0-0.1,0-0.2,0.1-0.4c0-0.2,0.1-0.3,0.1-0.3c0-0.4-0.1-0.8-0.1-1.2
				c0-0.1,0-0.4,0.1-0.9c0.1-0.4,0.2-1,0.4-1.7c0.2-0.7,0.3-1.3,0.5-1.8c0.1-0.4,0.2-0.7,0.3-0.8c0.3-0.3,0.5-0.6,0.7-0.8
				c0.1-0.3,0.2-0.5,0.2-0.7c0-0.3-0.1-0.6-0.2-0.8c-0.1-0.2-0.4-0.4-0.6-0.5c-0.3-0.1-0.6-0.1-0.8-0.2c-0.3-0.1-0.6-0.1-0.8-0.2
				c-0.2,0.1-0.4,0.1-0.6,0.2c-0.2,0-0.3,0.1-0.5,0.1c-0.7,0.1-1.4,0.4-2,1s-1.3,1.3-1.9,2.2c-0.5,0.8-0.9,1.7-1.2,2.5
				c-0.3,0.8-0.5,1.7-0.6,2.5c0,0.3-0.1,0.6-0.2,0.9s-0.2,0.8-0.3,1.3c0.1,0.3,0.2,0.6,0.3,0.9l-0.2,1.5c0,0.1,0,0.2,0.1,0.3
				c0.1,0.2,0.2,0.4,0.4,0.7c0.1,0.2,0.2,0.4,0.3,0.6c0.1,0.2,0.2,0.5,0.2,0.8c0,0.1,0.1,0.2,0.1,0.2c0.1,0.1,0.1,0.2,0.2,0.2
				c0.2,0.1,0.3,0.3,0.5,0.4c0.5,0.5,0.9,0.9,1.5,1.1c0.5,0.2,1.1,0.4,1.7,0.4c0.1,0,0.3,0,0.6-0.1c0.3-0.1,0.8-0.1,1.4-0.3
				c0.1-0.1,0.2-0.1,0.4-0.2c0.2-0.1,0.4-0.2,0.6-0.2c0.2-0.2,0.4-0.4,0.6-0.5c0.2-0.1,0.4-0.1,0.6-0.1c0.1-0.1,0.1-0.2,0.2-0.3
				c0.1-0.1,0.2-0.2,0.3-0.4c0.3-0.1,0.6-0.3,0.9-0.5c0.3-0.2,0.5-0.4,0.8-0.7C104.3,46.4,104.5,46.9,104.5,47z"/>
			<path fill="#FFFFFF" d="M96.1,50.9c-0.2,0-0.3,0-0.5-0.1c-0.2,0-0.4-0.1-0.6-0.2c-0.3-0.1-0.5-0.1-0.7-0.2
				c-0.2-0.1-0.3-0.1-0.5-0.1l0,0l-0.2-0.2l-0.4-0.1c-0.2,0-0.5-0.1-0.8-0.3c-0.3-0.2-0.6-0.5-0.9-0.8c-0.3-0.3-0.6-0.6-0.8-0.9
				c-0.2-0.3-0.3-0.6-0.4-0.8l-0.4-1.4c-0.1-0.5-0.3-0.9-0.3-1.1c-0.1-0.3-0.1-0.5-0.1-0.6l0.2-0.7c-0.1-0.2-0.1-0.4-0.2-0.6
				c-0.1-0.2-0.1-0.3-0.1-0.4c0-0.1,0-0.4,0.1-0.8c0.1-0.4,0.1-1,0.2-1.8l0,0c0.1-0.1,0.2-0.3,0.2-0.5c0.1-0.2,0.2-0.4,0.2-0.7
				l0-0.3c0-0.1,0-0.2,0.1-0.3c0-0.1,0.1-0.2,0.2-0.4c0.2-0.5,0.5-1,0.7-1.6c0.2-0.5,0.5-1,0.7-1.5c0.2-0.4,0.5-0.8,0.8-1.2
				c0.3-0.4,0.7-0.8,1.2-1.3c0.1-0.1,0.2-0.2,0.3-0.4c0.1-0.2,0.3-0.4,0.5-0.6l0,0c0.2-0.1,0.4-0.3,0.7-0.5c0.3-0.2,0.6-0.5,0.9-0.8
				l0,0c0.1,0,0.2-0.1,0.4-0.2l0.5-0.3c0,0,0.1-0.1,0.2-0.1c0.1-0.1,0.2-0.2,0.3-0.2c0.1-0.1,0.5-0.3,1.3-0.5
				c0.7-0.2,1.2-0.3,1.5-0.3c0.5,0,0.9,0,1.3,0.1c0.3,0.1,0.6,0.2,0.8,0.3l0.5,0.1c0.4,0.1,0.8,0.4,1,1c0.2,0.6,0.3,1.4,0.3,2.4
				c0,0.5,0,0.9,0,1.2c0,0.3,0,0.5,0,0.6c-0.1,0.3-0.1,0.7-0.2,1.2c-0.1,0.5-0.2,1.1-0.3,1.7c0,0.2-0.1,0.5-0.2,0.8
				c-0.1,0.4-0.3,0.8-0.5,1.4c-0.2,0.6-0.4,1.1-0.6,1.4c-0.2,0.3-0.3,0.5-0.4,0.6c-0.4,0.1-0.9,0.2-1.4,0.4l0,0
				c-0.2,0-0.4,0-0.5-0.1c-0.2-0.1-0.2-0.2-0.2-0.2c0-0.1,0-0.2,0.1-0.4c0-0.2,0.1-0.3,0.1-0.3c0-0.4-0.1-0.8-0.1-1.2
				c0-0.2,0-0.5,0.1-0.9c0.1-0.4,0.2-1,0.4-1.7c0.2-0.7,0.3-1.3,0.5-1.8c0.1-0.4,0.3-0.7,0.3-0.8c0.3-0.3,0.5-0.6,0.7-0.8
				c0.1-0.3,0.2-0.5,0.2-0.7c0-0.3-0.1-0.5-0.2-0.7c-0.1-0.2-0.3-0.4-0.6-0.5c-0.3-0.1-0.5-0.1-0.8-0.2c-0.3-0.1-0.6-0.1-0.8-0.2
				C99.2,30.9,99,31,98.9,31c-0.2,0-0.3,0.1-0.5,0.1c-0.7,0.1-1.4,0.4-2,1c-0.6,0.5-1.3,1.3-1.9,2.2c-0.5,0.8-0.9,1.7-1.2,2.5
				c-0.3,0.8-0.5,1.7-0.6,2.5c0,0.3-0.1,0.6-0.2,1c-0.1,0.4-0.2,0.8-0.3,1.3c0.1,0.3,0.2,0.6,0.3,0.9l0,0l-0.2,1.5
				c0,0,0,0.1,0.1,0.3c0.1,0.2,0.2,0.4,0.4,0.7c0.1,0.2,0.2,0.4,0.3,0.6c0.1,0.2,0.2,0.5,0.2,0.8c0,0.1,0.1,0.1,0.1,0.2
				c0.1,0.1,0.1,0.1,0.2,0.2c0.2,0.1,0.3,0.3,0.5,0.4c0.5,0.5,0.9,0.9,1.5,1.1c0.5,0.2,1.1,0.4,1.6,0.4c0,0,0.1,0,0.6-0.1
				c0.4-0.1,0.8-0.1,1.4-0.3c0.1-0.1,0.3-0.1,0.4-0.2c0.2-0.1,0.4-0.2,0.6-0.2c0.2-0.2,0.4-0.4,0.6-0.5c0.2-0.1,0.4-0.1,0.6-0.1
				c0.1-0.1,0.1-0.2,0.2-0.2c0.1-0.1,0.2-0.2,0.3-0.4l0,0c0.3-0.1,0.6-0.3,0.9-0.5c0.3-0.2,0.5-0.4,0.8-0.7l0.1-0.1l0,0.1
				c0.6,1.4,0.6,1.5,0.6,1.5v0l0,0c-0.3,0.2-0.7,0.5-1.2,0.8c-0.5,0.3-1,0.7-1.7,1.1c-0.6,0.3-1.1,0.6-1.5,0.9
				c-0.4,0.2-0.8,0.4-1.1,0.5c-0.4,0.2-0.9,0.4-1.4,0.4C97.1,50.8,96.6,50.9,96.1,50.9z M93.8,50.2c0.1,0,0.3,0,0.5,0.1
				c0.2,0.1,0.4,0.1,0.7,0.2c0.2,0.1,0.4,0.1,0.6,0.2c0.2,0,0.4,0.1,0.5,0.1c0.5,0,1,0,1.5-0.1c0.5-0.1,0.9-0.2,1.4-0.4
				c0.3-0.1,0.7-0.3,1.1-0.5c0.4-0.2,0.9-0.5,1.5-0.9c0.6-0.4,1.2-0.7,1.7-1.1c0.5-0.3,0.8-0.6,1.2-0.8c0-0.1-0.2-0.4-0.6-1.3
				c-0.2,0.2-0.5,0.5-0.7,0.7c-0.3,0.2-0.6,0.4-0.9,0.5c-0.1,0.1-0.2,0.2-0.3,0.3c-0.1,0.1-0.1,0.2-0.2,0.3l0,0h0
				c-0.2,0-0.4,0-0.6,0.1c-0.2,0.1-0.4,0.2-0.6,0.4l0,0c-0.2,0.1-0.5,0.2-0.6,0.2c-0.2,0.1-0.3,0.1-0.4,0.2l0,0
				c-0.6,0.1-1.1,0.2-1.4,0.3c-0.5,0.1-0.6,0.1-0.6,0.1c-0.6,0-1.2-0.1-1.7-0.4c-0.5-0.3-1-0.6-1.5-1.1c-0.1-0.1-0.3-0.2-0.5-0.4
				c-0.1-0.1-0.1-0.1-0.2-0.2c-0.1-0.1-0.1-0.2-0.1-0.3c-0.1-0.3-0.1-0.6-0.2-0.8c-0.1-0.2-0.2-0.4-0.3-0.6
				c-0.2-0.3-0.4-0.6-0.4-0.7c-0.1-0.2-0.2-0.3-0.2-0.4l0.2-1.4c-0.1-0.3-0.2-0.6-0.3-0.9l0,0l0,0c0.1-0.5,0.2-1,0.3-1.3
				c0.1-0.4,0.1-0.7,0.2-0.9c0.1-0.8,0.3-1.7,0.6-2.5c0.3-0.8,0.7-1.7,1.2-2.5c0.6-1,1.2-1.7,1.9-2.3c0.7-0.5,1.4-0.9,2.1-1
				c0.1,0,0.3-0.1,0.5-0.1c0.2,0,0.4-0.1,0.6-0.2l0,0l0,0c0.3,0.1,0.6,0.2,0.8,0.2c0.3,0.1,0.6,0.1,0.8,0.2c0.3,0.1,0.5,0.3,0.7,0.5
				c0.1,0.2,0.2,0.5,0.2,0.8c0,0.2-0.1,0.5-0.2,0.7c-0.1,0.3-0.4,0.5-0.7,0.8c-0.1,0.1-0.2,0.4-0.3,0.8c-0.1,0.4-0.3,1-0.5,1.8
				c-0.2,0.7-0.3,1.2-0.4,1.7c-0.1,0.4-0.1,0.7-0.1,0.9c0,0.4,0.1,0.8,0.1,1.2c0,0.1,0,0.2-0.1,0.4c0,0.2-0.1,0.3-0.1,0.3
				c0,0,0,0.1,0.1,0.1c0.1,0,0.2,0.1,0.5,0.1c0.5-0.1,0.9-0.2,1.4-0.3c0,0,0.2-0.1,0.4-0.5c0.2-0.3,0.3-0.8,0.6-1.4
				c0.2-0.6,0.4-1.1,0.5-1.4c0.1-0.4,0.2-0.7,0.2-0.8c0.1-0.6,0.2-1.2,0.3-1.7c0.1-0.5,0.2-0.9,0.2-1.2c0-0.1,0-0.3,0-0.6
				c0-0.3,0-0.7,0-1.2c0-1-0.1-1.8-0.3-2.4c-0.2-0.5-0.5-0.8-0.9-0.9l-0.5-0.1c-0.2-0.1-0.5-0.2-0.8-0.3c-0.3-0.1-0.7-0.1-1.2-0.1
				c-0.2,0-0.7,0.1-1.4,0.3c-0.9,0.3-1.2,0.4-1.3,0.5c-0.1,0.1-0.2,0.2-0.3,0.2c-0.1,0.1-0.2,0.1-0.2,0.2l-0.5,0.3
				c-0.2,0.1-0.3,0.1-0.4,0.2c-0.4,0.3-0.7,0.6-0.9,0.8c-0.3,0.2-0.5,0.4-0.7,0.5c-0.2,0.2-0.3,0.4-0.5,0.5
				c-0.1,0.2-0.3,0.3-0.4,0.4c-0.4,0.4-0.8,0.9-1.2,1.3c-0.3,0.4-0.6,0.8-0.8,1.2c-0.2,0.5-0.5,1-0.7,1.5c-0.2,0.5-0.5,1.1-0.7,1.6
				c-0.1,0.1-0.1,0.3-0.1,0.4c0,0.1-0.1,0.2-0.1,0.3l0,0.4l0,0c-0.1,0.3-0.2,0.5-0.2,0.7c-0.1,0.2-0.2,0.4-0.2,0.5
				c-0.1,0.8-0.2,1.4-0.2,1.8c-0.1,0.5-0.1,0.7-0.1,0.8c0,0.1,0,0.2,0.1,0.3c0,0.2,0.1,0.4,0.2,0.6l0,0l-0.2,0.7c0,0,0,0.2,0.1,0.5
				c0.1,0.3,0.2,0.7,0.3,1.1l0.4,1.4c0.1,0.2,0.2,0.5,0.4,0.8c0.2,0.3,0.5,0.6,0.8,0.9c0.3,0.3,0.6,0.6,0.9,0.8
				c0.3,0.2,0.5,0.3,0.7,0.3l0.5,0.1L93.8,50.2z"/>
		</g>
		<g>
			<path fill="#FFFFFF" d="M103.8,45.5c0.1-0.1,0.2-0.2,0.2-0.3c0.1-0.1,0.2-0.3,0.3-0.4l1.2-0.8c0.1-0.2,0.4-0.4,0.7-0.7
				c0.3-0.3,0.7-0.6,1.1-1c0.1-0.1,0.1-0.3,0.3-0.4c0.1-0.2,0.3-0.3,0.4-0.5c0.1-0.1,0.3-0.3,0.4-0.4c0.1-0.1,0.3-0.2,0.4-0.4
				c0.2-0.2,0.3-0.3,0.5-0.5c0.1-0.2,0.3-0.3,0.4-0.5c0.2-0.1,0.3-0.3,0.5-0.4c0.2-0.1,0.4-0.1,0.6-0.1c0.2,0,0.4,0,0.5,0.1
				c0.1,0.1,0.2,0.1,0.2,0.2c-0.1,0.2-0.2,0.5-0.3,0.7l0.1,0.1c0.5-0.2,0.8-0.3,1.1-0.4c0.3-0.1,0.4-0.1,0.5-0.1
				c0.8,0,1.4,0.2,1.7,0.7c0.4,0.5,0.6,1.2,0.6,2.1c0,0.2,0,0.4-0.1,0.6c0,0.2-0.1,0.5-0.2,0.8c-0.1,0.3-0.2,0.6-0.3,0.8
				c-0.1,0.2-0.2,0.4-0.3,0.5c0,0.1,0.1,0.2,0.1,0.3c0.1,0.1,0.1,0.1,0.2,0.1c0.1,0,0.2,0,0.3-0.1c0.1-0.1,0.2-0.1,0.3-0.2
				c0.1,0.2,0.2,0.5,0.3,0.7c0.1,0.2,0.2,0.5,0.3,0.7c-0.2,0.2-0.4,0.3-0.6,0.5c-0.2,0.2-0.4,0.3-0.6,0.5c-0.2,0.2-0.5,0.3-0.7,0.4
				c-0.2,0.1-0.4,0.1-0.6,0.1c-0.2,0-0.4-0.1-0.6-0.2c-0.2-0.1-0.3-0.3-0.4-0.5c-0.3,0.4-0.6,0.7-1,1c-0.4,0.3-0.8,0.5-1.3,0.7
				c-0.3,0.1-0.5,0.2-0.7,0.3c-0.2,0.1-0.4,0.1-0.6,0.1c-0.1,0-0.2,0-0.3,0.1c-0.2,0-0.3,0.1-0.4,0.1c-0.6,0-1.2-0.3-1.6-0.8
				c-0.5-0.5-0.7-1.1-0.7-1.7c0-0.3,0.1-0.6,0.2-1c0.1-0.4,0.2-0.7,0.2-0.7s0-0.1-0.1-0.2c0,0-0.1-0.1-0.2-0.1
				c-0.1,0-0.2,0.1-0.4,0.2c-0.2,0.2-0.5,0.4-0.9,0.7c0,0-0.1,0.1-0.1,0.2c0,0.1-0.1,0.2-0.2,0.3c-0.1-0.2-0.2-0.5-0.3-0.7
				C104.1,46,103.9,45.7,103.8,45.5z M111.5,42.6c-0.1,0-0.1,0.1-0.2,0.2c-0.1,0.1-0.2,0.2-0.3,0.4c-0.1,0.2-0.3,0.5-0.5,0.8
				c-0.1,0.1-0.2,0.2-0.4,0.3c-0.1,0.1-0.3,0.1-0.5,0.2c-0.1,0-0.2,0.1-0.3,0.3c-0.1,0.2-0.2,0.5-0.4,0.9c-0.1,0.3-0.2,0.6-0.3,0.8
				c-0.1,0.2-0.1,0.4-0.1,0.6c0,0.3,0.1,0.5,0.2,0.7c0.1,0.1,0.4,0.2,0.7,0.2c0.5,0,0.9-0.1,1.3-0.4c0.4-0.3,0.8-0.7,1.2-1.2
				c0.2-0.2,0.3-0.4,0.5-0.6c0.1-0.1,0.2-0.2,0.2-0.3c0.1-0.1,0.1-0.3,0.2-0.5l0.3-0.9c-0.1-0.3-0.2-0.6-0.3-0.8
				c-0.1-0.2-0.2-0.3-0.3-0.3c-0.1,0-0.2-0.1-0.4-0.1C112.1,42.6,111.8,42.6,111.5,42.6z"/>
			<path fill="#FFFFFF" d="M108.3,50.1c-0.6,0-1.2-0.3-1.7-0.8c-0.5-0.5-0.8-1.1-0.8-1.7c0-0.3,0.1-0.6,0.2-1
				c0.1-0.5,0.2-0.7,0.2-0.7c0-0.1,0-0.1-0.1-0.1c0,0-0.1-0.1-0.2-0.1c0,0-0.1,0-0.3,0.2c-0.2,0.2-0.5,0.4-0.9,0.7
				c0,0-0.1,0.1-0.1,0.2c0,0.1-0.1,0.2-0.2,0.3l-0.1,0.1l0-0.1c-0.1-0.2-0.2-0.5-0.3-0.7c-0.1-0.2-0.2-0.5-0.3-0.7l0,0l0,0
				c0.1-0.1,0.1-0.2,0.2-0.3c0.1-0.1,0.2-0.3,0.3-0.4l0,0l1.2-0.8c0.2-0.2,0.4-0.4,0.7-0.7s0.7-0.6,1.1-1c0.1-0.1,0.1-0.3,0.3-0.4
				c0.1-0.2,0.3-0.3,0.4-0.5c0.2-0.1,0.3-0.3,0.4-0.4c0.1-0.1,0.3-0.2,0.4-0.4c0.2-0.2,0.3-0.3,0.5-0.5c0.1-0.2,0.3-0.3,0.4-0.5
				c0.2-0.2,0.4-0.3,0.5-0.4c0.2-0.1,0.4-0.1,0.6-0.1c0.2,0,0.4,0,0.6,0.1c0.1,0.1,0.2,0.2,0.2,0.3l0,0l0,0
				c-0.1,0.2-0.2,0.5-0.3,0.7l0,0.1c0.4-0.2,0.8-0.3,1.1-0.4c0.3-0.1,0.4-0.1,0.5-0.1c0.8,0,1.4,0.2,1.8,0.7
				c0.4,0.5,0.6,1.2,0.6,2.2c0,0.2,0,0.4-0.1,0.6c0,0.2-0.1,0.5-0.2,0.8c-0.1,0.3-0.2,0.6-0.3,0.8c-0.1,0.2-0.2,0.3-0.3,0.5
				c0,0.1,0.1,0.2,0.1,0.2c0.1,0.1,0.2,0.1,0.4,0c0.1-0.1,0.2-0.1,0.3-0.2l0.1-0.1l0,0.1c0.1,0.2,0.2,0.5,0.3,0.7
				c0.1,0.2,0.2,0.5,0.3,0.7l0,0l0,0c-0.2,0.2-0.4,0.3-0.6,0.5c-0.2,0.2-0.4,0.3-0.6,0.5c-0.2,0.2-0.5,0.4-0.7,0.4
				c-0.2,0.1-0.5,0.1-0.7,0.1c-0.3,0-0.5-0.1-0.6-0.2c-0.1-0.1-0.3-0.2-0.4-0.4c-0.3,0.3-0.6,0.6-0.9,0.9c-0.4,0.3-0.8,0.5-1.3,0.7
				c-0.3,0.1-0.5,0.2-0.7,0.3c-0.2,0.1-0.4,0.1-0.6,0.1c0,0-0.1,0-0.3,0.1C108.5,50.1,108.4,50.1,108.3,50.1z M106,45.5
				c0.1,0,0.2,0,0.2,0.1c0.1,0.1,0.1,0.1,0.1,0.2c0,0.1,0,0.2-0.2,0.8c-0.1,0.4-0.2,0.7-0.2,1c0,0.6,0.2,1.2,0.7,1.7
				c0.5,0.5,1,0.7,1.6,0.7c0.1,0,0.2,0,0.4-0.1c0.2,0,0.3-0.1,0.3-0.1c0.2,0,0.4,0,0.6-0.1c0.2-0.1,0.5-0.2,0.7-0.3
				c0.5-0.2,0.9-0.4,1.2-0.7c0.4-0.3,0.7-0.6,1-1l0.1-0.1l0,0.1c0.1,0.2,0.2,0.4,0.4,0.5c0.1,0.1,0.3,0.2,0.6,0.2
				c0.2,0,0.4,0,0.6-0.1c0.2-0.1,0.4-0.2,0.7-0.4c0.2-0.2,0.4-0.3,0.6-0.5c0.2-0.1,0.3-0.3,0.5-0.5c-0.1-0.2-0.2-0.5-0.3-0.7
				c-0.1-0.2-0.2-0.4-0.3-0.7c-0.1,0.1-0.2,0.1-0.3,0.2c-0.2,0.1-0.4,0.1-0.5,0c-0.1-0.1-0.1-0.2-0.2-0.3l0,0l0,0
				c0.1-0.1,0.2-0.2,0.3-0.4c0.1-0.2,0.2-0.5,0.3-0.8c0.1-0.3,0.2-0.5,0.2-0.8c0-0.2,0.1-0.5,0.1-0.6c0-0.9-0.2-1.6-0.6-2.1
				c-0.4-0.5-0.9-0.7-1.7-0.7c0,0-0.2,0-0.5,0.1c-0.3,0.1-0.6,0.2-1.1,0.4l0,0l-0.1-0.2l0,0c0.1-0.2,0.2-0.5,0.3-0.7
				c0-0.1-0.1-0.1-0.2-0.2c-0.1-0.1-0.3-0.1-0.5-0.1c-0.2,0-0.4,0-0.6,0.1c-0.2,0.1-0.3,0.2-0.5,0.3c-0.1,0.1-0.3,0.3-0.4,0.5
				c-0.1,0.2-0.3,0.3-0.5,0.5c-0.1,0.1-0.3,0.2-0.4,0.4c-0.1,0.1-0.3,0.2-0.4,0.4c-0.2,0.1-0.3,0.3-0.4,0.4
				c-0.1,0.1-0.2,0.3-0.3,0.4l0,0c-0.5,0.4-0.8,0.7-1.1,1c-0.3,0.3-0.5,0.5-0.7,0.7l0,0l-1.2,0.8c-0.1,0.1-0.2,0.3-0.3,0.4
				c-0.1,0.1-0.1,0.2-0.2,0.3c0.1,0.2,0.2,0.5,0.3,0.7c0.1,0.2,0.2,0.4,0.3,0.6c0.1-0.1,0.1-0.1,0.1-0.2c0-0.1,0.1-0.2,0.1-0.2
				c0.4-0.3,0.7-0.5,0.9-0.7C105.9,45.5,106,45.5,106,45.5z M109.5,47.9c-0.3,0-0.6-0.1-0.7-0.2c-0.2-0.2-0.2-0.4-0.2-0.7
				c0-0.2,0-0.4,0.1-0.6c0.1-0.2,0.1-0.5,0.3-0.9c0.1-0.4,0.2-0.7,0.4-0.9c0.1-0.2,0.3-0.3,0.4-0.3c0.2,0,0.3-0.1,0.4-0.1
				c0.1-0.1,0.2-0.2,0.4-0.3c0.2-0.3,0.4-0.5,0.5-0.8c0.1-0.2,0.2-0.3,0.3-0.4c0.1-0.1,0.2-0.2,0.3-0.2l0,0l0,0
				c0.3,0,0.6,0.1,0.8,0.1c0.2,0,0.3,0.1,0.4,0.1c0.1,0,0.2,0.2,0.3,0.4c0.1,0.2,0.2,0.4,0.3,0.8l0,0l0,0l-0.3,0.9
				c-0.1,0.2-0.1,0.4-0.2,0.5c-0.1,0.2-0.1,0.3-0.2,0.3c-0.1,0.2-0.3,0.4-0.5,0.6c-0.4,0.5-0.8,1-1.2,1.2
				C110.5,47.8,110,47.9,109.5,47.9z M111.5,42.6c0,0-0.1,0-0.2,0.1c-0.1,0.1-0.2,0.2-0.3,0.4c-0.1,0.2-0.3,0.5-0.5,0.8
				c-0.1,0.1-0.3,0.2-0.4,0.3c-0.1,0.1-0.3,0.1-0.5,0.2c-0.1,0-0.2,0.1-0.3,0.3c-0.1,0.2-0.2,0.5-0.3,0.8c-0.1,0.3-0.2,0.6-0.3,0.8
				c-0.1,0.2-0.1,0.4-0.1,0.6c0,0.3,0.1,0.5,0.2,0.6c0.1,0.1,0.4,0.2,0.6,0.2c0.5,0,0.9-0.1,1.3-0.4c0.4-0.3,0.8-0.7,1.1-1.2
				c0.2-0.2,0.3-0.4,0.5-0.6c0.1-0.1,0.1-0.2,0.2-0.3c0.1-0.1,0.1-0.3,0.2-0.5l0.3-0.9c-0.1-0.3-0.2-0.6-0.3-0.7
				c-0.1-0.2-0.2-0.3-0.2-0.3c0,0-0.1-0.1-0.3-0.1C112.1,42.7,111.8,42.7,111.5,42.6z"/>
		</g>
		<g>
			<path fill="#FFFFFF" d="M115.4,45.5c0-0.1,0.1-0.2,0.2-0.2c0.1-0.1,0.2-0.2,0.2-0.3c0.1-0.1,0.2-0.2,0.4-0.4
				c0.2-0.2,0.4-0.3,0.6-0.6c0.2-0.2,0.4-0.5,0.7-0.8c0.3-0.3,0.6-0.7,1-1.1c0.2-0.2,0.4-0.4,0.6-0.7s0.6-0.6,0.9-1
				c0.3-0.4,0.6-0.6,1-0.8c0.3-0.2,0.7-0.3,1.1-0.3s0.7,0.1,0.8,0.4c0.2,0.2,0.3,0.6,0.3,1c0,0.2-0.1,0.7-0.3,1.4
				c-0.2,0.7-0.5,1.6-0.8,2.7c-0.1,0.2-0.2,0.4-0.3,0.6c-0.1,0.1-0.1,0.3-0.1,0.4c0,0.1,0,0.2,0,0.2c0,0.1,0,0.1,0.1,0.2
				c0.1,0,0.1-0.1,0.2-0.1c0-0.1,0.1-0.1,0.2-0.2c0.1-0.2,0.2-0.3,0.4-0.5s0.4-0.4,0.6-0.6c0.1-0.2,0.2-0.4,0.4-0.5
				c0.2-0.2,0.3-0.3,0.5-0.5c0,0,0.1-0.1,0.2-0.2c0.1-0.1,0.2-0.2,0.2-0.3c0.1-0.1,0.3-0.3,0.5-0.4c0.2-0.1,0.4-0.3,0.7-0.5
				c0.3-0.1,0.5-0.3,0.8-0.4c0.2-0.1,0.4-0.1,0.6-0.1c0.3,0,0.6,0.1,0.9,0.2c0.3,0.2,0.5,0.4,0.7,0.7c0.2,0.7,0.4,1.3,0.6,1.8
				c0.1,0.3,0.2,0.6,0.4,0.7c0.1,0.2,0.3,0.2,0.5,0.2c0.1,0,0.3,0,0.4-0.1c0.1-0.1,0.2-0.1,0.3-0.2l0.6,1.5
				c-0.2,0.1-0.4,0.3-0.6,0.5c-0.2,0.2-0.4,0.3-0.6,0.5c-0.2,0.2-0.5,0.4-0.7,0.5c-0.2,0.1-0.4,0.1-0.6,0.1c-0.2,0-0.5-0.1-0.7-0.2
				c-0.2-0.1-0.4-0.3-0.6-0.5c-0.1-0.1-0.2-0.2-0.3-0.5s-0.3-0.5-0.4-0.9c-0.1-0.1-0.3-0.3-0.5-0.6s-0.4-0.5-0.6-0.8l-0.1,0
				c-0.2,0.1-0.4,0.2-0.6,0.3c-0.2,0.1-0.4,0.3-0.6,0.5c-0.5,0.4-0.8,0.7-1,0.8c-0.2,0.1-0.4,0.2-0.4,0.4c-0.1,0.3-0.4,0.6-0.8,1
				c-0.4,0.4-0.8,0.9-1.4,1.4c-0.1,0.1-0.3,0.3-0.4,0.4c-0.1,0.1-0.3,0.3-0.4,0.4c-0.1,0.1-0.3,0.2-0.5,0.2c-0.2,0-0.4,0.1-0.6,0.1
				c-0.4,0-0.7-0.1-0.7-0.4c0-0.3-0.1-0.6-0.1-0.9c0.2-0.4,0.3-1,0.5-1.7c0.2-0.7,0.4-1.5,0.7-2.3c0-0.1,0-0.1,0.1-0.2
				c0-0.1,0.1-0.2,0.1-0.4c0.1-0.1,0.1-0.3,0.1-0.4c0-0.1,0-0.2,0-0.3s0-0.1-0.1-0.2c-0.1,0-0.1-0.1-0.3-0.1c-0.1,0-0.2,0.1-0.4,0.2
				c-0.2,0.1-0.4,0.3-0.6,0.6c-0.3,0.3-0.5,0.6-0.7,0.7c-0.2,0.2-0.3,0.3-0.4,0.3c-0.1,0.1-0.2,0.2-0.4,0.3
				c-0.1,0.1-0.3,0.3-0.5,0.5c0,0-0.1,0.1-0.1,0.2c0,0.1-0.1,0.2-0.2,0.3c0-0.2-0.1-0.4-0.2-0.6C115.7,46.1,115.5,45.8,115.4,45.5z"
				/>
			<path fill="#FFFFFF" d="M118.9,50.7c-0.5,0-0.7-0.2-0.8-0.5c0-0.3-0.1-0.6-0.1-0.9l0,0l0,0c0.2-0.4,0.3-1,0.5-1.7
				c0.2-0.7,0.4-1.4,0.7-2.3c0-0.1,0-0.1,0.1-0.2c0-0.1,0.1-0.2,0.1-0.4c0.1-0.1,0.1-0.3,0.1-0.4c0-0.1,0-0.2,0-0.3
				c0-0.1,0-0.1-0.1-0.1c0,0-0.1-0.1-0.2-0.1c-0.1,0-0.2,0.1-0.4,0.2c-0.2,0.1-0.4,0.3-0.6,0.6c-0.3,0.3-0.5,0.6-0.7,0.8
				c-0.2,0.2-0.3,0.3-0.4,0.3c-0.1,0.1-0.2,0.2-0.4,0.3c-0.1,0.1-0.3,0.3-0.5,0.5c0,0-0.1,0.1-0.1,0.2c0,0.1-0.1,0.2-0.2,0.3
				l-0.1,0.1l0-0.1c0-0.2-0.1-0.4-0.2-0.6c-0.1-0.2-0.2-0.5-0.4-0.9l0,0l0,0c0-0.1,0.1-0.2,0.2-0.3c0.1-0.1,0.2-0.2,0.2-0.3l0,0
				c0.1-0.1,0.2-0.2,0.4-0.4c0.2-0.2,0.4-0.4,0.6-0.6c0.2-0.2,0.4-0.5,0.7-0.8l1-1.1c0.2-0.2,0.4-0.4,0.6-0.7c0.3-0.3,0.6-0.6,0.9-1
				c0.3-0.4,0.6-0.6,1-0.8c0.3-0.2,0.7-0.3,1.1-0.3c0.4,0,0.7,0.1,0.9,0.4c0.2,0.2,0.3,0.6,0.3,1.1c0,0.3-0.1,0.7-0.3,1.4
				c-0.2,0.7-0.5,1.6-0.8,2.7c-0.1,0.2-0.2,0.4-0.3,0.6c-0.1,0.1-0.1,0.3-0.1,0.4c0,0.1,0,0.2,0,0.2c0,0,0,0.1,0.1,0.2
				c0,0,0.1-0.1,0.1-0.1c0-0.1,0.1-0.1,0.2-0.2c0.1-0.2,0.2-0.3,0.4-0.5c0.2-0.2,0.4-0.4,0.6-0.6c0.1-0.2,0.2-0.4,0.4-0.5
				c0.2-0.2,0.3-0.3,0.5-0.5c0,0,0.1-0.1,0.2-0.2c0.1-0.1,0.2-0.2,0.3-0.3c0.1-0.1,0.3-0.3,0.5-0.4c0.2-0.1,0.4-0.3,0.7-0.5
				c0.3-0.2,0.6-0.3,0.8-0.4c0.2-0.1,0.4-0.1,0.6-0.1c0.3,0,0.6,0.1,0.9,0.2c0.3,0.2,0.5,0.4,0.7,0.8c0.2,0.6,0.4,1.2,0.6,1.8
				c0.1,0.3,0.2,0.6,0.4,0.7c0.1,0.1,0.3,0.2,0.4,0.2c0.1,0,0.2,0,0.3-0.1c0.1-0.1,0.2-0.1,0.3-0.2l0.1-0.1l0.7,1.6l0,0
				c-0.2,0.1-0.4,0.3-0.6,0.5c-0.1,0.1-0.3,0.2-0.4,0.4l-0.1,0.1c-0.2,0.2-0.5,0.4-0.7,0.5c-0.5,0.2-1,0.2-1.4,0
				c-0.2-0.1-0.4-0.3-0.6-0.5c-0.1-0.1-0.2-0.2-0.3-0.5c-0.1-0.2-0.3-0.5-0.4-0.8c-0.1-0.1-0.3-0.3-0.5-0.5
				c-0.2-0.2-0.4-0.5-0.6-0.8l-0.1,0c-0.2,0.1-0.4,0.2-0.6,0.3c-0.2,0.1-0.4,0.3-0.6,0.5c-0.5,0.4-0.8,0.7-1,0.8
				c-0.2,0.1-0.3,0.2-0.4,0.3c-0.2,0.3-0.4,0.6-0.8,1c-0.4,0.4-0.8,0.9-1.4,1.4c-0.1,0.1-0.3,0.3-0.4,0.4c-0.1,0.1-0.3,0.3-0.4,0.4
				c-0.1,0.1-0.3,0.2-0.5,0.3C119.3,50.6,119.1,50.7,118.9,50.7z M118.1,49.3c0,0.3,0.1,0.6,0.1,0.9c0,0.3,0.2,0.4,0.6,0.4
				c0.2,0,0.4,0,0.6-0.1c0.2,0,0.3-0.1,0.4-0.2c0.1-0.1,0.3-0.3,0.4-0.4c0.1-0.1,0.3-0.3,0.4-0.4c0.5-0.5,1-1,1.4-1.4
				c0.4-0.4,0.6-0.7,0.8-1c0.1-0.1,0.2-0.3,0.5-0.4c0.2-0.1,0.5-0.4,1-0.8c0.2-0.2,0.4-0.4,0.6-0.5c0.2-0.1,0.4-0.2,0.6-0.3l0,0
				l0.2,0.1l0,0c0.2,0.3,0.4,0.6,0.6,0.8c0.2,0.2,0.3,0.4,0.5,0.5l0,0c0.2,0.3,0.3,0.6,0.4,0.9c0.1,0.2,0.2,0.4,0.3,0.5
				c0.2,0.2,0.3,0.4,0.6,0.5c0.4,0.2,0.8,0.2,1.3,0c0.2-0.1,0.4-0.2,0.7-0.5l0.1-0.1c0.1-0.1,0.3-0.2,0.4-0.4
				c0.2-0.1,0.4-0.3,0.5-0.4l-0.6-1.3c-0.1,0.1-0.2,0.1-0.3,0.2c-0.1,0.1-0.3,0.1-0.4,0.1c-0.2,0-0.4-0.1-0.5-0.3
				c-0.1-0.2-0.3-0.4-0.4-0.8c-0.2-0.6-0.4-1.2-0.6-1.8c-0.2-0.3-0.4-0.6-0.6-0.7c-0.2-0.2-0.5-0.2-0.8-0.2c-0.2,0-0.4,0-0.6,0.1
				c-0.2,0.1-0.5,0.2-0.8,0.3c-0.2,0.2-0.5,0.3-0.7,0.5c-0.2,0.1-0.4,0.3-0.5,0.4c-0.1,0.1-0.2,0.2-0.2,0.3
				c-0.1,0.1-0.1,0.2-0.2,0.2c-0.2,0.2-0.4,0.3-0.5,0.5c-0.2,0.2-0.3,0.3-0.4,0.5l0,0c-0.2,0.2-0.5,0.4-0.6,0.6
				c-0.2,0.2-0.3,0.3-0.4,0.5c-0.1,0.1-0.1,0.1-0.2,0.2c-0.1,0.1-0.1,0.1-0.2,0.1l0,0l0,0c-0.1-0.1-0.1-0.2-0.1-0.3
				c0-0.1,0-0.1,0-0.3c0-0.1,0.1-0.2,0.1-0.4c0.1-0.2,0.2-0.4,0.3-0.6c0.4-1.1,0.7-2,0.8-2.7c0.2-0.7,0.3-1.2,0.3-1.4
				c0-0.4-0.1-0.8-0.3-1c-0.2-0.2-0.4-0.3-0.8-0.3c-0.4,0-0.7,0.1-1.1,0.2c-0.3,0.2-0.6,0.4-0.9,0.8c-0.4,0.4-0.7,0.7-0.9,1
				c-0.3,0.3-0.5,0.5-0.6,0.7l-1,1.1c-0.3,0.3-0.5,0.6-0.7,0.8c-0.2,0.2-0.4,0.4-0.6,0.6c-0.2,0.2-0.3,0.3-0.4,0.4
				c-0.1,0.1-0.2,0.2-0.2,0.3c-0.1,0.1-0.1,0.1-0.1,0.2c0.2,0.3,0.3,0.6,0.4,0.8c0.1,0.2,0.1,0.3,0.2,0.5c0.1-0.1,0.1-0.1,0.1-0.2
				c0-0.1,0.1-0.1,0.1-0.2l0,0c0.2-0.2,0.3-0.3,0.5-0.5c0.1-0.1,0.3-0.3,0.4-0.3c0,0,0.1-0.1,0.4-0.3c0.2-0.2,0.4-0.4,0.7-0.7
				c0.2-0.3,0.5-0.5,0.6-0.6c0.2-0.1,0.3-0.2,0.5-0.2c0.1,0,0.2,0,0.3,0.1c0.1,0.1,0.1,0.1,0.1,0.2c0,0.1,0,0.2,0,0.3
				c0,0.1-0.1,0.2-0.1,0.4c-0.1,0.1-0.1,0.3-0.1,0.4c0,0.1-0.1,0.2-0.1,0.2l0,0c-0.3,0.9-0.5,1.7-0.7,2.3
				C118.5,48.3,118.3,48.8,118.1,49.3z"/>
		</g>
		<g>
			<path fill="#FFFFFF" d="M130.6,45.5c0-0.1,0.1-0.2,0.2-0.2c0.1-0.1,0.2-0.2,0.2-0.3c0.3-0.4,0.5-0.7,0.6-1
				c0.2-0.3,0.3-0.5,0.4-0.6c0.1-0.3,0.3-0.6,0.4-0.9c0.1-0.3,0.2-0.6,0.2-0.9c0.2-1.5,0.6-3.2,1.1-4.9c0.5-1.7,1.2-3.6,2-5.6
				c0.3-0.7,0.6-1.2,1-1.6c0.3-0.4,0.7-0.5,1.1-0.5c0.3,0,0.5,0.1,0.7,0.2c0.2,0.1,0.3,0.3,0.3,0.5c0,0.1,0,0.3,0.1,0.5
				c0,0.2,0,0.5,0,0.9c0,0.1-0.1,0.8-0.3,2.3c-0.2,0.7-0.4,1.6-0.7,2.7c-0.3,1.1-0.7,2.3-1.1,3.7c-0.1,0.2-0.2,0.4-0.4,0.7
				c-0.1,0.3-0.3,0.7-0.5,1.1c0,0.1-0.1,0.2-0.1,0.3c0,0.1-0.1,0.3-0.2,0.4c-0.1,0.1-0.2,0.2-0.2,0.4c-0.1,0.2-0.2,0.4-0.3,0.6
				c-0.2,0.6-0.4,1.3-0.6,2.2c-0.2,0.9-0.3,2-0.5,3.2c-0.1,1.2-0.3,2.2-0.3,3.1c-0.1,0.9-0.1,1.7-0.1,2.4c0,0.3,0,0.5,0.1,0.8
				c0,0.3,0.1,0.6,0.1,0.8c0,0.2,0.1,0.3,0.2,0.3c0.1,0,0.4-0.3,0.7-1c0.3-0.7,0.7-1.6,1.2-2.9l0-0.3c0-0.1,0.1-0.2,0.2-0.4
				c0.1-0.1,0.1-0.3,0.2-0.6c0.3-0.9,0.5-1.5,0.6-2c0.1-0.5,0.2-0.7,0.2-0.8c0.1-0.4,0.3-0.8,0.6-1.2c0.2-0.4,0.5-0.8,0.8-1.1
				c0.2,0.3,0.3,0.6,0.4,0.8c0.1,0.2,0.2,0.5,0.3,0.6c-0.1,0.2-0.3,0.4-0.4,0.7c-0.1,0.3-0.3,0.6-0.3,1c-0.1,0.3-0.2,0.6-0.2,0.9
				c-0.1,0.3-0.1,0.6-0.2,0.9c-0.5,2-1.1,3.7-1.6,5.1c-0.5,1.3-1,2.3-1.5,3c-0.1,0.1-0.2,0.3-0.3,0.4c-0.1,0.1-0.2,0.3-0.3,0.4
				c-0.1,0.1-0.3,0.2-0.4,0.3c-0.1,0.1-0.3,0.1-0.4,0.1c-0.5,0-0.8-0.1-1.1-0.3c-0.3-0.2-0.5-0.5-0.6-0.9c-0.1-0.3-0.1-0.7-0.1-1
				c0-0.3-0.1-0.7-0.1-1c-0.1-0.2-0.1-0.4-0.1-0.7c0-0.2,0-0.5,0-0.8v-2.4c0-0.1,0-0.3,0.1-0.5c0-0.2,0.1-0.4,0.1-0.6
				c-0.1-0.3-0.1-0.6-0.2-1c0-0.4,0.1-0.8,0.2-1.4c0.1-0.6,0.2-1.2,0.3-1.9l-0.4-0.4c0-0.1-0.1-0.3-0.2-0.6
				C130.9,46.1,130.8,45.8,130.6,45.5z M136.9,34.8c-0.1,0-0.1,0-0.1,0.1c0,0.1-0.1,0.2-0.1,0.3c0,0.1,0,0.2-0.1,0.4
				c-0.1,0.2-0.1,0.4-0.3,0.7c-0.1,0.2-0.2,0.4-0.2,0.6c0,0.2-0.1,0.3-0.1,0.4l0.1,0.1l0.2-0.2c0-0.2,0.1-0.3,0.1-0.5
				c0.1-0.2,0.2-0.4,0.3-0.7c0.1-0.2,0.2-0.4,0.2-0.6c0.1-0.2,0.1-0.3,0.1-0.4c0-0.1,0-0.2,0-0.3C137,34.8,137,34.8,136.9,34.8z"/>
			<path fill="#FFFFFF" d="M133.3,59.9c-0.5,0-0.8-0.1-1.1-0.3c-0.3-0.2-0.5-0.5-0.6-0.9c-0.1-0.4-0.1-0.7-0.1-1
				c0-0.3-0.1-0.7-0.1-1c-0.1-0.2-0.1-0.4-0.1-0.7c0-0.2,0-0.5,0-0.8v-2.4c0-0.1,0-0.3,0.1-0.6c0-0.2,0.1-0.4,0.1-0.5
				c-0.1-0.3-0.1-0.6-0.2-1l0,0c0-0.4,0.1-0.8,0.2-1.4c0.1-0.6,0.2-1.2,0.3-1.9l-0.4-0.4l0,0c0-0.1-0.1-0.3-0.2-0.6
				c-0.1-0.2-0.2-0.5-0.4-0.9l0,0l0,0c0-0.1,0.1-0.2,0.2-0.3c0.1-0.1,0.2-0.2,0.2-0.3c0.2-0.4,0.5-0.7,0.6-1
				c0.2-0.3,0.3-0.5,0.4-0.6c0.1-0.3,0.3-0.6,0.4-0.9c0.1-0.3,0.2-0.6,0.2-0.9c0.2-1.5,0.6-3.2,1.1-4.9c0.5-1.7,1.2-3.6,2-5.6
				c0.3-0.7,0.6-1.2,1-1.6c0.4-0.4,0.7-0.6,1.1-0.6c0.3,0,0.5,0.1,0.7,0.2c0.2,0.1,0.3,0.3,0.4,0.6c0,0.1,0,0.3,0.1,0.5
				c0,0.2,0,0.5,0,0.9c0,0.1,0,0.4-0.3,2.3c-0.2,0.7-0.4,1.6-0.7,2.7c-0.3,1-0.7,2.3-1.1,3.7c-0.1,0.2-0.2,0.4-0.4,0.7
				c-0.1,0.3-0.3,0.7-0.5,1.1c0,0.1-0.1,0.2-0.1,0.3c0,0.1-0.1,0.3-0.2,0.4l0,0c-0.1,0.1-0.1,0.2-0.2,0.4c-0.1,0.2-0.2,0.4-0.3,0.6
				c-0.2,0.6-0.4,1.3-0.5,2.2c-0.2,0.9-0.3,2-0.5,3.2c-0.1,1.2-0.3,2.2-0.3,3.1c-0.1,0.9-0.1,1.7-0.1,2.4c0,0.2,0,0.5,0.1,0.8
				c0,0.3,0.1,0.6,0.1,0.8c0,0.2,0.1,0.2,0.1,0.2c0.1,0,0.2-0.1,0.6-0.9c0.3-0.6,0.7-1.6,1.2-2.9l0-0.3l0,0c0-0.1,0.1-0.2,0.2-0.4
				c0.1-0.1,0.1-0.3,0.2-0.6c0.3-0.9,0.5-1.5,0.6-2c0.2-0.6,0.2-0.8,0.2-0.8c0.1-0.4,0.3-0.8,0.6-1.2c0.2-0.4,0.5-0.8,0.8-1.2
				l0.1-0.1l0,0.1c0.2,0.3,0.3,0.6,0.4,0.9c0.1,0.3,0.2,0.5,0.3,0.6l0,0l0,0c-0.1,0.2-0.3,0.4-0.4,0.7c-0.1,0.3-0.2,0.6-0.3,1
				c-0.1,0.3-0.2,0.6-0.2,0.9c-0.1,0.3-0.1,0.6-0.2,0.9c-0.5,2-1.1,3.7-1.6,5.1c-0.5,1.3-1,2.4-1.5,3c-0.1,0.1-0.2,0.3-0.3,0.4
				c-0.1,0.1-0.2,0.3-0.3,0.4c-0.1,0.1-0.3,0.3-0.4,0.3C133.7,59.8,133.5,59.9,133.3,59.9z M131.3,50.7c0.1,0.3,0.1,0.6,0.2,1
				c0,0.1,0,0.3-0.1,0.6c0,0.2-0.1,0.4-0.1,0.5v2.4c0,0.3,0,0.5,0,0.7c0,0.2,0.1,0.4,0.1,0.7c0,0.3,0.1,0.7,0.1,1
				c0,0.3,0.1,0.7,0.1,1c0.1,0.4,0.3,0.7,0.5,0.9c0.3,0.2,0.6,0.3,1.1,0.3c0.1,0,0.3,0,0.4-0.1c0.1-0.1,0.3-0.2,0.4-0.3
				c0.1-0.1,0.2-0.3,0.3-0.4c0.1-0.1,0.2-0.3,0.3-0.4c0.5-0.7,0.9-1.7,1.4-3c0.5-1.3,1-3,1.6-5.1c0.1-0.3,0.1-0.6,0.2-0.9
				c0.1-0.3,0.2-0.6,0.2-0.9c0.1-0.3,0.2-0.7,0.3-1c0.1-0.3,0.3-0.5,0.4-0.7c-0.1-0.2-0.1-0.4-0.2-0.6c-0.1-0.2-0.2-0.5-0.3-0.8
				c-0.3,0.3-0.5,0.7-0.7,1.1c-0.2,0.4-0.4,0.8-0.6,1.2c0,0-0.1,0.2-0.2,0.8c-0.1,0.5-0.3,1.1-0.6,2c-0.1,0.2-0.1,0.4-0.2,0.6
				c-0.1,0.1-0.1,0.3-0.2,0.3l0,0.3l0,0c-0.5,1.3-0.9,2.3-1.2,2.9c-0.4,0.9-0.6,1-0.7,1c-0.1,0-0.2-0.2-0.2-0.3
				c0-0.2-0.1-0.4-0.1-0.8c0-0.3-0.1-0.5-0.1-0.8c0-0.7,0-1.5,0.1-2.4c0.1-0.9,0.2-2,0.3-3.1c0.1-1.2,0.3-2.3,0.5-3.2
				c0.2-0.9,0.4-1.7,0.6-2.3c0.1-0.3,0.2-0.5,0.3-0.6c0.1-0.2,0.2-0.3,0.2-0.4c0.1-0.1,0.1-0.3,0.1-0.4c0-0.1,0.1-0.2,0.1-0.3
				c0.2-0.4,0.4-0.8,0.5-1.1c0.1-0.3,0.3-0.5,0.4-0.7c0.5-1.4,0.8-2.6,1.1-3.7c0.3-1.1,0.5-1.9,0.7-2.7c0.2-1.4,0.3-2.2,0.3-2.3
				c0-0.4,0-0.7,0-0.9c0-0.2,0-0.4-0.1-0.5c-0.1-0.2-0.2-0.4-0.3-0.5c-0.2-0.1-0.4-0.2-0.6-0.2c-0.3,0-0.7,0.2-1,0.5
				c-0.3,0.4-0.7,0.9-0.9,1.6c-0.8,2-1.5,3.9-2,5.6c-0.5,1.7-0.9,3.4-1.1,4.9c-0.1,0.3-0.1,0.6-0.2,0.9c-0.1,0.3-0.2,0.6-0.4,0.9
				c-0.1,0.1-0.2,0.4-0.4,0.6c-0.2,0.3-0.4,0.6-0.6,1c-0.1,0.1-0.2,0.2-0.2,0.3c-0.1,0.1-0.1,0.1-0.1,0.2c0.2,0.4,0.3,0.6,0.4,0.9
				c0.1,0.2,0.2,0.4,0.2,0.6l0.4,0.4l0,0c-0.1,0.7-0.2,1.4-0.3,1.9C131.3,49.8,131.3,50.3,131.3,50.7z M136.1,37.6l-0.2-0.2v0
				c0-0.1,0-0.3,0.1-0.4c0-0.2,0.1-0.4,0.2-0.6c0.1-0.3,0.2-0.5,0.3-0.7c0.1-0.2,0.1-0.3,0.1-0.4c0.1-0.2,0.1-0.3,0.1-0.4
				c0-0.1,0.1-0.2,0.2-0.2c0.1,0,0.2,0.1,0.2,0.1c0,0.1,0.1,0.2,0.1,0.3c0,0.1,0,0.2-0.1,0.4c-0.1,0.2-0.1,0.4-0.2,0.6
				c-0.1,0.2-0.2,0.5-0.3,0.7c-0.1,0.2-0.1,0.4-0.1,0.5l0,0l0,0L136.1,37.6z M136.1,37.4L136.1,37.4l0.2-0.1c0-0.2,0.1-0.3,0.1-0.5
				c0.1-0.2,0.2-0.4,0.3-0.7c0.1-0.2,0.2-0.4,0.2-0.6c0.1-0.2,0.1-0.3,0.1-0.4c0-0.1,0-0.2,0-0.2c0,0,0,0-0.1,0c0,0-0.1,0-0.1,0.1
				c0,0.1-0.1,0.2-0.1,0.3c0,0.1,0,0.2-0.1,0.4c-0.1,0.2-0.1,0.4-0.3,0.7c-0.1,0.2-0.1,0.4-0.2,0.6
				C136.1,37.1,136.1,37.3,136.1,37.4z"/>
		</g>
		<g>
			<path fill="#FFFFFF" d="M138.3,45.5l0.1-0.1l0-0.2c0.3-0.4,0.8-0.9,1.5-1.5c0.7-0.6,1.2-1.1,1.5-1.5c0.1-0.2,0.2-0.3,0.4-0.4
				c0.1-0.1,0.3-0.1,0.4-0.1c0.4,0,0.7,0.1,0.9,0.3c0.3,0.2,0.4,0.5,0.5,0.8c0.1,0.3,0.1,0.7,0.2,1c0.1,0.3,0.1,0.7,0.2,1
				c0.1,0.2,0.2,0.5,0.3,1c0.1,0.4,0.2,0.7,0.2,0.7c0.1,0.1,0.1,0.2,0.2,0.2c0.1,0,0.2,0.1,0.4,0.1c0.2,0,0.4,0,0.6-0.1
				c0.2-0.1,0.4-0.2,0.6-0.4c0.2-0.1,0.3-0.3,0.5-0.4c0.2-0.1,0.3-0.3,0.5-0.4l0.6,1.5c-0.2,0.2-0.4,0.4-0.7,0.6
				c-0.3,0.2-0.6,0.5-1,0.8c-0.4,0.3-0.8,0.6-1.1,0.7c-0.3,0.2-0.5,0.2-0.7,0.2c-1,0-1.6-0.1-1.9-0.3c-0.3-0.2-0.6-0.8-1-1.9
				c0-0.1-0.1-0.2-0.2-0.3c-0.1-0.1-0.2-0.3-0.3-0.4c-0.1-0.2-0.2-0.4-0.3-0.6s-0.2-0.2-0.2-0.2c-0.2,0-0.4,0.1-0.7,0.3
				c-0.3,0.2-0.6,0.6-1.1,1c-0.1-0.1-0.1-0.3-0.2-0.5s-0.2-0.4-0.2-0.7c0-0.1,0-0.1-0.1-0.2S138.4,45.5,138.3,45.5z M145,32.9
				c0.3,0,0.5,0.1,0.6,0.2c0.1,0.1,0.2,0.3,0.2,0.5c-0.1,0.3-0.1,0.5-0.2,0.7c-0.1,0.4-0.2,0.7-0.3,0.9c-0.1,0.2-0.1,0.4-0.2,0.5
				c-0.1,0.2-0.2,0.4-0.4,0.6c-0.2,0.2-0.4,0.3-0.6,0.5c-0.2,0.2-0.4,0.3-0.6,0.4c-0.2,0.1-0.3,0.1-0.3,0.1c-0.2,0-0.4,0-0.5-0.1
				c-0.2,0-0.3,0-0.5,0c-0.1-0.1-0.2-0.2-0.3-0.4c-0.1-0.2-0.1-0.5-0.1-0.9c0-0.3,0.2-0.7,0.6-1.2c0.4-0.5,0.7-0.7,1-0.8
				c0.2-0.2,0.4-0.5,0.6-0.8c0.1-0.1,0.2-0.1,0.4-0.2C144.6,32.9,144.8,32.9,145,32.9z"/>
			<path fill="#FFFFFF" d="M144.6,49.3c-1,0-1.6-0.1-1.9-0.3c-0.3-0.2-0.6-0.9-1-1.9c0-0.1-0.1-0.2-0.2-0.3
				c-0.1-0.1-0.2-0.3-0.3-0.4c-0.1-0.2-0.2-0.4-0.3-0.5c-0.1-0.1-0.2-0.2-0.2-0.2c-0.2,0-0.4,0.1-0.6,0.3c-0.3,0.2-0.6,0.6-1,1
				l-0.1,0.1l0-0.1c-0.1-0.1-0.1-0.3-0.2-0.5c-0.1-0.2-0.2-0.4-0.2-0.7c0-0.1,0-0.1-0.1-0.2c0,0-0.1-0.1-0.1-0.1l-0.1,0l0.1-0.2
				l0.1-0.2c0.3-0.4,0.8-0.9,1.5-1.5c0.7-0.6,1.2-1.1,1.5-1.5c0.1-0.2,0.2-0.3,0.4-0.4s0.3-0.1,0.4-0.1c0.4,0,0.7,0.1,1,0.3
				c0.3,0.2,0.4,0.5,0.5,0.9c0.1,0.3,0.1,0.7,0.2,1c0.1,0.3,0.1,0.7,0.2,1c0.1,0.2,0.2,0.5,0.3,1c0.1,0.5,0.2,0.7,0.2,0.7
				c0.1,0.1,0.1,0.2,0.2,0.2c0.1,0,0.2,0.1,0.4,0.1c0.2,0,0.4,0,0.6-0.1c0.2-0.1,0.4-0.2,0.6-0.3c0.2-0.1,0.3-0.3,0.5-0.4
				c0.2-0.1,0.3-0.3,0.5-0.4l0.1-0.1l0.7,1.6l0,0c-0.2,0.2-0.4,0.4-0.7,0.6c-0.3,0.2-0.6,0.5-1,0.8c-0.4,0.3-0.8,0.6-1.1,0.7
				C145,49.2,144.7,49.3,144.6,49.3z M140.7,45.5c0.1,0,0.2,0.1,0.3,0.2c0.1,0.1,0.2,0.3,0.3,0.6c0.1,0.1,0.2,0.3,0.3,0.4
				c0.1,0.1,0.2,0.2,0.2,0.3c0.3,1,0.7,1.6,0.9,1.8c0.3,0.2,0.9,0.3,1.8,0.3c0.1,0,0.4-0.1,0.7-0.2c0.3-0.2,0.7-0.4,1.1-0.7
				c0.4-0.3,0.7-0.5,1-0.8c0.3-0.2,0.5-0.4,0.6-0.5l-0.6-1.4c-0.1,0.1-0.3,0.2-0.5,0.4c-0.2,0.1-0.3,0.3-0.5,0.4
				c-0.2,0.2-0.4,0.3-0.6,0.4c-0.2,0.1-0.4,0.1-0.6,0.1c-0.2,0-0.3,0-0.4-0.1c-0.1-0.1-0.2-0.1-0.3-0.3c0,0-0.1-0.2-0.2-0.8
				c-0.1-0.4-0.2-0.8-0.3-1c0-0.4-0.1-0.7-0.2-1c-0.1-0.3-0.1-0.7-0.2-1c-0.1-0.4-0.2-0.6-0.5-0.8c-0.2-0.2-0.5-0.3-0.9-0.3
				c-0.1,0-0.3,0-0.4,0.1c-0.1,0.1-0.2,0.2-0.3,0.3c-0.3,0.4-0.8,0.9-1.5,1.6c-0.7,0.6-1.2,1.1-1.5,1.5l-0.1,0.2l-0.1,0.1
				c0,0,0.1,0.1,0.1,0.1c0,0.1,0.1,0.1,0.1,0.2c0.1,0.3,0.2,0.5,0.2,0.7c0.1,0.2,0.1,0.3,0.2,0.4c0.4-0.4,0.7-0.7,1-1
				C140.3,45.6,140.5,45.5,140.7,45.5z M143.2,37.3C143.2,37.3,143.2,37.3,143.2,37.3c-0.2,0-0.4,0-0.6-0.1c-0.2,0-0.3,0-0.5,0l0,0
				c-0.2-0.1-0.3-0.2-0.4-0.5c-0.1-0.2-0.1-0.5-0.1-0.9c0-0.3,0.2-0.7,0.6-1.2c0.4-0.5,0.7-0.7,1-0.8c0.2-0.2,0.4-0.5,0.6-0.7l0,0
				c0.1-0.1,0.3-0.1,0.4-0.2c0.2,0,0.4-0.1,0.6-0.1c0.3,0,0.5,0.1,0.6,0.2c0.1,0.1,0.2,0.3,0.2,0.5c-0.1,0.3-0.1,0.6-0.2,0.8
				c-0.1,0.4-0.2,0.7-0.3,0.9c-0.1,0.2-0.1,0.4-0.2,0.5c-0.1,0.2-0.2,0.5-0.4,0.6c-0.2,0.2-0.4,0.3-0.6,0.5
				c-0.2,0.2-0.5,0.3-0.6,0.4C143.4,37.3,143.3,37.3,143.2,37.3z M142.2,37.1c0.2,0,0.3,0,0.5,0c0.2,0,0.3,0,0.5,0.1c0,0,0,0,0,0
				c0,0,0.1,0,0.3-0.1c0.2-0.1,0.4-0.2,0.6-0.4c0.2-0.1,0.4-0.3,0.6-0.5c0.2-0.2,0.3-0.4,0.4-0.6c0-0.1,0.1-0.3,0.2-0.5
				c0.1-0.2,0.2-0.5,0.3-0.9c0-0.2,0.1-0.4,0.2-0.7c0-0.2-0.1-0.3-0.2-0.4c-0.1-0.1-0.3-0.1-0.5-0.1c-0.2,0-0.4,0-0.6,0.1
				c-0.2,0-0.3,0.1-0.4,0.2c-0.2,0.3-0.5,0.5-0.6,0.8l0,0l0,0c-0.3,0-0.6,0.3-1,0.8c-0.4,0.5-0.6,0.9-0.6,1.2c0,0.4,0,0.6,0.1,0.8
				C142,36.9,142.1,37.1,142.2,37.1z"/>
		</g>
		<g>
			<path fill="#FFFFFF" d="M147.4,45.5l0.1-0.1l0-0.2c0.2-0.2,0.4-0.4,0.5-0.6c0.1-0.1,0.2-0.2,0.3-0.3c0.1-0.1,0.2-0.1,0.4-0.2
				c0.2-0.1,0.4-0.2,0.7-0.3l0.2-0.1c0.1-0.1,0.2-0.3,0.4-0.5c0.2-0.2,0.4-0.5,0.7-0.8c0.1-0.1,0.1-0.1,0.2-0.2
				c0.1-0.1,0.2-0.2,0.3-0.3c0.3-0.2,0.5-0.5,0.8-0.8s0.5-0.5,0.7-0.8c0.1-0.1,0.3-0.3,0.6-0.5s0.7-0.6,1.2-1
				c0.1-0.1,0.2-0.1,0.4-0.2c0.2-0.1,0.4-0.2,0.7-0.4c0.1-0.1,0.2-0.2,0.3-0.3c0.1-0.1,0.1-0.3,0.1-0.6c0.1-0.1,0.2-0.3,0.2-0.5
				c0.1-0.2,0.2-0.4,0.2-0.7c0.1-0.3,0.2-0.6,0.2-0.8c0.1-0.2,0.1-0.3,0.1-0.4c0.2-0.5,0.4-1,0.7-1.7c0.3-0.6,0.7-1.4,1.1-2.2
				c0.2-0.4,0.5-0.9,0.7-1.5c0.2-0.3,0.4-0.5,0.6-0.6s0.5-0.2,0.7-0.2c0.2,0,0.3,0.1,0.4,0.2c0.1,0.1,0.1,0.4,0.1,0.7
				c0,0.5,0,0.9-0.1,1.3c-0.1,0.4-0.2,0.8-0.4,1.2c0,0.1-0.1,0.2-0.1,0.3s0,0.3-0.1,0.5c0,0.1-0.1,0.3-0.1,0.4s-0.2,0.3-0.3,0.4
				c0,0.1,0,0.2,0,0.3c0,0.1,0,0.2-0.1,0.4l-0.2,0.3c0,0.1,0,0.1,0,0.2c0,0.1,0,0.2,0,0.3c0,0.1,0,0.2-0.1,0.4s-0.2,0.4-0.3,0.8
				c-0.2,0.4-0.3,0.6-0.4,0.9c-0.1,0.2-0.2,0.3-0.2,0.4c0,0.1-0.1,0.1-0.2,0.3c-0.1,0.1-0.2,0.2-0.2,0.4l0,0.4l-1,3.7
				c0,0.4,0,0.7,0,1c0,0.3,0,0.5,0.1,0.7c0.1,0.2,0.1,0.4,0.3,0.7s0.3,0.5,0.5,0.8c0.1,0.2,0.3,0.3,0.4,0.4s0.3,0.1,0.5,0.1
				c0.2,0,0.4-0.1,0.6-0.2c0.2-0.1,0.4-0.3,0.6-0.5c0.1,0.3,0.2,0.5,0.4,0.8c0.1,0.2,0.2,0.5,0.3,0.7c-0.1,0-0.2,0.1-0.3,0.3
				s-0.4,0.4-0.7,0.8c-0.2,0.2-0.4,0.3-0.6,0.4c-0.2,0.1-0.6,0.1-0.9,0.1c-0.8,0-1.4-0.2-1.9-0.6c-0.5-0.4-0.9-1-1.1-1.9
				c0-0.2-0.1-0.3-0.1-0.4c0-0.1-0.1-0.2-0.1-0.4c-0.1-0.2-0.2-0.4-0.4-0.7c-0.1,0.1-0.1,0.2-0.2,0.2c-0.1,0.1-0.3,0.2-0.4,0.4
				s-0.3,0.4-0.5,0.6c0,0.1-0.1,0.2-0.2,0.4s-0.2,0.3-0.4,0.6c-0.3,0.4-0.7,0.8-1,1.2s-0.7,0.8-1.1,1.2c-0.5,0.5-0.9,0.9-1.3,1.2
				s-0.8,0.4-1.1,0.4c-0.5,0-0.9-0.1-1.2-0.4s-0.4-0.6-0.4-1.2c0-0.2,0.1-0.6,0.3-1s0.3-0.8,0.3-1l-0.1-0.3L147.4,45.5z M155.5,40.9
				c0-0.1,0-0.1-0.1-0.2c-0.2,0.2-0.4,0.3-0.6,0.6c-0.2,0.2-0.5,0.4-0.8,0.7c-0.1,0.2-0.2,0.4-0.5,0.8c-0.3,0.4-0.6,0.8-1.1,1.4
				c-0.1,0.2-0.3,0.4-0.6,0.8c-0.2,0.4-0.5,0.9-0.9,1.4c-0.1,0.2-0.2,0.5-0.4,0.8c0,0.1,0,0.1,0.1,0.2c0.3-0.1,0.7-0.4,1.2-0.8
				c0.5-0.5,1-1.1,1.7-1.9c0.7-0.9,1.1-1.6,1.5-2.2C155.3,41.8,155.5,41.3,155.5,40.9z"/>
			<path fill="#FFFFFF" d="M149.2,50.8c-0.5,0-1-0.1-1.2-0.4c-0.3-0.3-0.4-0.7-0.4-1.2c0-0.3,0.1-0.6,0.3-1.1
				c0.2-0.4,0.3-0.7,0.3-0.9L148,47l-0.7-1.5l0.1-0.1l0.1-0.2c0.2-0.2,0.4-0.4,0.5-0.6c0.1-0.1,0.2-0.2,0.3-0.3
				c0.1-0.1,0.2-0.1,0.4-0.2c0.2-0.1,0.4-0.2,0.7-0.3l0.2-0.1c0.1-0.1,0.2-0.3,0.4-0.5c0.2-0.2,0.4-0.5,0.7-0.8
				c0.1-0.1,0.1-0.1,0.2-0.2c0.1-0.1,0.2-0.2,0.3-0.3c0.3-0.3,0.5-0.5,0.8-0.8c0.3-0.3,0.5-0.5,0.7-0.8c0.1-0.1,0.3-0.3,0.6-0.5
				c0.3-0.2,0.7-0.6,1.2-1c0.1-0.1,0.2-0.1,0.4-0.2c0.2-0.1,0.4-0.2,0.8-0.4c0.1-0.1,0.2-0.1,0.3-0.3c0.1-0.1,0.1-0.3,0.1-0.5v0l0,0
				c0.1-0.1,0.2-0.3,0.2-0.5c0.1-0.2,0.2-0.4,0.2-0.7c0.1-0.3,0.2-0.6,0.2-0.8c0.1-0.2,0.1-0.4,0.1-0.4c0.2-0.5,0.4-1,0.7-1.7
				c0.3-0.6,0.7-1.4,1.1-2.2c0.2-0.4,0.5-0.9,0.7-1.5c0.2-0.3,0.4-0.5,0.6-0.6c0.2-0.1,0.5-0.2,0.7-0.2c0.2,0,0.4,0.1,0.5,0.3
				c0.1,0.2,0.1,0.4,0.1,0.7c0,0.5,0,0.9-0.1,1.3c-0.1,0.4-0.2,0.8-0.4,1.2c0,0.1-0.1,0.2-0.1,0.3c0,0.1,0,0.3-0.1,0.5
				c0,0.2-0.1,0.3-0.1,0.5c-0.1,0.1-0.2,0.3-0.3,0.4c0,0.1,0,0.2,0,0.3c0,0.1,0,0.2-0.1,0.4l0,0l-0.2,0.3c0,0.1,0,0.1,0,0.2v0.3
				c0,0.1,0,0.2-0.1,0.4c-0.1,0.2-0.2,0.5-0.3,0.8c-0.2,0.4-0.3,0.7-0.4,0.9c-0.1,0.3-0.2,0.4-0.2,0.4l0,0c0,0.1-0.1,0.1-0.2,0.2
				c-0.1,0.1-0.1,0.2-0.2,0.4l0,0.3l0,0l-1,3.7c0,0.4,0,0.7,0,1c0,0.3,0,0.5,0.1,0.7c0.1,0.2,0.1,0.4,0.3,0.7
				c0.1,0.3,0.3,0.5,0.5,0.8c0.1,0.2,0.2,0.3,0.4,0.4c0.3,0.2,0.7,0.2,1.1,0c0.2-0.1,0.4-0.3,0.6-0.5l0.1-0.1l0,0.1
				c0.1,0.3,0.2,0.5,0.4,0.8c0.1,0.3,0.2,0.5,0.3,0.7l0,0l0,0c0,0-0.1,0.1-0.3,0.3c-0.2,0.2-0.4,0.4-0.7,0.8
				c-0.2,0.2-0.4,0.4-0.7,0.5c-0.3,0.1-0.6,0.1-0.9,0.1c-0.8,0-1.5-0.2-2-0.6c-0.5-0.4-0.9-1.1-1.1-1.9l-0.1-0.4
				c0-0.1-0.1-0.2-0.1-0.3c-0.1-0.2-0.2-0.4-0.3-0.6c-0.1,0.1-0.1,0.1-0.1,0.2l0,0c-0.1,0.1-0.3,0.2-0.4,0.4
				c-0.1,0.2-0.3,0.4-0.5,0.6c0,0.1-0.1,0.2-0.2,0.4c-0.1,0.2-0.2,0.3-0.4,0.6c-0.3,0.4-0.7,0.8-1,1.2c-0.4,0.4-0.7,0.8-1.1,1.2
				c-0.5,0.5-0.9,0.9-1.3,1.2C149.9,50.7,149.5,50.8,149.2,50.8z M147.5,45.5l0.6,1.4l0.1,0.3c0,0.2-0.1,0.6-0.3,1
				c-0.2,0.4-0.3,0.8-0.3,1c0,0.5,0.1,0.9,0.4,1.1c0.2,0.2,0.6,0.4,1.1,0.4c0.3,0,0.6-0.1,1-0.4c0.4-0.2,0.8-0.6,1.3-1.2
				c0.3-0.4,0.7-0.8,1.1-1.2c0.4-0.4,0.7-0.8,1-1.2c0.1-0.2,0.3-0.4,0.3-0.5c0.1-0.1,0.1-0.3,0.2-0.4l0,0c0.2-0.2,0.3-0.5,0.5-0.6
				c0.2-0.2,0.3-0.3,0.4-0.4c0-0.1,0.1-0.1,0.2-0.2l0-0.1l0.1,0.1c0.2,0.2,0.3,0.5,0.4,0.7c0,0.1,0.1,0.2,0.1,0.4l0.1,0.4
				c0.2,0.8,0.5,1.4,1,1.8c0.5,0.4,1.1,0.6,1.9,0.6c0.4,0,0.7,0,0.9-0.1c0.2-0.1,0.4-0.2,0.6-0.4c0.3-0.3,0.5-0.6,0.7-0.8
				c0.2-0.2,0.3-0.3,0.3-0.3c-0.1-0.2-0.2-0.4-0.3-0.6c-0.1-0.2-0.2-0.5-0.3-0.7c-0.2,0.2-0.4,0.4-0.6,0.5c-0.4,0.2-0.8,0.2-1.2,0
				c-0.2-0.1-0.3-0.2-0.4-0.5c-0.2-0.3-0.4-0.6-0.5-0.8c-0.1-0.3-0.2-0.5-0.3-0.7c-0.1-0.2-0.1-0.4-0.1-0.7c0-0.3,0-0.6,0-1l0,0
				l1-3.7l0-0.4l0,0c0.1-0.1,0.2-0.3,0.2-0.4c0.1-0.1,0.1-0.2,0.2-0.3c0,0,0-0.1,0.2-0.4c0.1-0.2,0.2-0.5,0.4-0.9
				c0.1-0.3,0.3-0.6,0.3-0.8c0.1-0.2,0.1-0.3,0.1-0.4V35c0-0.1,0-0.2,0-0.3l0,0l0.2-0.3c0-0.1,0-0.2,0.1-0.3c0-0.1,0-0.2,0-0.3v0
				l0,0c0.1-0.1,0.2-0.2,0.3-0.4c0.1-0.1,0.1-0.3,0.1-0.4c0-0.2,0-0.4,0.1-0.5c0-0.2,0.1-0.3,0.1-0.4c0.2-0.4,0.3-0.7,0.3-1.2
				c0.1-0.4,0.1-0.8,0.1-1.3c0-0.3,0-0.5-0.1-0.6c-0.1-0.1-0.2-0.2-0.4-0.2c-0.2,0-0.5,0.1-0.7,0.2c-0.2,0.1-0.4,0.3-0.6,0.6
				c-0.3,0.5-0.5,1-0.7,1.4c-0.4,0.8-0.8,1.6-1.1,2.2c-0.3,0.6-0.6,1.2-0.7,1.7c0,0.1-0.1,0.2-0.1,0.4c-0.1,0.2-0.1,0.5-0.2,0.8
				c-0.1,0.3-0.2,0.5-0.2,0.7c-0.1,0.2-0.2,0.4-0.2,0.5c0,0.2,0,0.4-0.1,0.6c-0.1,0.2-0.2,0.3-0.3,0.3c-0.3,0.1-0.6,0.3-0.7,0.4
				c-0.2,0.1-0.3,0.2-0.4,0.2c-0.5,0.4-0.9,0.8-1.2,1c-0.3,0.2-0.5,0.4-0.6,0.5c-0.2,0.2-0.5,0.5-0.7,0.8c-0.2,0.3-0.5,0.5-0.8,0.8
				c-0.1,0.1-0.2,0.2-0.3,0.3c-0.1,0.1-0.2,0.1-0.2,0.2c-0.3,0.3-0.5,0.5-0.7,0.8c-0.2,0.2-0.3,0.4-0.4,0.5l0,0l-0.2,0.1
				c-0.3,0.1-0.6,0.2-0.7,0.3c-0.2,0.1-0.3,0.1-0.3,0.2c-0.1,0.1-0.2,0.2-0.3,0.3c-0.1,0.1-0.3,0.3-0.5,0.5L147.5,45.5L147.5,45.5z
				 M150.7,47.5L150.7,47.5c-0.1-0.1-0.2-0.2-0.2-0.3l0,0c0.1-0.3,0.3-0.6,0.4-0.8l0-0.1c0.3-0.5,0.6-1,0.8-1.4
				c0.2-0.4,0.4-0.7,0.6-0.8c0.5-0.5,0.9-1,1.1-1.4c0.3-0.4,0.4-0.6,0.5-0.8l0,0c0.3-0.3,0.6-0.5,0.8-0.7c0.2-0.2,0.4-0.4,0.6-0.6
				l0.1-0.1l0,0.1c0,0.1,0.1,0.2,0.1,0.3c0,0.4-0.2,0.9-0.5,1.5c-0.3,0.6-0.8,1.4-1.5,2.2c-0.6,0.8-1.2,1.5-1.7,1.9
				C151.4,47.1,151,47.3,150.7,47.5L150.7,47.5z M150.6,47.2c0,0,0,0.1,0.1,0.1c0.3-0.1,0.7-0.4,1.1-0.8c0.5-0.5,1-1.1,1.6-1.9
				c0.7-0.9,1.1-1.6,1.5-2.2c0.3-0.6,0.5-1.1,0.5-1.4c0,0,0-0.1,0-0.1c-0.1,0.1-0.3,0.3-0.5,0.5c-0.2,0.2-0.5,0.4-0.8,0.7
				c-0.1,0.2-0.2,0.4-0.5,0.8c-0.3,0.4-0.6,0.8-1.1,1.4c-0.1,0.2-0.3,0.4-0.6,0.8c-0.2,0.4-0.5,0.8-0.8,1.4l0,0.1
				C150.9,46.6,150.7,46.9,150.6,47.2z"/>
		</g>
		<g>
			<path fill="#FFFFFF" d="M160.8,45.5c0.1-0.2,0.3-0.4,0.5-0.7c0.2-0.2,0.5-0.5,0.8-0.7c0-0.2,0.1-0.4,0.1-0.6
				c0-0.2,0.1-0.4,0.1-0.6c0-0.1,0.1-0.3,0.2-0.5c0.1-0.2,0.1-0.4,0.2-0.7c0.1-0.2,0.2-0.5,0.4-0.9c0.2-0.4,0.4-0.7,0.6-1.2
				c0.2-0.2,0.5-0.5,0.7-0.8c0.2-0.3,0.5-0.6,0.7-0.9c0.1-0.1,0.2-0.2,0.4-0.3c0.1-0.1,0.3-0.2,0.4-0.3c0.1,0,0.3-0.1,0.4-0.1
				c0.2,0,0.3,0,0.5,0c0.3,0,0.5,0,0.6,0.1c0.2,0.1,0.3,0.1,0.4,0.3c0.1,0.1,0.1,0.2,0.2,0.4s0.1,0.4,0.2,0.6c0,0.2,0.1,0.4,0.1,0.7
				c0-0.1,0,0-0.1,0.1c0,0.1-0.1,0.3-0.2,0.6l-0.1,0.5c-0.1,0.5-0.5,1.1-1,1.8s-1.2,1.4-2.1,2.3c-0.1,0.1-0.1,0.2-0.2,0.3
				c-0.1,0.1-0.1,0.2-0.1,0.4c0,0.2,0,0.4,0.1,0.6c0.1,0.2,0.2,0.3,0.3,0.4c0.1,0.1,0.2,0.1,0.4,0.2c0.2,0.1,0.4,0.1,0.7,0.2
				c0.4,0,0.8-0.1,1.1-0.2c0.3-0.1,0.6-0.2,0.9-0.4c0.1,0,0.1-0.1,0.3-0.1c0.1-0.1,0.2-0.1,0.4-0.2c0.1,0.3,0.3,0.6,0.4,0.8
				c0.1,0.2,0.2,0.5,0.3,0.6c-0.6,0.6-1.2,1-1.7,1.3c-0.5,0.3-0.9,0.5-1.4,0.5c-0.2,0.1-0.4,0.2-0.6,0.2c-0.2,0-0.5,0.1-0.8,0.1
				c-0.4,0-0.7-0.1-1-0.2s-0.6-0.3-0.8-0.5c-0.1-0.1-0.2-0.3-0.3-0.5c-0.1-0.2-0.2-0.5-0.3-0.7c-0.1-0.2-0.2-0.4-0.3-0.5
				s-0.2-0.2-0.3-0.2c-0.1,0-0.2,0-0.3,0.1c-0.1,0.1-0.2,0.2-0.4,0.4c0-0.2-0.1-0.4-0.2-0.6C161.1,46.1,160.9,45.8,160.8,45.5z
				 M165.9,40.3c-0.2,0-0.5,0.3-0.9,0.9c-0.4,0.6-0.6,1.1-0.6,1.3c0,0.1,0,0.1,0,0.1c0,0,0.1,0,0.2,0c0.1,0,0.2-0.1,0.3-0.2
				s0.1-0.2,0.2-0.3c0.1-0.1,0.2-0.2,0.3-0.3c0.1-0.1,0.2-0.2,0.3-0.4c0.1-0.1,0.2-0.3,0.3-0.4c0.1-0.1,0.1-0.3,0.1-0.4
				c0-0.1,0-0.2-0.1-0.2C166,40.3,165.9,40.3,165.9,40.3z"/>
			<path fill="#FFFFFF" d="M165.1,49.1c-0.4,0-0.8-0.1-1.1-0.2c-0.3-0.1-0.6-0.3-0.8-0.5c-0.1-0.1-0.2-0.3-0.3-0.5
				c-0.1-0.2-0.2-0.5-0.3-0.7c-0.1-0.2-0.2-0.4-0.3-0.5c-0.1-0.2-0.3-0.2-0.5,0c-0.1,0.1-0.2,0.2-0.3,0.3l-0.1,0.1l0-0.1
				c0-0.2-0.1-0.3-0.2-0.6c-0.1-0.2-0.2-0.5-0.4-0.9l0,0l0,0c0.1-0.2,0.3-0.5,0.5-0.7c0.2-0.2,0.5-0.5,0.8-0.7
				c0-0.2,0.1-0.4,0.1-0.6c0-0.2,0.1-0.4,0.1-0.6c0-0.2,0.1-0.3,0.2-0.5c0.1-0.2,0.1-0.4,0.2-0.7c0.1-0.2,0.2-0.5,0.4-0.9
				c0.2-0.4,0.4-0.7,0.6-1.2c0.2-0.3,0.5-0.5,0.7-0.8c0.2-0.3,0.5-0.6,0.7-0.9c0.1-0.1,0.3-0.2,0.4-0.3c0.1-0.1,0.3-0.2,0.4-0.3l0,0
				c0.1,0,0.3-0.1,0.4-0.1c0.2,0,0.3,0,0.5,0c0.3,0,0.5,0,0.7,0.1c0.2,0.1,0.3,0.2,0.4,0.3c0.1,0.1,0.2,0.2,0.2,0.4
				c0.1,0.2,0.1,0.4,0.2,0.6c0,0.2,0.1,0.4,0.1,0.7c0,0,0,0,0,0l0,0.1l-0.1,0c0,0,0,0,0,0c0,0.1-0.1,0.3-0.2,0.6l-0.1,0.5
				c-0.2,0.5-0.5,1.1-1,1.8c-0.5,0.7-1.2,1.4-2.1,2.3c-0.1,0.1-0.1,0.2-0.2,0.3c0,0.1-0.1,0.2-0.1,0.3c0,0.2,0,0.4,0.1,0.6
				c0.1,0.2,0.2,0.3,0.3,0.4c0.1,0.1,0.2,0.1,0.4,0.2c0.2,0.1,0.4,0.1,0.6,0.2c0.4,0,0.8-0.1,1.1-0.2c0.3-0.1,0.6-0.2,0.9-0.4
				c0.1,0,0.1-0.1,0.3-0.1c0.1-0.1,0.2-0.1,0.3-0.2l0.1-0.1l0,0.1c0.1,0.3,0.3,0.6,0.4,0.8c0.1,0.3,0.2,0.5,0.3,0.6l0,0l0,0
				c-0.6,0.6-1.2,1.1-1.7,1.4c-0.5,0.3-1,0.5-1.4,0.5c-0.2,0.1-0.4,0.2-0.6,0.2C165.6,49.1,165.4,49.1,165.1,49.1z M162,46.4
				c0.1,0,0.2,0.1,0.3,0.2c0.1,0.1,0.2,0.3,0.3,0.5c0.1,0.3,0.2,0.5,0.3,0.7c0.1,0.2,0.2,0.4,0.3,0.5c0.2,0.2,0.4,0.4,0.7,0.5
				c0.3,0.1,0.6,0.2,1,0.2c0.3,0,0.5,0,0.8-0.1c0.2,0,0.4-0.1,0.6-0.2l0,0h0c0.4,0,0.8-0.1,1.3-0.4c0.5-0.3,1-0.7,1.6-1.3
				c-0.1-0.2-0.1-0.4-0.2-0.6c-0.1-0.2-0.2-0.5-0.3-0.8c-0.1,0.1-0.2,0.1-0.3,0.2c-0.1,0.1-0.2,0.1-0.3,0.1
				c-0.3,0.2-0.6,0.3-0.9,0.4c-0.3,0.1-0.7,0.2-1.1,0.2l0,0c-0.3-0.1-0.5-0.1-0.7-0.2c-0.2-0.1-0.3-0.1-0.4-0.2
				c-0.2-0.1-0.3-0.2-0.4-0.4c-0.1-0.2-0.1-0.4-0.1-0.6c0-0.1,0-0.3,0.1-0.4c0.1-0.1,0.1-0.2,0.2-0.3c0.9-0.9,1.6-1.6,2.1-2.3
				c0.5-0.7,0.8-1.2,1-1.8l0.1-0.5c0.1-0.3,0.1-0.4,0.2-0.6c0-0.1,0-0.1,0-0.1l0-0.1c0-0.2-0.1-0.4-0.1-0.5
				c-0.1-0.2-0.1-0.4-0.2-0.6c-0.1-0.2-0.1-0.3-0.2-0.4c-0.1-0.1-0.2-0.2-0.4-0.3c-0.2-0.1-0.4-0.1-0.6-0.1c-0.2,0-0.4,0-0.5,0
				c-0.1,0-0.3,0.1-0.4,0.1c-0.1,0.1-0.3,0.2-0.4,0.3c-0.1,0.1-0.3,0.2-0.4,0.3c-0.2,0.3-0.5,0.6-0.7,0.9c-0.2,0.3-0.5,0.6-0.7,0.8
				c-0.3,0.4-0.5,0.8-0.6,1.2c-0.2,0.3-0.3,0.6-0.4,0.9c-0.1,0.2-0.2,0.4-0.2,0.7c-0.1,0.2-0.1,0.4-0.1,0.5c0,0.2,0,0.4-0.1,0.6
				c0,0.2-0.1,0.4-0.1,0.6l0,0l0,0c-0.3,0.2-0.6,0.5-0.8,0.7c-0.2,0.2-0.3,0.4-0.5,0.6c0.2,0.4,0.3,0.6,0.4,0.8
				c0.1,0.2,0.1,0.3,0.2,0.5c0.1-0.1,0.2-0.2,0.3-0.3C161.8,46.5,161.9,46.4,162,46.4z M164.5,42.8c-0.1,0-0.2,0-0.2-0.1
				c0,0-0.1-0.1-0.1-0.2c0-0.3,0.2-0.8,0.6-1.4c0.4-0.6,0.7-0.9,1-0.9c0.1,0,0.2,0,0.2,0.1c0,0.1,0.1,0.2,0.1,0.3
				c0,0.2,0,0.3-0.1,0.5c-0.1,0.2-0.2,0.3-0.3,0.5c-0.1,0.1-0.2,0.2-0.3,0.4c-0.1,0.1-0.2,0.2-0.3,0.3c-0.1,0.1-0.1,0.2-0.2,0.3
				C164.8,42.7,164.7,42.8,164.5,42.8z M165.9,40.4c-0.1,0-0.4,0.2-0.9,0.9c-0.4,0.6-0.6,1-0.6,1.3c0,0.1,0,0.1,0,0.1c0,0,0,0,0.1,0
				c0.1,0,0.2-0.1,0.2-0.2c0.1-0.1,0.1-0.2,0.2-0.3l0,0c0.1-0.1,0.2-0.2,0.3-0.3c0.1-0.1,0.2-0.2,0.3-0.4c0.1-0.1,0.2-0.3,0.3-0.4
				c0.1-0.1,0.1-0.3,0.1-0.4c0-0.1,0-0.2,0-0.2C166,40.4,165.9,40.4,165.9,40.4z"/>
		</g>
		<g>
			<path fill="#FFFFFF" d="M168.8,45.5c0-0.1,0.1-0.2,0.2-0.2c0.1-0.1,0.2-0.2,0.2-0.3c0.1-0.1,0.2-0.2,0.4-0.4
				c0.2-0.2,0.4-0.3,0.6-0.6c0.2-0.2,0.4-0.5,0.7-0.8s0.6-0.7,1-1.1c0.2-0.2,0.4-0.4,0.6-0.7s0.6-0.6,0.9-1c0.3-0.4,0.6-0.6,1-0.8
				c0.3-0.2,0.7-0.3,1.1-0.3s0.7,0.1,0.8,0.4c0.2,0.2,0.3,0.6,0.3,1c0,0.2-0.1,0.7-0.3,1.4c-0.2,0.7-0.5,1.6-0.8,2.7
				c-0.1,0.2-0.2,0.4-0.3,0.6c-0.1,0.1-0.1,0.3-0.1,0.4c0,0.1,0,0.2,0,0.2c0,0.1,0,0.1,0.1,0.2c0.1,0,0.1-0.1,0.2-0.1
				s0.1-0.1,0.2-0.2c0.1-0.2,0.2-0.3,0.4-0.5c0.2-0.2,0.4-0.4,0.6-0.6c0.1-0.2,0.2-0.4,0.4-0.5s0.3-0.3,0.5-0.5c0,0,0.1-0.1,0.2-0.2
				c0.1-0.1,0.2-0.2,0.2-0.3c0.1-0.1,0.3-0.3,0.5-0.4c0.2-0.1,0.4-0.3,0.7-0.5c0.3-0.1,0.5-0.3,0.8-0.4s0.4-0.1,0.6-0.1
				c0.3,0,0.6,0.1,0.9,0.2c0.3,0.2,0.5,0.4,0.7,0.7c0.2,0.7,0.4,1.3,0.6,1.8c0.1,0.3,0.2,0.6,0.4,0.7c0.1,0.2,0.3,0.2,0.5,0.2
				c0.1,0,0.3,0,0.4-0.1c0.1-0.1,0.2-0.1,0.3-0.2l0.6,1.5c-0.2,0.1-0.4,0.3-0.6,0.5c-0.2,0.2-0.4,0.3-0.6,0.5
				c-0.2,0.2-0.5,0.4-0.7,0.5c-0.2,0.1-0.4,0.1-0.6,0.1c-0.2,0-0.5-0.1-0.7-0.2c-0.2-0.1-0.4-0.3-0.6-0.5c-0.1-0.1-0.2-0.2-0.3-0.5
				s-0.3-0.5-0.4-0.9c-0.1-0.1-0.3-0.3-0.5-0.6s-0.4-0.5-0.6-0.8l-0.1,0c-0.2,0.1-0.4,0.2-0.6,0.3c-0.2,0.1-0.4,0.3-0.6,0.5
				c-0.5,0.4-0.8,0.7-1,0.8c-0.2,0.1-0.4,0.2-0.4,0.4c-0.1,0.3-0.4,0.6-0.8,1c-0.4,0.4-0.8,0.9-1.4,1.4c-0.1,0.1-0.3,0.3-0.4,0.4
				c-0.1,0.1-0.3,0.3-0.4,0.4c-0.1,0.1-0.3,0.2-0.5,0.2c-0.2,0-0.4,0.1-0.6,0.1c-0.4,0-0.7-0.1-0.7-0.4c0-0.3-0.1-0.6-0.1-0.9
				c0.2-0.4,0.3-1,0.5-1.7s0.4-1.5,0.7-2.3c0-0.1,0-0.1,0.1-0.2c0-0.1,0.1-0.2,0.1-0.4c0.1-0.1,0.1-0.3,0.1-0.4c0-0.1,0-0.2,0-0.3
				s0-0.1-0.1-0.2s-0.1-0.1-0.3-0.1c-0.1,0-0.2,0.1-0.4,0.2c-0.2,0.1-0.4,0.3-0.6,0.6c-0.3,0.3-0.5,0.6-0.7,0.7s-0.3,0.3-0.4,0.3
				c-0.1,0.1-0.2,0.2-0.4,0.3c-0.1,0.1-0.3,0.3-0.5,0.5c0,0-0.1,0.1-0.1,0.2s-0.1,0.2-0.2,0.3c0-0.2-0.1-0.4-0.2-0.6
				C169.1,46.1,169,45.8,168.8,45.5z"/>
			<path fill="#FFFFFF" d="M172.3,50.7c-0.5,0-0.7-0.2-0.8-0.5c0-0.3-0.1-0.6-0.1-0.9l0,0l0,0c0.2-0.4,0.3-1,0.5-1.7
				c0.2-0.7,0.4-1.4,0.7-2.3c0-0.1,0-0.1,0.1-0.2c0-0.1,0.1-0.2,0.1-0.4c0.1-0.1,0.1-0.3,0.1-0.4c0-0.1,0-0.2,0-0.3
				c0-0.1,0-0.1-0.1-0.1c0,0-0.1-0.1-0.2-0.1c-0.1,0-0.2,0-0.4,0.2c-0.2,0.1-0.4,0.3-0.6,0.6c-0.3,0.3-0.5,0.6-0.7,0.8
				c-0.2,0.2-0.3,0.3-0.4,0.3c-0.1,0.1-0.2,0.2-0.4,0.3c-0.1,0.1-0.3,0.3-0.5,0.5c0,0-0.1,0.1-0.1,0.2c0,0.1-0.1,0.2-0.2,0.3
				l-0.1,0.1l0-0.1c0-0.2-0.1-0.3-0.2-0.6c-0.1-0.2-0.2-0.5-0.4-0.9l0,0l0,0c0-0.1,0.1-0.2,0.2-0.3c0.1-0.1,0.2-0.2,0.2-0.3
				c0.1-0.1,0.3-0.2,0.4-0.4c0.2-0.2,0.4-0.4,0.6-0.6c0.2-0.2,0.4-0.5,0.7-0.8c0.3-0.3,0.6-0.7,1-1.1c0.2-0.2,0.4-0.4,0.6-0.7
				c0.3-0.3,0.6-0.6,0.9-1c0.3-0.4,0.6-0.6,1-0.8c0.3-0.2,0.7-0.3,1.1-0.3c0.4,0,0.7,0.1,0.9,0.4c0.2,0.2,0.3,0.6,0.3,1.1
				c0,0.3-0.1,0.7-0.3,1.4c-0.2,0.7-0.5,1.6-0.8,2.7c-0.1,0.2-0.2,0.4-0.3,0.6c-0.1,0.1-0.1,0.3-0.1,0.4c0,0.1,0,0.2,0,0.2
				c0,0,0,0.1,0.1,0.2c0,0,0.1-0.1,0.1-0.1c0-0.1,0.1-0.1,0.2-0.2c0.1-0.2,0.2-0.3,0.4-0.5c0.2-0.2,0.4-0.4,0.6-0.6
				c0.1-0.2,0.2-0.4,0.4-0.5c0.2-0.2,0.3-0.3,0.5-0.5c0,0,0.1-0.1,0.2-0.2c0.1-0.1,0.2-0.2,0.3-0.3c0.1-0.1,0.3-0.3,0.5-0.4
				c0.2-0.1,0.4-0.3,0.7-0.5c0.3-0.2,0.6-0.3,0.8-0.4c0.2-0.1,0.4-0.1,0.6-0.1c0.3,0,0.6,0.1,0.9,0.2c0.3,0.2,0.5,0.4,0.7,0.8
				c0.2,0.7,0.4,1.3,0.6,1.8c0.1,0.3,0.2,0.6,0.4,0.7c0.1,0.1,0.3,0.2,0.4,0.2c0.1,0,0.2,0,0.3-0.1c0.1-0.1,0.2-0.1,0.3-0.2l0.1-0.1
				l0.7,1.6l0,0c-0.2,0.1-0.4,0.3-0.6,0.5c-0.2,0.2-0.4,0.3-0.6,0.5c-0.2,0.2-0.5,0.4-0.7,0.5c-0.5,0.2-1,0.2-1.4,0
				c-0.2-0.1-0.4-0.3-0.6-0.5c-0.1-0.1-0.2-0.2-0.3-0.5c-0.1-0.2-0.3-0.5-0.4-0.8c-0.1-0.1-0.3-0.3-0.5-0.5
				c-0.2-0.2-0.4-0.5-0.6-0.8l-0.1,0c-0.2,0.1-0.4,0.2-0.6,0.3c-0.2,0.1-0.4,0.3-0.6,0.5c-0.5,0.4-0.8,0.7-1.1,0.8
				c-0.2,0.1-0.3,0.2-0.4,0.3c-0.2,0.3-0.4,0.6-0.8,1c-0.4,0.4-0.8,0.9-1.4,1.4c-0.1,0.1-0.3,0.3-0.4,0.4c-0.1,0.1-0.3,0.3-0.4,0.4
				c-0.1,0.1-0.3,0.2-0.5,0.3C172.7,50.6,172.5,50.7,172.3,50.7z M171.6,49.3c0,0.3,0.1,0.6,0.1,0.9c0,0.3,0.2,0.4,0.6,0.4
				c0.2,0,0.4,0,0.6-0.1c0.2,0,0.3-0.1,0.4-0.2c0.1-0.1,0.3-0.3,0.4-0.4c0.1-0.1,0.3-0.3,0.4-0.4c0.5-0.5,1-1,1.4-1.4
				c0.4-0.4,0.6-0.7,0.8-1c0.1-0.1,0.2-0.3,0.5-0.4c0.2-0.1,0.5-0.4,1-0.8c0.2-0.2,0.4-0.4,0.6-0.5c0.2-0.1,0.4-0.2,0.6-0.3l0,0
				l0.2,0.1l0,0c0.2,0.3,0.4,0.6,0.6,0.8c0.2,0.2,0.3,0.4,0.5,0.5l0,0c0.2,0.3,0.3,0.6,0.4,0.9c0.1,0.2,0.2,0.4,0.3,0.5
				c0.2,0.2,0.3,0.4,0.6,0.5c0.4,0.2,0.8,0.2,1.3,0c0.2-0.1,0.4-0.2,0.7-0.5c0.2-0.2,0.4-0.3,0.6-0.5c0.2-0.1,0.4-0.3,0.5-0.4
				l-0.6-1.3c-0.1,0.1-0.2,0.1-0.3,0.2c-0.1,0.1-0.3,0.1-0.4,0.1c-0.2,0-0.4-0.1-0.5-0.3c-0.1-0.2-0.3-0.4-0.4-0.8
				c-0.2-0.6-0.4-1.2-0.6-1.8c-0.2-0.3-0.4-0.6-0.6-0.7c-0.2-0.2-0.5-0.2-0.8-0.2c-0.2,0-0.4,0-0.6,0.1c-0.2,0.1-0.5,0.2-0.8,0.3
				c-0.2,0.2-0.5,0.3-0.7,0.5c-0.2,0.1-0.4,0.3-0.5,0.4c-0.1,0.1-0.2,0.2-0.2,0.3c-0.1,0.1-0.1,0.2-0.2,0.2
				c-0.2,0.2-0.4,0.3-0.5,0.5c-0.2,0.2-0.3,0.3-0.4,0.5l0,0c-0.2,0.2-0.5,0.4-0.6,0.6c-0.2,0.2-0.3,0.3-0.4,0.5
				c-0.1,0.1-0.1,0.1-0.2,0.2c-0.1,0.1-0.1,0.1-0.2,0.1l0,0l0,0c-0.1-0.1-0.1-0.2-0.1-0.3c0-0.1,0-0.1,0-0.3c0-0.1,0.1-0.2,0.1-0.4
				c0.1-0.2,0.2-0.4,0.3-0.6c0.4-1.1,0.7-2,0.8-2.7c0.2-0.7,0.3-1.1,0.3-1.4c0-0.4-0.1-0.8-0.3-1c-0.2-0.2-0.4-0.3-0.8-0.3
				c-0.4,0-0.7,0.1-1.1,0.2c-0.3,0.2-0.6,0.4-0.9,0.8c-0.4,0.4-0.7,0.7-0.9,1c-0.3,0.3-0.5,0.5-0.6,0.7c-0.4,0.4-0.7,0.8-1,1.1
				c-0.3,0.3-0.5,0.6-0.7,0.8c-0.2,0.2-0.4,0.4-0.6,0.6c-0.2,0.2-0.3,0.3-0.4,0.4c-0.1,0.1-0.2,0.2-0.2,0.3
				c-0.1,0.1-0.1,0.1-0.1,0.2c0.2,0.4,0.3,0.6,0.4,0.8c0.1,0.2,0.1,0.4,0.2,0.5c0.1-0.1,0.1-0.1,0.1-0.2c0-0.1,0.1-0.1,0.1-0.2l0,0
				c0.2-0.2,0.3-0.3,0.5-0.5c0.1-0.1,0.3-0.3,0.4-0.3c0,0,0.1-0.1,0.4-0.3c0.2-0.2,0.4-0.4,0.7-0.7c0.2-0.3,0.5-0.5,0.6-0.6
				c0.2-0.1,0.3-0.2,0.5-0.2c0.1,0,0.2,0,0.3,0.1c0.1,0.1,0.1,0.1,0.1,0.2c0,0.1,0,0.2,0,0.3c0,0.1-0.1,0.2-0.1,0.4
				c-0.1,0.2-0.1,0.3-0.1,0.4c0,0.1-0.1,0.1-0.1,0.2l0,0c-0.3,0.9-0.5,1.7-0.7,2.3C171.9,48.3,171.7,48.8,171.6,49.3z"/>
		</g>
		<g>
			<path fill="#FFFFFF" d="M184,45.5l0.1-0.1c0.1-0.1,0.1-0.2,0.2-0.3s0.2-0.3,0.4-0.4c0.8-0.7,1.5-1.5,2.2-2.5
				c0.7-1,1.4-2.1,2.1-3.4c0.1-0.1,0.2-0.3,0.3-0.5c0.1-0.2,0.2-0.4,0.4-0.7c0-0.1,0-0.1,0-0.1c0,0-0.1,0-0.2,0
				c-0.1,0-0.2,0-0.3,0.1c-0.1,0-0.3,0.1-0.3,0.1h-2c-0.1,0-0.2,0-0.4,0s-0.3,0-0.4,0c-0.1-0.1-0.2-0.1-0.3-0.1
				c-0.1,0-0.2-0.1-0.3-0.1c-0.1,0-0.2-0.1-0.3-0.2c-0.1-0.1-0.1-0.2-0.1-0.2c0-0.7,0.1-1.2,0.2-1.6s0.4-0.5,0.7-0.5
				c0.3,0,0.6,0,0.8,0c0.3,0,0.5,0.1,0.7,0.1c0.2,0,0.3-0.1,0.4-0.1c0.3,0,0.5,0,0.7,0c0.2,0,0.4,0,0.5,0.1c0.1,0,0.3-0.1,0.4-0.1
				c0.1,0,0.3-0.1,0.4-0.1l0.5,0.2c0.4,0,0.8-0.6,1.2-1.6c0.4-1,0.9-1.5,1.3-1.5c0.3,0,0.5,0.1,0.6,0.2c0.1,0.2,0.2,0.4,0.2,0.7
				c0,0.2-0.1,0.6-0.2,1c-0.1,0.4-0.2,0.7-0.2,0.9c0,0,0,0.1,0.1,0.1c0,0,0.1,0.1,0.2,0.2c0.1,0,0.1,0.1,0.1,0.2c0,0.1,0,0.2,0,0.4
				c0,0.6,0,1.1-0.1,1.5c-0.1,0.3-0.2,0.5-0.3,0.5l-1.1,0.2c0,0.1,0,0.2-0.1,0.4c0,0.2-0.1,0.3-0.1,0.5c-0.2,0.5-0.4,1.2-0.6,2
				c-0.2,0.8-0.5,1.8-0.8,2.9c-0.2,0.9-0.3,1.6-0.4,2.2c-0.1,0.6-0.1,0.9-0.1,1.1c0,0.2,0,0.3,0.1,0.4s0.1,0.1,0.2,0.1
				c0.1,0,0.3-0.2,0.7-0.5c0.4-0.3,1-0.8,1.7-1.4l0.6,1.5c-0.1,0.1-0.3,0.3-0.4,0.4c-0.2,0.2-0.4,0.3-0.7,0.5
				c-0.1,0.1-0.2,0.2-0.4,0.4c-0.2,0.1-0.3,0.3-0.5,0.5c-0.2,0.2-0.4,0.4-0.6,0.6c-0.2,0.2-0.4,0.4-0.6,0.6
				c-0.3,0.3-0.5,0.5-0.7,0.6c-0.2,0.1-0.5,0.2-0.7,0.2c-0.5,0-0.8-0.1-1-0.4c-0.2-0.3-0.3-0.7-0.3-1.3c0-0.6,0-1.2,0.1-1.6
				c0-0.5,0.1-0.8,0.2-1.1c0-0.1,0.1-0.2,0.1-0.2c0-0.1,0-0.2,0-0.4c0-0.2,0.1-0.4,0.1-0.6c0.1-0.4,0.1-0.8,0.2-1.2
				c0.1-0.3,0.2-0.5,0.4-0.8c0-0.1,0-0.1-0.1-0.1l-0.2,0.1c-0.2,0.3-0.4,0.5-0.6,0.8c-0.3,0.3-0.6,0.6-0.9,0.9
				c-0.5,0.5-1.1,1-1.7,1.6c0,0.1-0.1,0.1-0.2,0.2c-0.1,0.1-0.2,0.2-0.3,0.4c-0.1-0.1-0.1-0.3-0.2-0.5s-0.2-0.4-0.2-0.7
				c0-0.1,0-0.1-0.1-0.2S184.1,45.5,184,45.5z"/>
			<path fill="#FFFFFF" d="M188.9,50.9c-0.5,0-0.9-0.1-1.1-0.4c-0.2-0.3-0.4-0.7-0.4-1.3c0-0.6,0-1.2,0.1-1.6c0-0.5,0.1-0.8,0.2-1.1
				c0-0.1,0.1-0.2,0.1-0.2c0-0.1,0-0.3,0-0.4l0-0.1c0-0.2,0.1-0.4,0.1-0.6c0.1-0.4,0.1-0.8,0.2-1.2l0,0c0.1-0.3,0.2-0.5,0.4-0.8
				c0,0,0,0-0.1-0.1l-0.1,0.1c-0.2,0.3-0.4,0.5-0.6,0.8c-0.3,0.3-0.6,0.6-0.9,0.9c-0.5,0.5-1.1,1-1.7,1.6c0,0.1-0.1,0.1-0.2,0.2
				c-0.1,0.1-0.2,0.2-0.3,0.4l-0.1,0.1l0-0.1c-0.1-0.1-0.1-0.3-0.2-0.5c-0.1-0.2-0.2-0.4-0.2-0.7c0-0.1,0-0.1-0.1-0.2
				c0,0-0.1-0.1-0.1-0.1l0,0l0.1-0.2c0.1-0.1,0.2-0.2,0.3-0.3c0.1-0.1,0.2-0.3,0.4-0.4c0.8-0.7,1.5-1.5,2.2-2.5
				c0.7-1,1.4-2.1,2.1-3.4c0.1-0.1,0.2-0.3,0.3-0.5c0.1-0.2,0.2-0.4,0.3-0.7c0,0,0-0.1,0-0.1c0,0-0.1,0-0.1,0c0,0-0.1,0-0.3,0.1
				c-0.1,0-0.3,0.1-0.3,0.1h-2c-0.1,0-0.2,0-0.4,0c-0.2,0-0.3,0-0.4,0l0,0c-0.1,0-0.2-0.1-0.3-0.1c-0.1,0-0.2-0.1-0.3-0.1
				c-0.1,0-0.2-0.1-0.3-0.2c-0.1-0.1-0.1-0.2-0.1-0.3c0-0.7,0.1-1.2,0.2-1.6c0.2-0.4,0.4-0.6,0.7-0.6c0.3,0,0.6,0,0.8,0
				c0.3,0,0.5,0.1,0.7,0.1c0.2,0,0.3-0.1,0.4-0.1c0.3,0,0.6,0,0.8,0c0.2,0,0.3,0,0.5,0.1c0.1,0,0.3-0.1,0.4-0.1l0.5-0.1l0,0l0.5,0.2
				c0.3-0.1,0.7-0.6,1.1-1.5c0.4-1,0.9-1.5,1.4-1.5c0.3,0,0.5,0.1,0.6,0.3c0.1,0.2,0.2,0.4,0.2,0.7c0,0.3-0.1,0.6-0.2,1
				c-0.1,0.4-0.2,0.7-0.2,0.9c0,0,0,0.1,0.1,0.1c0,0,0.1,0.1,0.2,0.2c0.1,0,0.1,0.1,0.2,0.2c0,0.1,0,0.2,0,0.4c0,0.6,0,1.1-0.1,1.5
				c-0.1,0.4-0.2,0.6-0.3,0.6l-1,0.2l-0.1,0.4c0,0.2-0.1,0.3-0.1,0.5c-0.2,0.5-0.4,1.2-0.6,2c-0.2,0.8-0.5,1.8-0.8,2.9
				c-0.2,0.9-0.3,1.6-0.4,2.2c-0.1,0.5-0.1,0.9-0.1,1.1c0,0.2,0,0.3,0.1,0.4c0,0.1,0.1,0.1,0.2,0.1c0,0,0.1,0,0.7-0.4
				c0.4-0.3,1-0.8,1.7-1.4l0.1-0.1l0.7,1.6l0,0c-0.1,0.1-0.3,0.3-0.5,0.4c-0.2,0.2-0.4,0.3-0.7,0.5c-0.1,0.1-0.2,0.2-0.4,0.4
				c-0.2,0.1-0.3,0.3-0.5,0.5c-0.2,0.2-0.4,0.4-0.6,0.6c-0.2,0.2-0.4,0.4-0.6,0.6c-0.3,0.3-0.5,0.5-0.8,0.6
				C189.4,50.8,189.1,50.9,188.9,50.9z M188.3,43.9c-0.1,0.4-0.1,0.8-0.2,1.2c0,0.2-0.1,0.4-0.1,0.6l0,0.1c0,0.2,0,0.3,0,0.4l0,0
				c0,0.1-0.1,0.1-0.1,0.2c-0.1,0.3-0.2,0.6-0.2,1.1c0,0.5-0.1,1-0.1,1.6c0,0.5,0.1,1,0.3,1.2c0.2,0.3,0.6,0.4,1,0.4
				c0.2,0,0.4-0.1,0.7-0.2c0.2-0.1,0.5-0.3,0.7-0.6c0.2-0.2,0.4-0.4,0.6-0.6c0.2-0.2,0.4-0.4,0.6-0.6c0.2-0.2,0.4-0.4,0.5-0.5
				c0.2-0.1,0.3-0.3,0.4-0.4c0.3-0.2,0.5-0.4,0.7-0.5c0.2-0.1,0.3-0.3,0.4-0.4l-0.6-1.4c-0.7,0.6-1.2,1-1.6,1.3
				c-0.6,0.5-0.7,0.5-0.7,0.5c-0.1,0-0.2-0.1-0.3-0.2c-0.1-0.1-0.1-0.2-0.1-0.4c0-0.2,0-0.6,0.1-1.1c0.1-0.6,0.2-1.3,0.4-2.2
				c0.3-1.1,0.5-2.1,0.8-2.9c0.2-0.8,0.4-1.5,0.6-2c0.1-0.2,0.1-0.4,0.1-0.5l0.1-0.4l1.1-0.2c0.1,0,0.2-0.1,0.2-0.5
				c0.1-0.3,0.1-0.8,0.1-1.5c0-0.1,0-0.3,0-0.4c0-0.1-0.1-0.1-0.1-0.2c-0.1-0.1-0.1-0.1-0.2-0.2c0-0.1-0.1-0.1-0.1-0.1l0,0l0,0
				c0-0.2,0.1-0.5,0.3-0.9c0.1-0.4,0.2-0.7,0.2-0.9c0-0.3-0.1-0.5-0.2-0.7c-0.1-0.1-0.3-0.2-0.5-0.2c-0.4,0-0.9,0.5-1.3,1.5
				c-0.4,1-0.8,1.6-1.2,1.6l0,0l0,0l-0.5-0.2l-0.4,0.1c-0.1,0-0.3,0.1-0.4,0.1l0,0l0,0c-0.1,0-0.3-0.1-0.5-0.1c-0.2,0-0.4,0-0.7,0
				c-0.1,0-0.3,0.1-0.4,0.1l0,0l0,0c-0.2,0-0.4-0.1-0.7-0.1c-0.3,0-0.5,0-0.8,0c-0.3,0-0.5,0.2-0.6,0.5c-0.1,0.4-0.2,0.9-0.2,1.5
				c0,0.1,0,0.1,0.1,0.2c0.1,0.1,0.2,0.1,0.3,0.2c0.1,0,0.2,0.1,0.3,0.1c0.1,0,0.2,0.1,0.3,0.1c0.1,0,0.2,0,0.4,0c0.2,0,0.3,0,0.4,0
				h2c0.1,0,0.2,0,0.3-0.1c0.1,0,0.3-0.1,0.3-0.1c0.1,0,0.2,0,0.2,0.1c0,0,0.1,0.1,0.1,0.2l0,0c-0.1,0.3-0.2,0.5-0.4,0.7
				c-0.1,0.2-0.2,0.3-0.3,0.5c-0.7,1.3-1.4,2.4-2.1,3.4c-0.7,1-1.5,1.8-2.2,2.5c-0.1,0.2-0.3,0.3-0.4,0.4c-0.1,0.1-0.2,0.2-0.2,0.3
				l0,0.1c0,0,0.1,0.1,0.1,0.1c0,0.1,0.1,0.1,0.1,0.2c0.1,0.3,0.2,0.5,0.2,0.7c0.1,0.1,0.1,0.3,0.2,0.4c0.1-0.1,0.2-0.2,0.2-0.3
				c0.1-0.1,0.1-0.2,0.2-0.2l0,0c0.6-0.5,1.1-1.1,1.7-1.6c0.3-0.3,0.7-0.6,0.9-0.9c0.3-0.3,0.5-0.5,0.6-0.8l0,0l0.2-0.1l0,0
				c0.1,0.1,0.2,0.1,0.2,0.2l0,0C188.5,43.4,188.4,43.7,188.3,43.9z"/>
		</g>
		<g>
			<path fill="#FFFFFF" d="M192.9,45.5l0.1-0.1l0-0.2c0.3-0.4,0.8-0.9,1.5-1.5c0.7-0.6,1.2-1.1,1.5-1.5c0.1-0.2,0.2-0.3,0.4-0.4
				c0.1-0.1,0.3-0.1,0.4-0.1c0.4,0,0.7,0.1,0.9,0.3c0.3,0.2,0.4,0.5,0.5,0.8c0.1,0.3,0.1,0.7,0.2,1c0.1,0.3,0.1,0.7,0.2,1
				c0.1,0.2,0.2,0.5,0.3,1c0.1,0.4,0.2,0.7,0.2,0.7c0.1,0.1,0.1,0.2,0.2,0.2c0.1,0,0.2,0.1,0.4,0.1c0.2,0,0.4,0,0.6-0.1
				c0.2-0.1,0.4-0.2,0.6-0.4c0.2-0.1,0.3-0.3,0.5-0.4c0.2-0.1,0.3-0.3,0.5-0.4l0.6,1.5c-0.2,0.2-0.4,0.4-0.7,0.6
				c-0.3,0.2-0.6,0.5-1,0.8c-0.4,0.3-0.8,0.6-1.1,0.7c-0.3,0.2-0.5,0.2-0.7,0.2c-1,0-1.6-0.1-1.9-0.3c-0.3-0.2-0.6-0.8-1-1.9
				c0-0.1-0.1-0.2-0.2-0.3c-0.1-0.1-0.2-0.3-0.3-0.4c-0.1-0.2-0.2-0.4-0.3-0.6s-0.2-0.2-0.2-0.2c-0.2,0-0.4,0.1-0.7,0.3
				c-0.3,0.2-0.6,0.6-1.1,1c-0.1-0.1-0.1-0.3-0.2-0.5s-0.2-0.4-0.2-0.7c0-0.1,0-0.1-0.1-0.2S192.9,45.5,192.9,45.5z M199.5,32.9
				c0.3,0,0.5,0.1,0.6,0.2c0.1,0.1,0.2,0.3,0.2,0.5c-0.1,0.3-0.1,0.5-0.2,0.7c-0.1,0.4-0.2,0.7-0.3,0.9c-0.1,0.2-0.1,0.4-0.2,0.5
				c-0.1,0.2-0.2,0.4-0.4,0.6c-0.2,0.2-0.4,0.3-0.6,0.5c-0.2,0.2-0.4,0.3-0.6,0.4c-0.2,0.1-0.3,0.1-0.3,0.1c-0.2,0-0.4,0-0.5-0.1
				c-0.2,0-0.3,0-0.5,0c-0.1-0.1-0.2-0.2-0.3-0.4c-0.1-0.2-0.1-0.5-0.1-0.9c0-0.3,0.2-0.7,0.6-1.2c0.4-0.5,0.7-0.7,1-0.8
				c0.2-0.2,0.4-0.5,0.6-0.8c0.1-0.1,0.2-0.1,0.4-0.2C199.1,32.9,199.3,32.9,199.5,32.9z"/>
			<path fill="#FFFFFF" d="M199.1,49.3c-1,0-1.6-0.1-1.9-0.3c-0.3-0.2-0.6-0.9-1-1.9c0-0.1-0.1-0.2-0.2-0.3
				c-0.1-0.1-0.2-0.3-0.3-0.4c-0.1-0.2-0.2-0.4-0.3-0.5c-0.1-0.1-0.2-0.2-0.2-0.2c-0.2,0-0.4,0.1-0.6,0.3c-0.3,0.2-0.6,0.6-1,1
				l-0.1,0.1l0-0.1c-0.1-0.1-0.1-0.3-0.2-0.5c-0.1-0.2-0.2-0.4-0.2-0.7c0-0.1,0-0.1-0.1-0.2c0,0-0.1-0.1-0.1-0.1l-0.1,0l0.1-0.2
				l0.1-0.2c0.3-0.4,0.8-0.9,1.5-1.5c0.7-0.6,1.2-1.1,1.5-1.5c0.1-0.2,0.2-0.3,0.4-0.4c0.1-0.1,0.3-0.1,0.4-0.1c0.4,0,0.7,0.1,1,0.3
				c0.3,0.2,0.4,0.5,0.5,0.9c0.1,0.3,0.1,0.7,0.2,1c0.1,0.3,0.1,0.7,0.2,1c0.1,0.2,0.2,0.5,0.3,1c0.1,0.5,0.2,0.7,0.2,0.7
				c0.1,0.1,0.1,0.2,0.2,0.2c0.1,0,0.2,0.1,0.4,0.1c0.2,0,0.4,0,0.6-0.1c0.2-0.1,0.4-0.2,0.6-0.3c0.2-0.1,0.3-0.3,0.5-0.4
				c0.2-0.1,0.3-0.3,0.5-0.4l0.1-0.1l0.7,1.6l0,0c-0.2,0.2-0.4,0.4-0.7,0.6c-0.3,0.2-0.6,0.5-1,0.8c-0.4,0.3-0.8,0.6-1.1,0.7
				C199.6,49.2,199.3,49.3,199.1,49.3z M195.3,45.5c0.1,0,0.2,0.1,0.3,0.2c0.1,0.1,0.2,0.3,0.3,0.6c0.1,0.1,0.2,0.3,0.3,0.4
				c0.1,0.1,0.2,0.2,0.2,0.3c0.3,1,0.7,1.6,0.9,1.8c0.3,0.2,0.9,0.3,1.8,0.3c0.1,0,0.4-0.1,0.7-0.2c0.3-0.1,0.7-0.4,1.1-0.7
				c0.4-0.3,0.7-0.5,1-0.8c0.3-0.2,0.5-0.4,0.6-0.5l-0.6-1.4c-0.1,0.1-0.3,0.2-0.5,0.4c-0.2,0.1-0.3,0.3-0.5,0.4
				c-0.2,0.2-0.4,0.3-0.6,0.4c-0.2,0.1-0.4,0.1-0.6,0.1c-0.2,0-0.3,0-0.4-0.1c-0.1-0.1-0.2-0.1-0.3-0.3c0,0-0.1-0.2-0.2-0.8
				c-0.1-0.4-0.2-0.7-0.3-1c0-0.3-0.1-0.7-0.2-1c-0.1-0.3-0.1-0.7-0.2-1c-0.1-0.4-0.2-0.6-0.5-0.8c-0.2-0.2-0.5-0.3-0.9-0.3
				c-0.1,0-0.3,0-0.4,0.1c-0.1,0.1-0.2,0.2-0.3,0.3c-0.3,0.4-0.8,0.9-1.5,1.6c-0.7,0.6-1.2,1.1-1.5,1.5l-0.1,0.2l-0.1,0.1
				c0,0,0.1,0.1,0.1,0.1c0,0.1,0.1,0.1,0.1,0.2c0.1,0.3,0.2,0.5,0.2,0.7c0.1,0.2,0.1,0.3,0.2,0.4c0.4-0.4,0.7-0.7,1-1
				C194.8,45.6,195.1,45.5,195.3,45.5z M197.8,37.3C197.8,37.3,197.7,37.3,197.8,37.3c-0.2,0-0.4,0-0.6-0.1c-0.2,0-0.3,0-0.5,0l0,0
				c-0.2-0.1-0.3-0.2-0.4-0.5c-0.1-0.2-0.1-0.5-0.1-0.9c0-0.3,0.2-0.7,0.6-1.2c0.4-0.5,0.7-0.7,1-0.8c0.2-0.2,0.4-0.5,0.6-0.7l0,0
				c0.1-0.1,0.3-0.1,0.4-0.2c0.2,0,0.4-0.1,0.6-0.1c0.3,0,0.5,0.1,0.6,0.2c0.1,0.1,0.2,0.3,0.2,0.5c-0.1,0.3-0.1,0.6-0.2,0.8
				c-0.1,0.4-0.2,0.7-0.3,0.9c-0.1,0.2-0.1,0.4-0.2,0.5c-0.1,0.2-0.2,0.5-0.4,0.6c-0.2,0.2-0.4,0.3-0.6,0.5
				c-0.2,0.2-0.5,0.3-0.6,0.4C198,37.3,197.8,37.3,197.8,37.3z M196.8,37.1c0.2,0,0.3,0,0.5,0c0.2,0,0.3,0,0.5,0.1c0,0,0,0,0,0
				c0,0,0.1,0,0.3-0.1c0.2-0.1,0.4-0.2,0.6-0.4c0.2-0.1,0.4-0.3,0.6-0.5c0.2-0.2,0.3-0.4,0.4-0.6c0-0.1,0.1-0.3,0.2-0.5
				c0.1-0.2,0.2-0.6,0.3-0.9c0-0.2,0.1-0.4,0.2-0.7c0-0.2-0.1-0.3-0.2-0.4c-0.1-0.1-0.3-0.1-0.5-0.1c-0.2,0-0.4,0-0.6,0.1
				c-0.2,0-0.3,0.1-0.4,0.2c-0.2,0.3-0.4,0.5-0.6,0.8l0,0l0,0c-0.3,0-0.6,0.3-1,0.8c-0.4,0.5-0.6,0.9-0.6,1.2c0,0.4,0,0.6,0.1,0.8
				C196.5,36.9,196.6,37.1,196.8,37.1z"/>
		</g>
		<g>
			<path fill="#FFFFFF" d="M202.5,44.8l1.5-1c0.1-0.1,0.1-0.1,0.2-0.2s0.2-0.2,0.3-0.4c0.1-0.1,0.2-0.3,0.3-0.4
				c0.1-0.1,0.3-0.2,0.4-0.3c0.1-0.1,0.2-0.2,0.4-0.4s0.4-0.3,0.6-0.6c0.1-0.1,0.3-0.2,0.4-0.3s0.4-0.3,0.6-0.5
				c1-0.9,1.8-1.6,2.5-2.1s1.3-0.7,1.8-0.7c0.3,0,0.5,0.1,0.6,0.2s0.2,0.3,0.2,0.5c0,0.2,0,0.4-0.1,0.6c-0.1,0.2-0.2,0.3-0.4,0.4
				c-0.3,0.2-0.6,0.4-0.9,0.6c-0.2,0.2-0.4,0.5-0.6,0.7c-0.2,0.2-0.5,0.5-0.9,0.7c-0.1,0.1-0.2,0.3-0.3,0.4
				c-0.1,0.1-0.2,0.1-0.3,0.3s-0.3,0.3-0.6,0.5c-0.1,0.2-0.3,0.5-0.7,0.9c-0.4,0.4-0.8,0.8-1.4,1.3c-0.1,0.1-0.2,0.2-0.4,0.5
				c-0.2,0.3-0.4,0.6-0.7,1.1l0.1,0.1c0.2-0.1,0.5-0.2,0.7-0.4c0.3-0.2,0.5-0.4,0.8-0.7c0.4-0.3,0.7-0.6,0.9-0.8
				c0.2-0.2,0.4-0.3,0.5-0.4c0.1,0,0.1-0.1,0.2-0.1s0.2-0.1,0.3-0.2c0.5-0.6,0.9-1,1.4-1.3s0.8-0.4,1.2-0.4c0.2,0,0.4,0.1,0.5,0.3
				c0.1,0.2,0.2,0.4,0.2,0.8c0,0.5,0,1,0,1.5c0,0.3,0.1,0.6,0.3,0.9c0.2,0.3,0.5,0.4,0.8,0.4c0.1,0,0.2,0,0.3-0.1
				c0.1-0.1,0.2-0.1,0.3-0.2c0.1-0.1,0.1-0.2,0.2-0.3s0.1-0.2,0.2-0.3c0,0,0.1-0.1,0.2-0.1s0.2-0.1,0.2-0.2c0.1,0.3,0.3,0.6,0.4,0.8
				c0.1,0.2,0.2,0.4,0.2,0.6c-0.2,0.2-0.5,0.5-0.7,0.7c-0.2,0.2-0.5,0.5-0.8,0.7c-0.3,0.2-0.6,0.4-0.9,0.6c-0.3,0.1-0.6,0.2-0.9,0.2
				c-0.7,0-1.2-0.2-1.6-0.6c-0.4-0.4-0.6-1-0.7-1.8c0-0.1,0-0.2,0-0.3c0-0.1-0.1-0.2-0.2-0.3c-0.1,0.1-0.1,0.1-0.2,0.2
				c-0.1,0.1-0.1,0.1-0.2,0.2c-0.1,0.1-0.3,0.2-0.5,0.4c-0.2,0.2-0.4,0.4-0.7,0.6c-0.4,0.4-0.7,0.7-0.9,0.9
				c-0.3,0.2-0.4,0.4-0.5,0.5c-0.2,0.2-0.5,0.4-0.7,0.5c-0.3,0.2-0.6,0.4-0.9,0.6c-0.2,0.1-0.4,0.2-0.6,0.3
				c-0.2,0.1-0.3,0.1-0.4,0.1c-0.5,0-0.9-0.1-1.1-0.4c-0.2-0.2-0.4-0.6-0.4-1.2c0-0.3,0.1-0.6,0.2-0.8s0.3-0.5,0.6-0.8
				c0-0.1,0-0.2,0-0.3c0-0.1,0-0.1,0-0.2c0-0.1-0.1-0.1-0.1-0.2c-0.1-0.1-0.1-0.3-0.2-0.5c-0.1-0.2-0.2-0.4-0.3-0.6
				c0,0,0.1-0.1,0.2-0.2C202.3,45.1,202.4,45,202.5,44.8z"/>
			<path fill="#FFFFFF" d="M203.4,50.5c-0.5,0-0.9-0.1-1.2-0.4c-0.3-0.3-0.4-0.7-0.4-1.2c0-0.3,0.1-0.6,0.2-0.8
				c0.1-0.3,0.3-0.5,0.5-0.8c0-0.1,0-0.2,0-0.3c0,0,0-0.1,0-0.1c0-0.1-0.1-0.1-0.1-0.2l-0.2-0.5c-0.1-0.2-0.2-0.4-0.3-0.6l0,0l0,0
				c0,0,0.1-0.1,0.2-0.2c0.1-0.1,0.2-0.3,0.3-0.5l0,0l1.5-1c0,0,0.1-0.1,0.2-0.2c0.1-0.1,0.2-0.2,0.2-0.4c0.1-0.1,0.2-0.3,0.3-0.4
				c0.1-0.1,0.3-0.2,0.4-0.3c0.1-0.1,0.2-0.2,0.4-0.4c0.2-0.2,0.4-0.3,0.6-0.6c0.1-0.1,0.3-0.2,0.5-0.3c0.2-0.1,0.4-0.3,0.6-0.5
				c1-0.9,1.8-1.6,2.6-2.1c0.7-0.5,1.4-0.7,1.9-0.7c0.3,0,0.5,0.1,0.7,0.2c0.1,0.1,0.2,0.3,0.2,0.5c0,0.2,0,0.4-0.1,0.6
				c-0.1,0.2-0.2,0.3-0.4,0.5c-0.3,0.2-0.5,0.4-0.9,0.6c-0.2,0.2-0.4,0.5-0.6,0.7c-0.2,0.2-0.5,0.5-0.9,0.7
				c-0.1,0.1-0.2,0.3-0.3,0.4c-0.1,0.1-0.2,0.2-0.3,0.3c-0.1,0.1-0.3,0.3-0.6,0.5c-0.1,0.2-0.3,0.5-0.7,0.9
				c-0.4,0.4-0.8,0.8-1.4,1.3c-0.1,0.1-0.2,0.2-0.4,0.5c-0.2,0.3-0.4,0.6-0.7,1l0.1,0.1c0.2-0.1,0.4-0.2,0.7-0.4
				c0.3-0.2,0.5-0.4,0.8-0.7c0.4-0.3,0.7-0.6,0.9-0.8c0.2-0.2,0.4-0.3,0.5-0.4l0.2-0.1c0.1,0,0.2-0.1,0.2-0.2c0.5-0.6,1-1,1.4-1.3
				c0.4-0.3,0.8-0.4,1.2-0.4c0.2,0,0.4,0.1,0.6,0.3c0.1,0.2,0.2,0.5,0.2,0.8c0,0.5,0,1,0,1.5c0,0.3,0.1,0.6,0.3,0.9
				c0.2,0.3,0.4,0.4,0.7,0.4c0.1,0,0.2,0,0.2-0.1c0.1-0.1,0.2-0.1,0.3-0.2c0.1-0.1,0.1-0.2,0.2-0.3c0.1-0.1,0.1-0.2,0.2-0.3l0,0
				c0,0,0.1,0,0.2-0.1c0.1-0.1,0.2-0.1,0.2-0.2l0.1-0.1l0,0.1c0.1,0.3,0.3,0.6,0.4,0.8c0.1,0.2,0.2,0.5,0.2,0.6l0,0l0,0
				c-0.2,0.2-0.5,0.5-0.7,0.7c-0.2,0.2-0.5,0.5-0.8,0.7c-0.3,0.2-0.6,0.4-0.9,0.6c-0.3,0.1-0.6,0.2-0.9,0.2c-0.7,0-1.3-0.2-1.6-0.6
				c-0.4-0.4-0.6-1-0.7-1.8c0-0.1,0-0.2,0-0.3c0-0.1-0.1-0.2-0.1-0.2c0,0-0.1,0.1-0.1,0.1c-0.1,0.1-0.1,0.1-0.2,0.2l-0.5,0.4
				c-0.2,0.2-0.4,0.3-0.7,0.6c-0.4,0.4-0.7,0.7-0.9,0.9c-0.3,0.2-0.4,0.4-0.5,0.5c-0.2,0.2-0.5,0.4-0.8,0.6c-0.3,0.2-0.6,0.4-1,0.6
				c-0.2,0.1-0.4,0.2-0.6,0.3C203.6,50.4,203.5,50.5,203.4,50.5z M202.1,45.5c0.1,0.2,0.2,0.4,0.2,0.6l0.2,0.5
				c0,0.1,0.1,0.1,0.1,0.2c0,0.1,0,0.1,0,0.2c0,0.1,0,0.2,0,0.3l0,0l0,0c-0.2,0.2-0.4,0.5-0.5,0.7c-0.1,0.3-0.2,0.5-0.2,0.8
				c0,0.5,0.1,0.9,0.3,1.1c0.2,0.2,0.6,0.4,1.1,0.4c0,0,0.1,0,0.3-0.1c0.2-0.1,0.4-0.2,0.6-0.3c0.4-0.2,0.7-0.4,0.9-0.6
				c0.3-0.2,0.5-0.4,0.7-0.5c0.1-0.1,0.3-0.3,0.5-0.5c0.3-0.2,0.6-0.6,0.9-0.9c0.3-0.2,0.5-0.4,0.7-0.6l0.5-0.4
				c0.1-0.1,0.2-0.2,0.2-0.2c0.1-0.1,0.1-0.1,0.2-0.2l0,0l0,0.1c0.1,0.1,0.2,0.2,0.2,0.3c0,0.1,0,0.2,0,0.3c0.1,0.8,0.3,1.4,0.6,1.7
				c0.4,0.4,0.9,0.6,1.6,0.6c0.3,0,0.6-0.1,0.9-0.2c0.3-0.1,0.6-0.3,0.9-0.5c0.3-0.2,0.5-0.4,0.8-0.7c0.2-0.2,0.5-0.5,0.7-0.7
				c-0.1-0.2-0.1-0.4-0.2-0.6c-0.1-0.2-0.2-0.5-0.3-0.8c-0.1,0.1-0.1,0.1-0.2,0.1c-0.1,0-0.1,0.1-0.2,0.1c-0.1,0.1-0.1,0.2-0.2,0.2
				c-0.1,0.1-0.1,0.2-0.2,0.3c-0.1,0.1-0.2,0.2-0.3,0.2c-0.1,0.1-0.2,0.1-0.3,0.1c-0.3,0-0.6-0.1-0.8-0.4c-0.2-0.3-0.3-0.6-0.3-1
				c0-0.5,0-1,0-1.5c0-0.3-0.1-0.6-0.2-0.8c-0.1-0.2-0.3-0.2-0.5-0.2c-0.3,0-0.7,0.1-1.1,0.4c-0.4,0.3-0.9,0.7-1.4,1.3l0,0
				c-0.1,0.1-0.2,0.1-0.3,0.2l-0.2,0.1c-0.1,0.1-0.2,0.2-0.5,0.4c-0.2,0.2-0.5,0.5-0.9,0.8c-0.3,0.3-0.6,0.5-0.9,0.7
				c-0.3,0.2-0.5,0.3-0.8,0.4l0,0l-0.2-0.2l0,0c0.3-0.4,0.6-0.8,0.8-1.1c0.2-0.3,0.3-0.4,0.4-0.5c0.6-0.5,1.1-1,1.4-1.3
				c0.3-0.4,0.6-0.7,0.7-0.9l0,0l0,0c0.2-0.2,0.4-0.3,0.6-0.5c0.1-0.1,0.2-0.2,0.3-0.3c0.1-0.1,0.2-0.2,0.3-0.4l0,0
				c0.3-0.2,0.6-0.5,0.9-0.7c0.2-0.2,0.4-0.5,0.6-0.7l0,0c0.3-0.2,0.6-0.5,0.9-0.6c0.2-0.1,0.3-0.2,0.4-0.4c0.1-0.2,0.1-0.4,0.1-0.6
				c0-0.2-0.1-0.3-0.2-0.4c-0.1-0.1-0.3-0.2-0.6-0.2c-0.5,0-1.1,0.2-1.8,0.7c-0.7,0.5-1.6,1.1-2.5,2.1c-0.2,0.2-0.4,0.4-0.6,0.5
				c-0.2,0.1-0.3,0.2-0.5,0.3c-0.2,0.2-0.4,0.4-0.6,0.5c-0.2,0.2-0.3,0.3-0.4,0.4l0,0c-0.2,0.1-0.3,0.2-0.4,0.2
				c-0.1,0.1-0.2,0.2-0.3,0.3c-0.1,0.2-0.2,0.3-0.3,0.4c-0.1,0.1-0.1,0.2-0.2,0.2l-1.4,1c-0.1,0.2-0.2,0.3-0.3,0.4
				C202.2,45.4,202.2,45.4,202.1,45.5z"/>
		</g>
		<g>
			<path fill="#FFFFFF" d="M214.3,45.5c0.1-0.1,0.2-0.2,0.3-0.4s0.2-0.3,0.4-0.5l1.1-0.9c0,0,0.1-0.1,0.1-0.1c0-0.1,0-0.1,0-0.2
				c0-0.1,0-0.2,0-0.3c0-0.2,0-0.7,0.1-1.2s0.2-0.9,0.3-1l-0.1-0.3c0.1-0.7,0.3-1.5,0.6-2.3s0.5-1.8,0.9-2.8
				c0.1-0.2,0.2-0.4,0.3-0.6c0.1-0.3,0.2-0.6,0.4-0.9c0.2-0.6,0.4-1.1,0.7-1.7c0.3-0.6,0.6-1.2,1-1.9c0.5-0.8,0.9-1.5,1.3-1.9
				c0.4-0.4,0.7-0.6,1-0.6c0.6,0,1,0.1,1.3,0.4c0.2,0.2,0.3,0.7,0.3,1.3c0,0.2,0,0.4-0.1,0.8c-0.1,0.4-0.1,0.6-0.1,0.8
				s-0.1,0.4-0.2,0.8c-0.1,0.3-0.2,0.6-0.2,0.9c0,0.1,0,0.2-0.1,0.3l0,0.2c0,0.1-0.1,0.3-0.2,0.5s-0.2,0.5-0.3,0.8
				c-0.1,0.3-0.2,0.6-0.3,0.9c-0.1,0.4-0.3,0.7-0.4,1.1c-0.1,0.1-0.1,0.2-0.2,0.4c-0.1,0.2-0.2,0.3-0.3,0.5c0,0.1-0.1,0.3-0.2,0.5
				c-0.1,0.2-0.2,0.4-0.3,0.6c-0.1,0.1-0.1,0.3-0.3,0.4c-0.1,0.1-0.2,0.3-0.4,0.6c-0.1,0.1-0.1,0.2-0.2,0.4
				c-0.1,0.2-0.2,0.3-0.3,0.5c-0.1,0.2-0.3,0.4-0.5,0.7c-0.2,0.3-0.4,0.6-0.7,0.9c-0.3,0.6-0.7,1.1-1,1.7c0,1,0.2,1.8,0.6,2.3
				s1,0.8,1.8,0.8c0.1,0,0.2,0,0.5-0.1c0.3-0.1,0.6-0.2,1.1-0.4c0.1-0.1,0.3-0.2,0.5-0.4c0.2-0.2,0.4-0.3,0.7-0.6l0.6,1.5
				c-0.3,0.2-0.6,0.5-0.8,0.7s-0.6,0.5-0.8,0.7c-0.3,0.3-0.7,0.5-1,0.6c-0.3,0.1-0.7,0.2-1,0.2c-0.2,0-0.4,0-0.8-0.1
				c-0.4,0-0.6-0.1-0.8-0.1c-0.6,0-1.1-0.2-1.5-0.7s-0.7-1.2-0.8-2.2c0-0.1-0.1-0.2-0.1-0.3c0-0.1-0.1-0.2-0.2-0.3
				c-0.1,0.1-0.3,0.3-0.5,0.5c-0.2,0.2-0.4,0.4-0.7,0.7L214.3,45.5z M221.9,33l-0.1-0.1c-0.6,0.6-1,1.1-1.3,1.6s-0.5,1-0.5,1.5
				c0,0.1,0,0.2-0.1,0.4c-0.1,0.2-0.2,0.4-0.3,0.7c-0.2,0.3-0.3,0.7-0.5,1.1c-0.2,0.6-0.4,1.1-0.5,1.5c-0.1,0.4-0.2,0.6-0.2,0.8
				l0.1,0.1c0.1,0,0.2-0.1,0.4-0.3c0.1-0.2,0.3-0.4,0.5-0.8c0.1-0.2,0.2-0.4,0.4-0.7c0.2-0.3,0.3-0.6,0.5-0.9
				c0.2-0.2,0.4-0.8,0.8-1.8c0.4-1,0.6-1.6,0.6-1.9c0-0.2,0-0.4,0.1-0.6C221.8,33.4,221.8,33.2,221.9,33z"/>
			<path fill="#FFFFFF" d="M220.2,49.4c-0.2,0-0.4,0-0.8-0.1c-0.3,0-0.6-0.1-0.8-0.1c-0.6,0-1.1-0.2-1.5-0.7
				c-0.4-0.5-0.7-1.2-0.8-2.2c0-0.1,0-0.2-0.1-0.2c0-0.1-0.1-0.1-0.1-0.2c-0.1,0.1-0.3,0.3-0.4,0.4c-0.2,0.2-0.4,0.4-0.7,0.7
				l-0.1,0.1l-0.7-1.6l0,0c0.1-0.1,0.2-0.2,0.3-0.4c0.1-0.2,0.2-0.3,0.4-0.5l1.1-0.9c0,0,0-0.1,0.1-0.1c0,0,0-0.1,0-0.2
				c0-0.1,0-0.2,0-0.3c0-0.3,0-0.7,0.1-1.3c0.1-0.6,0.2-0.9,0.2-1l-0.1-0.3l0,0c0.1-0.7,0.3-1.5,0.6-2.3c0.2-0.8,0.5-1.8,0.9-2.8
				c0.1-0.2,0.2-0.4,0.3-0.7l0.1-0.1c0.1-0.2,0.2-0.5,0.3-0.8c0.2-0.5,0.4-1.1,0.7-1.7c0.3-0.6,0.6-1.2,1-1.9c0.5-0.8,1-1.5,1.3-1.9
				c0.4-0.4,0.8-0.7,1.1-0.7c0.6,0,1.1,0.1,1.3,0.4c0.2,0.3,0.4,0.7,0.4,1.4c0,0.2,0,0.4-0.1,0.8c-0.1,0.4-0.1,0.6-0.1,0.8
				c0,0.2-0.1,0.5-0.2,0.8c-0.1,0.3-0.2,0.6-0.2,0.9c0,0.1,0,0.2-0.1,0.3l0,0.2l0,0c0,0.2-0.1,0.3-0.2,0.5c-0.1,0.2-0.2,0.5-0.3,0.8
				c-0.1,0.3-0.2,0.6-0.3,0.9c-0.1,0.4-0.3,0.7-0.4,1.2c-0.1,0.1-0.2,0.2-0.3,0.4c-0.1,0.2-0.2,0.3-0.3,0.5c0,0.1-0.1,0.3-0.2,0.5
				c-0.1,0.2-0.2,0.4-0.3,0.6c-0.1,0.1-0.1,0.3-0.3,0.4c-0.1,0.1-0.2,0.3-0.4,0.6c-0.1,0.1-0.1,0.2-0.2,0.4
				c-0.1,0.2-0.2,0.3-0.3,0.5c-0.1,0.2-0.3,0.4-0.5,0.7c-0.2,0.3-0.4,0.6-0.7,0.9c-0.3,0.6-0.7,1.1-1,1.7c0,1,0.2,1.8,0.6,2.3
				c0.4,0.5,1,0.8,1.8,0.8c0,0,0.1,0,0.5-0.1c0.3-0.1,0.6-0.2,1.1-0.4c0.1-0.1,0.3-0.2,0.5-0.3c0.2-0.2,0.4-0.3,0.7-0.5l0.1-0.1
				l0,0.1L224,47l0,0c-0.3,0.2-0.5,0.5-0.8,0.7c-0.3,0.3-0.6,0.5-0.8,0.8c-0.3,0.3-0.7,0.5-1,0.6C220.9,49.3,220.6,49.4,220.2,49.4z
				 M216.1,45.7L216.1,45.7c0.1,0.1,0.2,0.2,0.3,0.3c0,0.1,0.1,0.2,0.1,0.3c0.2,0.9,0.4,1.7,0.8,2.1c0.4,0.5,0.9,0.7,1.4,0.7
				c0.2,0,0.5,0,0.8,0.1c0.3,0,0.6,0.1,0.8,0.1c0.3,0,0.7-0.1,1-0.2c0.3-0.1,0.7-0.3,1-0.6c0.3-0.2,0.6-0.5,0.8-0.7
				c0.3-0.2,0.5-0.5,0.8-0.7l-0.6-1.3c-0.2,0.2-0.4,0.4-0.6,0.5c-0.2,0.2-0.4,0.3-0.5,0.4c-0.5,0.2-0.9,0.3-1.1,0.4
				c-0.4,0.1-0.5,0.1-0.5,0.1c-0.8,0-1.5-0.3-1.9-0.8c-0.4-0.5-0.6-1.3-0.6-2.4v0l0,0c0.4-0.5,0.7-1.1,1-1.7
				c0.3-0.4,0.5-0.7,0.7-0.9c0.2-0.3,0.3-0.5,0.5-0.7c0.1-0.2,0.2-0.4,0.3-0.5c0.1-0.2,0.1-0.3,0.2-0.4c0.1-0.2,0.3-0.4,0.4-0.6
				c0.1-0.1,0.2-0.3,0.3-0.4c0.1-0.3,0.2-0.5,0.3-0.6c0.1-0.2,0.1-0.3,0.2-0.5l0,0c0.1-0.2,0.2-0.4,0.3-0.5c0.1-0.2,0.2-0.3,0.2-0.4
				c0.2-0.4,0.3-0.8,0.4-1.1c0.1-0.3,0.2-0.7,0.3-0.9c0.1-0.3,0.3-0.6,0.3-0.8c0.1-0.2,0.1-0.4,0.2-0.5l0-0.2l0,0
				c0-0.1,0.1-0.2,0.1-0.2c0-0.3,0.1-0.6,0.2-0.9c0.1-0.3,0.2-0.6,0.2-0.7c0-0.2,0-0.5,0.1-0.8c0.1-0.4,0.1-0.6,0.1-0.8
				c0-0.6-0.1-1.1-0.3-1.3c-0.2-0.2-0.6-0.3-1.2-0.3c-0.3,0-0.6,0.2-1,0.6c-0.4,0.4-0.8,1.1-1.3,1.9c-0.4,0.6-0.7,1.3-1,1.9
				c-0.3,0.6-0.5,1.2-0.7,1.7c-0.1,0.3-0.2,0.5-0.3,0.8l-0.1,0.1c-0.1,0.3-0.2,0.5-0.3,0.7c-0.3,1-0.6,1.9-0.8,2.7
				c-0.2,0.8-0.4,1.6-0.6,2.3l0.1,0.3l0,0c0,0.1-0.1,0.3-0.2,1c-0.1,0.6-0.1,1-0.1,1.2c0,0.1,0,0.2,0,0.3c0,0.1,0,0.2,0,0.2
				c0,0.1,0,0.1-0.1,0.2l-1,0.9c-0.2,0.2-0.3,0.3-0.4,0.5c-0.1,0.1-0.2,0.3-0.3,0.4l0.6,1.4c0.2-0.2,0.4-0.4,0.6-0.6
				C215.7,46.1,215.9,45.9,216.1,45.7L216.1,45.7z M218.5,40.6l-0.1-0.2v0c0-0.2,0.1-0.4,0.2-0.8c0.1-0.4,0.3-0.8,0.5-1.5
				c0.2-0.4,0.4-0.8,0.5-1.1c0.1-0.3,0.2-0.5,0.3-0.7c0.1-0.2,0.1-0.3,0.1-0.4c0-0.5,0.2-1,0.5-1.5c0.3-0.5,0.8-1.1,1.4-1.6l0,0
				l0.2,0.1l0,0c0,0.2-0.1,0.4-0.1,0.6c0,0.2-0.1,0.4-0.1,0.6c0,0.3-0.2,0.9-0.6,1.9c-0.4,1-0.6,1.6-0.8,1.8
				c-0.2,0.3-0.4,0.6-0.5,0.9c-0.2,0.2-0.3,0.5-0.4,0.7c-0.2,0.4-0.3,0.6-0.5,0.8C218.7,40.5,218.6,40.6,218.5,40.6L218.5,40.6z
				 M218.5,40.4L218.5,40.4c0.1,0.1,0.2,0,0.3-0.2c0.1-0.2,0.3-0.4,0.5-0.8c0.1-0.2,0.2-0.4,0.4-0.7c0.2-0.3,0.3-0.6,0.5-0.9
				c0.2-0.2,0.4-0.8,0.8-1.8c0.4-1,0.6-1.6,0.6-1.8c0-0.2,0-0.4,0.1-0.6c0-0.2,0.1-0.4,0.1-0.6l0,0c-0.6,0.6-1,1.1-1.3,1.6
				c-0.3,0.5-0.4,1-0.4,1.5c0,0.1,0,0.2-0.1,0.4c-0.1,0.2-0.2,0.4-0.3,0.7c-0.2,0.3-0.3,0.7-0.5,1.1c-0.2,0.6-0.4,1.1-0.5,1.4
				C218.5,40,218.5,40.2,218.5,40.4z"/>
		</g>
	</g>
</g>
</svg>
